<?xml version="1.0" encoding="UTF-8"?>
<svg id="Capa_2" data-name="Capa 2" xmlns="http://www.w3.org/2000/svg" viewBox="0 0 343.97 206.35">
  <defs>
    <style>
      .cls-1 {
        fill: #1d1d1b;
      }

      .cls-2 {
        fill: #fff;
      }
    </style>
  </defs>
  <g id="Capa_1-2" data-name="Capa 1">
    <g>
      <path id="path112" class="cls-1" d="M343.97,206.35H0L.02,51.19C.02,23.04,23.05,0,51.22,0h292.75v206.35Z"/>
      <path id="path116" class="cls-2" d="M51.19,88.51h27.37v49.01h24.47v-49.01h27.33v-19.79H51.19v19.79Z"/>
      <path id="path132" class="cls-2" d="M253.82,118.64v-49.91h-23.58v68.77h62.19v-18.86h-38.62Z"/>
      <path id="path128" class="cls-2" d="M178.29,123.34c-5.67,0-9.95-1.62-13.56-5-3.53-3.28-6.1-8.36-6.1-15.2v-1.04c0-6.82,2.58-11.94,6.1-15.22,3.62-3.4,7.92-4.97,13.59-4.97,13.34,0,16.18,7.94,17.04,13.13h21.72c-.53-10.46-5.51-17.81-12.57-22.72-6.99-4.88-15.16-7.35-25.96-7.35-13.29,0-22.77,2.95-30.51,9.54-7.83,6.7-12,17.28-12,27.84v.55c0,11.53,3.62,20.21,11.64,27.49,7.51,6.82,18.44,9.93,30.59,9.9,10.78-.02,20.03-2.54,26.41-7.36,7.06-5.32,11.87-12.81,12.45-22.67h-21.66c-.59,4.16-3.19,13.08-17.19,13.08"/>
    </g>
  </g>
</svg>