<?xml version="1.0" encoding="UTF-8"?>
<svg id="Capa_2" data-name="Capa 2" xmlns="http://www.w3.org/2000/svg" viewBox="0 0 611.43 109.72">
  <defs>
    <style>
      .cls-1 {
        fill: #1d1d1b;
      }
    </style>
  </defs>
  <g id="Capa_1-2" data-name="Capa 1">
    <g>
      <path class="cls-1" d="M474.08,108.55l-51.98.17-13.92-20.11-6.68,20.03h-48.52s26.14-88.9,26.14-88.9l93.17.17c7.49.01,14.63,4.41,18.22,8.67,5.12,6.08,6.19,13.68,4.6,21.17-4.04,19.11-20.8,31.27-41.05,31.78l20.02,27.02ZM443.06,59.05c1.48-4.89-2.02-9.2-6.57-9.21l-17.42-.03-5.4,18.57,16.8-.09c5.46-.03,10.95-3.86,12.58-9.24Z"/>
      <path class="cls-1" d="M139.73,19.68l-17.65,60.05c-6.05,20.59-29.55,27.6-48.84,29.15-16.15,1.3-48.61,2.12-62.75-5.58C2.45,99.03-.96,91.66.23,82.53L18.71,19.68h52.62s-14.5,48.97-14.5,48.97c-1.44,4.73,1.27,9.36,6.23,10.1,7.61,1.45,15-1.75,18.63-8.49l14.96-50.54,43.07-.04Z"/>
      <path class="cls-1" d="M556.63,102.96l-29.29-.1-4.91,5.85-41.25-.18,65.42-88.83,51.39-.02,13.44,88.94-53.15.04-1.65-5.71ZM555.49,83.35l-3.08-20.61-11.75,20.59,14.83.03Z"/>
      <path class="cls-1" d="M329.56,42.09l-18.61,67.06-51.62.1c-1.12-2.99-.14-6.65.81-10.03l16.06-57.25-33.68,9.4,8.99-31.86L308.18,1.42c5.16-2.87,9.07-.81,13.82,1.08l22.86,9.1,21.41,8.91-8.56,30.37c-1.13,1.45-5.2.35-6.82-.3l-21.33-8.48Z"/>
      <polygon class="cls-1" points="247.64 78.29 238.74 108.64 131.73 108.65 157.99 19.7 211.22 19.69 194.05 78.18 247.64 78.29"/>
    </g>
  </g>
</svg>