<?xml version="1.0" encoding="UTF-8"?>
<svg id="Capa_2" data-name="Capa 2" xmlns="http://www.w3.org/2000/svg" viewBox="0 0 348.6 133.47">
  <defs>
    <style>
      .cls-1 {
        fill: #1d1d1b;
      }
    </style>
  </defs>
  <g id="Capa_1-2" data-name="Capa 1">
    <g>
      <path id="e3e00503-4570-4d4f-9c94-13248eafc32d" class="cls-1" d="M34.6,72.31l-20,44.93H0l21.97-48.04c-10.33-5.25-17.22-14.76-17.22-32.3C4.76,12.3,20.33,0,38.86,0h18.86v117.24h-12.63v-44.93h-10.49ZM45.09,10.66h-6.72c-10.17,0-20,6.72-20,26.24s9.02,24.92,20,24.92h6.72V10.66Z"/>
      <path id="_426c2572-ff31-40d1-8641-2ae80a190106" data-name="426c2572-ff31-40d1-8641-2ae80a190106" class="cls-1" d="M118.55,34.6v82.64h-12.63v-37.06h-19.02v37.06h-12.79V34.6h12.79v35.09h19.02v-35.09h12.63ZM184.3,133.47h-11.48v-16.23h-35.42v16.23h-11.48v-26.73h5.08c7.54-17.54,8.36-43.13,8.36-65.1v-7.05h38.37v72.15h6.56v26.73ZM165.12,44.93h-14.27v1.48c0,17.38-.82,42.8-7.71,60.34h21.97v-61.82ZM219.56,118.39c-17.05,0-27.55-13.61-27.55-39.02s7.38-45.91,24.92-45.91c13.77,0,22.79,10.33,22.79,38.37v7.05h-34.43c0,18.69,5.25,28.53,15.41,28.53,7.21,0,12.95-3.28,16.23-5.58l2.95,9.84c-5.83,4.47-12.99,6.84-20.33,6.72h0ZM205.46,68.38h21.15c0-14.1-2.3-24.43-9.67-24.43-7.87,0-10.66,9.67-11.48,24.43h0ZM265.63,76.08v41.16h-12.79V34.6h12.79v38.21l19.84-38.21h12.95l-20.5,38.86,23.45,43.78h-13.94l-21.81-41.16ZM303.02,75.92c0-25.91,10-42.47,29.35-42.47,7.38,0,11.64,1.97,15.25,4.26l-1.8,12.13c-3.44-2.95-8.36-5.74-13.61-5.74-9.18,0-15.74,10.33-15.74,31.15s4.92,32.47,15.25,32.47c5.11.07,10.07-1.74,13.94-5.08l2.95,9.51c-4.75,4.18-10.9,6.4-17.22,6.23-17.71,0-28.37-14.26-28.37-42.47h0Z"/>
    </g>
  </g>
</svg>