<?xml version="1.0" encoding="UTF-8"?>
<svg id="Capa_2" data-name="Capa 2" xmlns="http://www.w3.org/2000/svg" viewBox="0 0 308.42 308.42">
  <defs>
    <style>
      .cls-1 {
        fill: #ffdf00;
        stroke: #1d1d1b;
        stroke-miterlimit: 10;
        stroke-width: .5px;
      }

      .cls-2 {
        fill: #e30613;
      }
    </style>
  </defs>
  <g id="Capa_1-2" data-name="Capa 1">
    <g>
      <circle class="cls-1" cx="154.21" cy="154.21" r="153.96"/>
      <g>
        <path class="cls-2" d="M136.85,98.12h22.05c.88.01,1.54.46,1.98,1.33.44.88.52,1.92.24,3.13l-24.8,106.38c-.28,1.21-.86,2.25-1.74,3.13-.88.88-1.78,1.31-2.71,1.31l-22.91-.07c-.93,0-1.62-.44-2.08-1.32-.46-.88-.54-1.92-.24-3.13l12.53-51.02-14.94,23.68c-.83,1.32-1.83,2.33-3.01,3.04-1.18.71-2.27,1.06-3.27,1.06l-8.51-.02c-1.42,0-2.46-.5-3.12-1.49-.66-.99-1.02-1.87-1.07-2.64l-2.92-23.7-13.34,50.98c-.32,1.21-.93,2.25-1.83,3.12-.91.88-1.82,1.31-2.75,1.31l-22.91-.07c-.93,0-1.61-.44-2.05-1.32-.44-.88-.49-1.92-.16-3.13l29.11-106.16c.33-1.2.94-2.24,1.82-3.12.88-.87,1.76-1.31,2.65-1.31h22.05c2.25.02,3.59,1.5,4.02,4.46l5.8,39.49,25.83-39.47c1.94-2.96,4.03-4.44,6.28-4.44Z"/>
        <path class="cls-2" d="M196.09,85.57c2.79,7.28,4.93,13.42,6.4,18.44,1.47,5.02,2.73,10.53,3.75,16.52,1.03,6,1.43,11.93,1.22,17.8-.21,5.87-1.37,11.02-3.48,15.43-2.11,4.52-3.77,8.38-4.98,11.59l15.25,3.09c1-5.52,2.61-10.84,4.82-15.96,2.21-5.12,4.54-9.58,6.99-13.4,2.45-3.81,5.73-8.18,9.84-13.1-2.05,2.46-4.4,4.73-7.03,6.81-2.64,2.08-6.22,4.51-10.75,7.26l-.47-11.59c3.43-1.51,7.53-4.26,12.33-8.28,4.79-4.01,9.47-8.29,14.03-12.83,4.56-4.54,10.39-10.73,17.51-18.55l6.56,5.8,1.26,25.44c-3.9,1.81-7.71,4.83-11.42,9.07-3.71,4.24-7.19,9.12-10.43,14.64-3.24,5.52-5.89,10.5-7.94,14.94-2.05,4.44-4.5,10.35-7.35,17.73l4.9-10.92,14.38,4.52c-2.53,6.12-4.54,11.96-6.05,17.5-1.5,5.55-2.56,10.34-3.16,14.38-.61,4.04-1.01,8.64-1.22,13.81l-33.83-11.82,4.35-24.76-15.73-.98c-.37,4.12.09,8.22,1.38,12.31,1.29,4.09,3.54,9.15,6.76,15.17l-39.75,27.25c-1.21-4.72-2.1-8.86-2.65-12.42-.55-3.56-.92-7.7-1.11-12.42-.18-4.72.03-9.82.63-15.32.61-5.49,1.78-10.95,3.52-16.37l-18.42-1.13,12.09-21.83c1,1.41,5.69,3.29,14.07,5.65.47-.8.92-1.53,1.34-2.18,4.64-6.47,6.99-12.77,7.07-18.89s-1.23-11.45-3.91-16c-2.69-4.54-5.74-7.99-9.17-10.35l28.37-26.04Z"/>
      </g>
    </g>
  </g>
</svg>