<?xml version="1.0" encoding="UTF-8"?>
<svg id="Capa_2" data-name="Capa 2" xmlns="http://www.w3.org/2000/svg" viewBox="0 0 308.42 308.42">
  <defs>
    <style>
      .cls-1 {
        fill: #ffdf00;
        stroke: #1d1d1b;
        stroke-miterlimit: 10;
        stroke-width: .5px;
      }

      .cls-2 {
        fill: #e30613;
      }
    </style>
  </defs>
  <g id="Capa_1-2" data-name="Capa 1">
    <g>
      <circle class="cls-1" cx="154.21" cy="154.21" r="153.96"/>
      <g>
        <path class="cls-2" d="M171.37,236.64h0s0,0,0,0Z"/>
        <path class="cls-2" d="M280.5,103.75l-.23.1s-.39.21-.41.18l-.48-.89c-.05-.09-.14-.29-.21-.26-.07.03-.25.08-.24.08l.61.96c.3.48-.78.98-1.14,1.28-.29-.04-.75-.13-.94-.24-.19-.11-.29-.61-.35-.87l-.87-3.75c-.52-2.23-.41-3.25-.85-5.58l-1.09-5.7-.47-3.23c.47-.19.94-.38,1.22-.59.32-.23.03-1.04.08-1.4.14-1-.45-1.93-1.27-2.63-.09-.17-.15-.44-.11-.61l.07-.31.06-.3c.02-.1.05-.23.06-.3l.12-.81.05-.34c0-.05,0-.29,0-.35l-.05-.4-.34.03-.06.39-.06.35-.08.5c.01.42-.08.07-.16-.27-.09-.28-.08-.21-.28-.35l-.1,1.63c-1.64-1.37-3.36-2.43-5.21-3.39l.14-.28.11-.22.12-.24.12-.25.12-.24c.03-.07.11-.22.11-.25l.04-.35c0-.05-.13-.09-.17-.05l-.27.31-.18.2c-.06.06-.14.16-.17.2l-.7.94-.23-.11-.39-.19-.45-.22.61-1.57-.09-.68c-.01-.11-.36.16-.4.27l-.17.41c-.08.2.23.02.07.35l-.12.24c-.15.29-.13.17-.23.6,0,0-.08.03-.23.07l.24-.76.09-.29c.31-.97-.36.52-.78.72-.26.12-1.06-.1-.92-.43l1-2.32c.37-.86.14-.97.1-.94l-.33.28c-.48.42-.57,1.32-.89,1.69-1.1,1.34-1.94,3.28-3.04,5-.59.92-1.13,1.71-1.61,2.69-.92,1.85-1.84,3.61-2.88,5.41-1.26,2.18-2.95,3.98-4.5,5.96-1.2,1.53-2.22,3.14-3.74,4.33-.55.43-1.09.8-1.44,1.31l1.1-.72c-.6.72-1.16,1.43-1.84,2.04l-4.83,4.34-7.15,5.97c-.74.62-1.48,1.17-2.28,1.76l4.55-4.3,7.07-6.17c1.08-.94,2.34-1.61,3.15-2.71-.88.31-1.57,1-2.37,1.65-3.91,3.18-7.62,6.42-11.26,9.91l-4.79,4.59-1.79,1.53-1.82,1.48-1.22-1.97c-.74,1.03.33,1.73-.94,3.35-.32-.16-.5-.23-.56-.13-.92,1.37.22,1.33-1.81,2.79l.94.04c-.93,2.39-.33,4.72-.4,7.12-.05,1.76-1.01,3.5-.96,5.32l.07,2.44v1.74s1.43-.66,1.43-.66l-2.08,2.61c1.01.16,1.15-.79,1.62-1.29l.87-.93-1,2.07c1.22.03,2.49-.33,3.12-1.73l-1.29.82c1.79-2.77,3.4-4.46,5.64-6.41.33-.29.55-.84,1.01-1.02l-1.64,2.28c-.12.17-1.65,2.32-1.82,2.1l.27.34-.67.21c-.51.16.62.63-1.57,1.41l.35.02c.2.01-.37.82-.05.8.11,0,.49-.08.57-.18l1.78-2.11,2.88-3.39-.63,1.73-1.18,3.03-4.59,12.13-1.32,3.1-1.11,2.63-2.18-.49-6.11-1.16.19-2.11c.16-1.78.76-3.12,1.47-4.71.7-1.57,1.25-4.84,1.74-5.99,1.05-2.44-.18-3.45,1.45-7.42.25-.61-.07-1.17-.09-1.75-.18-5.31,1.41-9.51.67-16.27-.2-1.86-1.29-5.84-2.04-7.66l-1.08-2.61c-.62-1.51-1.26-2.95-2.09-4.34l2.3,5.63c1.02,2.49,1.98,4.93,2.33,7.62.55,4.21.33,7.97-.06,12.08-.6.25-.95.5-1.2.92.04-.71.1-1.02.37-1.53.23-.42-.07-1.1-.15-1.63-.23-1.48-.29-2.97-.35-4.49-.14-3.71-.94-7.02-2-10.74.95,1.23,1.46,2.48,2.32,3.87-.04-1.9-1.68-3.37-2.47-5.63-.48-1.36-.53-2.71-1.21-3.94l.49,2.5-.9-2.54.37-.02c-.49-.77-.85-1.35-1.14-2.1-.56-1.47-1.21-2.8-1.83-4.24l-1.87-4.4-.96-2.19-1.73-3.93c.55.6.99,1.69,1.79,2.26.45-.93.65-1.85.07-2.83-.42-.7-.83-1.51-1.32-2.16-1.1-1.47-2.03-2.85-2.89-4.43l.02.82c-.77-.89-1.44-1.78-1.74-3.09l1.24,1.58-.66-1.38-.7-.42c-.08-.65-.27-1.29-.61-2l.82-1.33s-.14-.31-.13-.36c.02-.08-.17.23-.23.29l-1.38,1.5.35-.99c.07-.19-.43-.42-.55-.44l.14.38c.02.06-.27.09-.29.03l-.35-1.4c-1.33-.63-.39-.53-1.57-1.67l.56,1.51c.33.88.76,1.75.59,2.76l.33.32c.45,1.06,1.64,2.42.87,2.22l-.46-.12.09.63-1.87,1.69,1.08-1.67-.77-.28-.48,1.25-3.1,3.27c-.43.45-1.05.8-1.69.42,1.35-1.86,3.02-3.51,4.68-4.92.14-.12.64-.22.65-.38l.08-.66,1.03-1.04c-.45.23-.68.4-1.27.78l.26-.75c-.13.01-.33.1-.38,0l-.26-.52c-.3-.61-.15-1.19.28-1.68l-.64.27c-.15.06-.31-.55-.33-.72l1.02-.63-1.11.2-.53-1.22c.27,1.83.67,2.66,1.36,4.44-.17.26-.59.69-.79.87l.84.05c-.41.41-.77.64-1.12.85-.62.98-1.36,1.7-2.4,2.19-.8.38-1.09,1.62-2.2,1.94.07-.91.48-1.72.73-2.62l.43-1.56c.26-.94.71-1.76.66-2.65-.71,1.96-1.25,3.76-2.13,5.56-1.32-2.49.91-4.36,1.79-6.29l-1.34,1.59c-.67.8-.98,1.64-1.29,2.65-.37,1.2-1.15,2.27-1.04,3.64l1.2-3.5.22,2.51-1.1,1.15c-.09.09-.18.18-.17.18,0,0-.16-.19-.25-.3-.19.51-.35,1.46-.69,1.92l-1.95,2.69c.85-.65,1.33-1.21,2.02-1.88.56,1.6-1.05,2.39-1.59,3.59l1.68-1.87c-.14,1.09-1.08,1.77-1.59,2.67-.19.33-.36.91-.64,1.21l-.82.89c-.33-.99.94-.94,1.07-2.53l-1.1.84c.2-1.06,2.04-2.07,1.07-2.45l-.82.51c.19-.4.36-.58.69-.97l-.67.04,1.57-2.28-1.19,1.06c.28-2.69,1.37-5.62,2.6-7.85-.03-.07-.21-.29-.33-.42-.6,1.36-1.35,2.57-1.66,4l-.52,2.4-.51,1.59c-.07.21.08.79-.09.96l-1.77,1.75c-.29.29-.59.8-.85,1.12-.15-1.46,1.16-1.8,1.11-2.09-.01-.07-.13-.28-.18-.24-.05.05-.25.22-.3.29l-1.42,1.99c.06,1.2-1.24,1.9-1.67,3.18-.57.71-1.34,1.44-2.08,2.14-.83-.42,3-3.36,3.17-4.72-.44.44-.83.87-1.3,1.42l-2.29,2.66-.67.92c-.06.09-.1.4-.01.38l.66-.21c.05-.33.04-.16.02.27l1.75-1.35c-.26.37-2.38,3.15-3.16,3.18l1.38-1.63c-.27.03-.45.16-.53.08l-.48-.51c-.83,1.47-1.73,2.7-3,3.72-.35.28-.66.62-.73,1.04.32-.28.71-.66.88-.85.06-.06.35.14.35.24.86-.8,1.21-2.03,1.78-1.34-.37.39-1.32,1.33-1.77,1.71-.04.04-.13.1-.27.21-1.53,1.17-1.44,2.15-1.94,1.62-.52-.55,1.17-1.07.56-1.46l-1.01,1.26-1.06.13c.05.81-.09,1.35-.46,1.66l.32.95c.07.21-.27.63-.5.72l.49.85c.72,1.25,2.04,2.21,2.67,3.52l4.7,9.72c.59,1.22,1.29,2.45,1.51,3.78l.48,2.88c.35,2.09,1.07,4.72,2.06,6.69-1.75,3.06-3.59,6.14-4.75,9.52l-1.59,4.67c-.83.18-1.7.48-2.26.82.07,1.22,1.34.79,2,1.67-1.15-.23-2.2-.94-3.35-1.3l-2.99-.94c-.07-.02-4.02-3.45-4.53-3.86l-.86-.52c-.42-.25-1.33-.5-1.67-.18l-.28,2c-.73-.18-.91-.56-.8-1.09l2.57-12.14c.69-3.24,1.16-6.37,1.18-9.65,0-.72.06-1.28.28-1.96l1.3-4.03c.63-1.96,1.28-3.86,1.59-6.04l-3.52,10.65c.05-1.38.42-2.55.73-3.82l.98-4c.22-.9,1.07-3.61,1.8-4.29l.26,1.05c.17-.63.31-1.15.32-2-.82.67-1.04,1.23-1.57,2.02l.85-3.99,1.2-6.38c.27-1.44.52-3.39.46-4.66,0-.14-.5-.55-.56-.45l-.28.47c-.06.1.02.13.45.18.54,2.49-2.77,16.46-3.67,18.77-.8,2.05-1.49,4.04-2.07,6.17-.31,1.12-.62,2.13-1.1,3.14l.51-2.93c.29-1.69.51-3.24.98-4.92,1.67-5.98,3.15-11.9,4.46-17.97.1-.48.25-.91.39-1.37.02-.37-.03-.28-.19.25l-.49-.47.3.58-3.14,12.46-.2-1.16-.19.63c-.56-.29.25-.68.31-.97l1.5-6.74c.53-2.39,1.54-4.55,1.46-7.11l-1.01,3.71-3.17,10.81c-.11.39-.11.8-.15,1.19-.3,2.52-1.07,4.86-1.94,7.18-.03-1.16.23-2.16.48-3.28.5-2.3.8-1.03,1.36-3.87l-.44.31,1.17-4.57,1.12-4.34,1.46-5.38.54-2.01,1.33-.05-.62-.34c.02-.57.4-1.59.36-2.18l-.18-2.63-.95.07.73.5c-.43,2.13.31,1.63-.14,4.39l-.78-.06c-.71,3.05-1.49,5.89-2.43,8.82-.23.73-.29,1.46-.65,2.11l.7-3.34c.2-.98.25-2.04.57-2.94.16-.46.4-.91.36-1.26l-.44.73c-.21-3.65.56-2.87.7-5.46l-1.1,2.33c-.34-.84-1.08-1.28-1.93-1.27l-3.57.04c-.34,0-.76-.05-1.04-.06l-1.63-.03,1.72-.67-3.01.43c-.56.08-1.08.24-1.67.37-.88.2-1.98.02-2.89.14-1.08.14-2.02.23-2.99-.22,1.31-.24,2.41-.27,3.63-.49l2.31-.41,8.19-.56c1.2-.08,2.36-.04,3.57,0,.38.01.96.28,1.22.13l1.22-.68c-2.36-.43-2.44.17-5.35-.6l.74.64-2.08.15c-1.1.08-2.18.06-3.26.05l-2.4-.02c-2.84-.02-5.26,1.01-7.21.77l.34-.53c-.82.14-1.47.88-2.15,1.11-.66.22-4.87,1.11-5.21.46-.44.28-1.07.53-1.58.34l.52-.22c1.28-2.25,5.11-1.09,7.52-2.14l-2.09.03c-2.35.03-2.58.66-4.57.55,1.16-.35,2.32-.43,3.53-1-1.88.11-4.21,1.27-6.13,1.19-1.08-.05-2.17.59-3.25.81l-2.39.49c.64.97,3.14-.99,3.3,0l.99-.41.13.25c-.19-.37,1.84-.76,2.57-.68.4.59-.9,1.37-1.83,1.49l-1.07.14s-.12.07-.12.03v-.54s-.54.68-.54.68l-.24.6c-.06.15-.61.17-.85.14l.38-.98c-.83-.3-1.61.19-2.13.97l-3.38.1,1.49.63s.1-.06.06-.09l-.28-.23,1.69-.12c-.05.34-.16.66-.3.7l-2.54.67c-.28-.26-.27,0-.18.35l2.42-.36-1.59,2.69c-.2.23.03.97-.61.72l1.67-2.99c-1.5,1.43-2.36,3.25-3.37,5.06-.85,1.53-1.83,2.91-2.79,4.36l-1.5,2.24-2.04,3.13-5.69,9.18-.73,1.28-3.04,4.88c-.54.87-.86,1.72-1.7,2.38l-1.15-4.49c-1.36-5.31-2.99-10.45-3.87-15.86l-1.23-7.6c-.24-1.45-.27-2.83-.62-4.22l.08,2.76-.29-1.12c-.08-.18-.19-.33-.24-.22l1.14,6.11-.74-1.85c.16.99.29,1.81.49,2.71l1.12,4.91c.44,1.95.58,3.87.74,5.9l-1.6-6.87-1.78-8.58c-.1-.5-.39-1.14-.45-1.67l-.05-.42c-.01-.11-.42-.17-.47-.08-.2.38-.26,1.28-.22,1.74l.02.31c0,.06-.15-.05-.21-.1-.15-.93-.23-1.68-.33-2.52l-.31-2.42,1.19-.33.82,4.52c.48-.95-.68-3.61-.41-4.44.08-.26,1.73-.78,2.49-1.08.92-.36,2.02-.04,2.96-.86l-2.28.32c-.59-.78-1.69-.89-2.46-.43l2.08.34-1.09.38c-.25.24-.54.45-.97.7-.28-.24-.44-.43-.15-.32l.61-.12c.1-.02.05-.32-.06-.32h-.46c-.43,0-.99.18-1.37.22l-2.44.25c-.78.08-1.64-.07-2.39-.06-1.44.02-2.89.72-4.42-.06l4.88-.34,3.55-.37c.17-1.22,3.09-1.01.96-1.53l-1.83-.45c-.29.18-.44.29-.13.14.26.22.31.26.36.29.06.03-.08.19-.14.24l-.76.56c-.38.28-.9.11-1.39.18l-6.69.98c-.64.09-1.34-.07-2-.25-.35-.01-.36.01.22.16-.02.04-.06.12-.12.23l-4.35.18c-.7.03-1.39.03-2.1.01l-1.66-.04c-1.21-.03-2.36-.11-3.52-.3-.1-.93,1.06-.51.93-1.37-.6.29-1.42.75-2.09.42l-3.81-1.88c-.39-.19-1.02-.47-1.41-.57l-2.26-.59c1.54-.7,3.09-.28,4.61-.02,1.17.2,5.1.92,5.12,2.45l.33-.34c.09-.09-.07-.48-.19-.58-1.85-1.49-5.32-2-7.73-2.19-.63-.05-1.24.04-1.84.24l-1.72.57c-.26.09-.53.65-.57.99.4-.52.83-.88,1.41-.92l-.86,1.31.88-.94,2.11,2.53-2.76-.9-.78-.85-.16.7c-1.96-.59-3.85-1.11-5.83-.46,1.28,0,2.47-.18,3.7.15l2.26.62.26.89.28-.6c.05-.1.41-.09.56-.04l4.1,1.64c.23.09.4.5.29.77l-.28-.5c-.56.48-1.64.91-2.34.52-.87-.49-1.34-1.36-2.13-2.04l.41,1.08c-.31.04-.67-.4-.95-.54l-1.35-.7c-.67-.35-1.48-.44-2.22-.32l-.23.98,1.1,1.9-2.3-.13c-1.1-.06-2.48-1.09-2.61-2.27,0-.52.95-.98,1.31-1.26-1.12-.05-1.87,1.22-1.53,2.25l1.33,1.2-2.08.26c.55.84,1.22.29,1.79.44l6.24,1.68c.79.21.31,1.24.44,1.29l.41.17c.11.77.4,1.78.37,2.46-.09,2.01.23,2.4-1.07,4.25l.48-3.75c.02-.12.35-.4.3-.48l-.27-.4-.62.75c.06.77-.02,1.58-.21,2.44l-.63-.44c-.14,1.36.06,2.81-.28,4.14-.5,1.92-1.12,3.72-1.78,5.56-.27.76-.45,1.45-.58,2.22-.15.87-.57,1.68-.19,2.62.16-.19.04-.73.12-.95l.64-1.88c.49-1.43.72-2.83,1.41-4.14.25-.47.42-.87.69-1.5.08.81-.04,1.72-.31,2.59l-.33,1.08-.06-1.75-1.06,4.81c-.2.91-.49,1.73-.59,2.62l-.11.98-.74.64-.2-.56c-.13.78-.16,1.38-.36,1.99l-.84,2.5c-.04.13-.24.47-.37.47h-.73s.75.4.75.4l-.79,2.35c.91.12.62-2.34,1.86-3.41-.2.92-.59,1.77-1.01,2.55.04.06.3.25.37.18l.48-.48c-.14.91-.84,2.71-1.25,3.71l.46-2.31c-.75,1.55-1.19,3.11-1.71,4.76l-1.24,3.92-1.69,4.99.58-.34-.83,3.12c-.28,1.05-.68,2.07-1,3.05-.17-.04-.35-.11-.39-.05-.05.09-.16.32-.19.42l-.81,3.03c-.65,2.43-.9,2.4-1.37,4.17l-1.3,4.84c.07.09.28.31.22.35l-.23.18c-.05.52-.11,1.13-.25,1.69l-2.02,7.94-1.98,6.92-.86,3.17c-.16.58-.47,1.1.23,1.49.1-.74.19-1.4.36-2.05l.45-1.73c1.22-4.67.34.87,1.18-3.16l.52-2.53c.1-.12.21-.25.23-.27l-.39,1.97-.45,2.68-1.75,9.8c-.14.77-.18,1.48-.64,2.28.07-.99.1-1.99.28-2.99l.68-3.67c-.42.85-.51,1.67-.7,2.55-.53,2.45-1.23,4.77-1.99,7.15.02-.62.07-1.3.22-1.92l1.09-4.62c.25-1.05.59-2.06.61-3.22l-1.5,5.95-1.12,4.47-1.57,6.3c-.18.71-.54,1.35-.7,2.02l-.87,3.64.11-2.04c.16-2.99,1.26-2.12.93-4.22-.11.24-.5.78-.57,1.07l-.53,2.34c-.36,1.59-.58,3.13-.79,4.75-.15,1.12-.22,2.44-.58,3.47-1.28.66-2.1,1.54-2.89,2.69-.31.45-.93.98-1.17,1.51l-1.41,3.14-2.36,1,1.94.65-.44,2.16c-.21.14-.8.29-1.07.35l-3.51.84c.15.13.81.32,1.05.28l3.58-.66-2.51,3.4c-.54.22-1.49.5-1.81,1.08-.12.21-.08.81,0,1.03,1.21.43,2.59.66,3.93.63.68-.02.34,1.22,1.3,1.55,1.24.42,2.45-2.06,3.04-3.03l1.28-1.04c.49,1.38-1.31,2.15-.93,2.43.71.51,2.2-.42,3.04-.9,2.2-1.26,2.22-1.9,4.14-2.92.88-.16,2.45-.75,2.78-1.55.33-.78,1.01-1.81,1.89-2.02l6.87-1.65c1.54-.37,2.92-.5,4.5-.58l6.47-.32c2.34-.12,4.48-.43,6.92-.32l.47,1.48.42-.02-.27-1.34,1.44-.04s.24-.3.19-.31l-.33-.07c-.49-.11-.94-.21-1.41-.4l-.48-4.07c-.04-.34.31-.61.32-.57l.13.46.7,2.54.81-.13c.14-.02-.23-.48-.26-.66-.23-1.48-.14-3.4-.08-5.03l.13-3.13c.08-1.87,1.01-3.5,1.44-5.31l2.86-12.06,1.25-5.41.64-1.47.32-1.79c.23-.34.29-.4.22-.03.27.79.11,1.51,1.18,1.78l.71-4.28.65-4.84c.33.84.67,1.74.75,2.58l.45,4.88c.19,2.09,2.3,9.17,4.38,10.16l.26-1.22,1.36,2.78c.15.3.34.76.43,1.03-.85,1.1-1.57,2.17-2.24,3.49,1.32-.38,1.59-1.56,2.62-2.49.24,2.84.63,3.28-.73,5.67-.73,1.28-1.72,3.25-2.61,4.21-.08.09-.04.53.04.51.11-.03.36-.12.43-.23l1.19-1.86,1.75-2.89.95-1.4,1.6-2.61.92,1.23s.3.08.32.02.08-.26.05-.32l-.71-1.45c.79-1.76,1.09-1.46,2-2.37l2.02-1.99c.98-.96,3.27-.51,3-3.09-.08-.75.98-.9,1.2-1.3,1.18-2.1,1.36-2.1,3.31-3.6,1.87-1.45,2.98-1.46,4.66-3.11l-2.94,1.54c-.13.07-.23.13-.21.07.01-.05.04-.36.07-.41l.76-1.19c.64-1,1.14-1.86,2.05-2.65.44-.39.76-.96,1.13-1.4l3.52-4.27-.88,4.64c-.64,3.34-.3,5.3-1.8,8.28l.69-.21c.13-.04.2.43.12.63-2.78,6.58-4.6,11.72-6.4,18.74-.71,2.8-2.79,11.54-.51,13.65-1.2.07-4.49,1.76-4.46,2.5.05.97,1.07,1.13,1.79,1.18,3.22.23,6.14-.44,9.33-1.43l-.21,2.62.65-.11c.63-.1-.34-1.69.08-2.67l1.88-.57c1-.3,2.03-.5,2.98-.93,1.35-.6,2.61-1.19,4.01-1.72,2.45-.94,3.36,1.17,9.21-.27.48-.12,1.04-.14,1.49-.38,1.68-.89,3.26-1.56,5.1-2.15.53-.17,1.64.02,1.98.39.17.63.04,1.47.66,1.75.39.17.89-.49,1.19-.82l.5.46c.7.64,1.01-3.23,1.02-3.32l.32-2.47c.03-.25.34-.74.52-.91l.51,3.53c.02.14.28.37.38.4.09.03.25-.32.25-.42l-.07-2.83.04-2.9c.01-1.07.67-2.07.96-3.08.25-.86.54-1.7.71-2.57l1.15-5.73,1.71-.25-1.46-.5.2-.83c.98-4-.58-1.3.22-4.26l.36.08c.06.01-.03-.24-.08-.29-.27-.29-.13-.65-.01-1.08l1.38-5.06c.09,1.11-.02,2.1-.25,3.18l-.35,1.63c-.14.65.66.69,1.12-2.4.11-.74.46-1.44.59-2.1l.34-1.65,1.2-5.45c.03-.14.16-.43.27-.41l.44.09-.37.25c-.08.05-.07.22-.09.49,2.17-.25,4.36-.43,6.59-.82,1.52-.27,2.75-.89,4.52-1.04-.2,3.25-.86,4.84-1.09,8.34-.2,3.13-1.13-1.32-.44,7.55.14,1.85.23,3.61.18,5.46l-.18,6.39-.12,2.09-.5,7.51c-.32,4.8-.2,8.99,1.03,13.69.13.51.54,1.36,1.02,1.5.95.28,2.38-1.31,2.07-1.85-.1-.51-.23-.2-.3.19l-.95,1.38c-.2.3-1.14-.16-1.27-.5-.7-1.87-.91-3.71-1.16-5.68-.34-2.74-.32-5.4-.14-8.18l.52-8.09c.06-.86.02-1.67.19-2.45.18,2.19.42,4.14.7,6.23l.68,5.05c.28,2.1-.02,2.38.48,4.98l1.14,5.9c.67,3.48,2.16,6.32,2.69,9.14l.62,3.31c.09.47-.01.91-.2,1.39l.9.48v-.39c-.01-.09.18-.39.19-.3l.1.61s.26-.03.28-.04c.31-.71.56-1.15,1.06-1.73.47.32,1.05.66,1.3,1l.98,1.33c.18.24.96.33,1.16.09.29-.35.67-.4,1.17-.21.36-.1.49-.27-.06-.23-.26-.14-.48-.34-.42-.46l.3-.53s-.03-.22-.05-.29l-.06-.31c-.06-.33.04-.45.11-.69.03-.1-.11-.53-.2-.49-.09.04.39-.2.53-.27.09-.04,0,.46.1.34l1.03-1.02-1.02.6c.22-.49.72-.86,1.19-1.36l.34-.03-.16.22-.22.19s.05.05.2.18l.16-.26,1.04-1-.75.32c0,.28-.03-.06-.03-.23.45-.18.48-.25.71-.5l.17-.19s.16-.14.19-.14h.35s-.33.43-.33.43l1.77-1.27c.92-.66,2.04-1.15,2.91-1.88l4.01-3.35,6.47-5.32c.65-.53,1.28-.94,1.83-1.44.35-.34-.83.31-.54.16l-.25.13c-.4.22-.14.02-.44.31l-.18.17c-.06.06-.14.15-.19.19l-.22.16-.21.15-.22.16c-.07.05-.14.1-.21.15l-.23.15-.23.15c-.05.03-.15.1-.19.13l-.22.17-.21.16-.21.16-.21.16s-.12.12-.18.19l-.18.19c-.28.29-.13.15-.42.34l-.22.15-.23.15c-.26.17-.15.08-.41.32l-.19.17-.19.17-.2.18c-.05.05-.13.12-.18.17l-.19.19-.2.2s-.13.13-.16.15l-.23.18-.22.17s-.11.1-.17.16l-.19.18c-.07.06-.14.14-.19.18l-.2.17-.21.17-.2.15c-.3.23-.04.13-.59.5l-.22.15c-.38.25-.13.05-.4.35l-.17.19-.18.2c-.17.19-.21.18-.42.32l-.24.16s-.13.1-.19.15l-.2.17-.2.16-.23.16-.22.15c-.06.04-.18.11-.21.14l-.19.18-.19.19s-.19.15-.22.16l-.67.29s.03-.05.05-.08l.29-.61-2.4,2.15c-.16.14-.65.17-.59.07.04-.07.18-.31.25-.37l2.42-2.13,8.81-7.93,4.58-3.73.21-.18s.25-.06.21-.03l-.33.28-1.19,1.05-2.54,2.27-8.2,7.41-.93.83.09.29c.48-.45.79-.79,1.17-1.11l2.13-1.78,6.24-5.53,6.99-5.93,1.45-1.13c.84-.66,1.63-1.32,2.53-1.89,3.01-1.9,3.26-2.27,5.86-4.42l4.39-3.63c3.48.77,5.91.12,8.93,1.51,2.55,1.18,5.13,1.97,7.8,2.74l1.87.53,5.43,1.52c2.61.73,3.95.42,5.08.63,2.15.41,4.25.62,6.34,1.27,1.21.38,2.47.79,3.69,1.1.79.2.23,1.83,1.35,1.77.63-.03.89-.48.98-1.32.98-.33,2.87.6,3.76-.15.38-.32-.15-.95-.43-1.12l-1.04-.67c-.16-1.4-1.92-4.35-1.95-5.46l-.2-7.9c-.12-4.54.2-12.02.99-16.41l.68-3.77c.21-1.14.47-2.31.83-3.42l1.54-4.72c.71-2.17-.6-.2,1.27-5.11l1.12-2.95c.16-.42.52-.64,1-.71l.53-.08c.1-.01.28-.28.19-.34l-.48-.35s-.18-.08-.4-.17c.54-1.34,1.21-1.97,1.81-3.31.16-.25.21-.39-.02-.28l-1.27,1.81c-.38.54-.59,1.13-.83,1.77l-.47-.08c.02-.06.21-.35.3-.43l.29-.26c.06-.05-.16-.31-.28-.33l-4.31-.7c-3.12-.5-1.79-1.12-2.9-1.13h-.54c-.08,0-.08,0,.08-.06l4.88-1.88.27-.1,3.22-1.22c.33-.11.34-.14-.02-.16-.49.13-1.06.25-1.48.41l-6.7,2.45c-3.42,1.25-4.28-.24-7.24-.79l3.9-11.12c.88-2.51,2.47-4.71,2.75-6.19l-.3.56c-.08.15-.4.39-.34.1l2.18-4.65.12.25-.14.29-.13.27-.13.27-1.23,2.56c.05.13.13.29.17.21l.23-.47,3.81-7.59,1.08-2.08c.62-1.21,1.5-2.31,2.32-3.4l3.47-4.62c.46-.61,1.13-.74,2.14-1.02l-.24.84c-.04.05-.18.24-.23.29-.04.05.04.19.05.26.05.31,1.12-1.95,2.7-2.57,1.11-.43,2.16-.89,3.24-1.37.59-.27.94-.42,1.34-.85l2.03-2.21c-.31-.2-.65-.35-.66-.52v-.75c-.04-2.14.6-1.02,1.89-3.53l1.55-3c.06-.12.12-.44.13-.54.01-.14-.43-.02-.56.03ZM176.41,96.06c.05,0,.09.04.09.09s-.04.09-.09.09-.09-.04-.09-.09.04-.09.09-.09ZM164.09,107.87c.14.08.1.25-.24.59l.24-.59ZM163.15,103.13c.06,0,.12.05.12.12s-.05.12-.12.12-.12-.05-.12-.12.05-.12.12-.12ZM162.79,104.72c.05,0,.09.04.09.09s-.04.09-.09.09-.09-.04-.09-.09.04-.09.09-.09ZM104.22,103.91c-.06,0-.12-.05-.12-.12s.05-.12.12-.12.12.05.12.12-.05.12-.12.12ZM102.19,93.19c-.4.43-.88.48-1.56.36l1.56-.36ZM101.19,91.25l-1.19.18c.24-.51.63-.4,1.19-.18ZM63.39,91.34c1.06-.07,3.79.72,3.08,2.34l-1.91.37c-.6-.87-1.01-1.73-1.17-2.71ZM60.96,94.61l-.22-.31c-.04-.06.38-.15.4-.08.02.07.06.2.1.27.03.07-.23.18-.27.12ZM61.54,94.52c.58-.19,1.17.1,1.54.69l-1.54-.69ZM62.74,94.34c.92-.02,1.71-.3,1.91.82-.69-.22-1.35-.5-1.91-.82ZM65.27,95.48c-.09,0-.16-.07-.16-.16s.07-.16.16-.16.16.07.16.16-.07.16-.16.16ZM65.1,94.63c.21-.08.3.07.48.49l-.48-.49ZM65.77,94.54c.22-.07.68-.08.71.08l.18.97-.89-1.05ZM31.68,221.87c0,.54.06,1.16-.17,1.48-.23.32-.93.43-1.26.43l1.42-1.91ZM31.61,225.68c-.74.57-2.12.39-2.77-.08.36-.79,1.03-1.39,1.84-1.32.08.15.09.39.21.38l.72-.04c.25-.01.23.89.01,1.06ZM87.8,183.57c.16-.02.27.26.25.71-.2-.12-.33-.45-.25-.71ZM87.28,173.98c-.11-.49-.19-.94-.26-1.52.3.45.4.94.26,1.52ZM85.71,93.98l-.74-.04c.09-.02.3,0,.74.04ZM85.62,168.63c-.07-.33-.07-.7,0-1.13.07.33.07.7,0,1.13ZM83.19,168.95c.25.48.08,1.02-.44,1.33.07-.47.2-.88.44-1.33ZM82.78,171.73l-.5,1.28c-.08-.51.06-1.01.5-1.28ZM77.6,93.41c-.33.13-.6.03-.72-.3l.72.3ZM76.81,92.57c-.09.47-.59.55-.72.09l.72-.09ZM71.05,91.46c-.56-.23-2.44-1.47-2.47-2.34,1.12-.31,3.72,1.05,4.65,1.57l2.96,1.67c-1.32.23-2.64.14-3.8-.34l-1.34-.56ZM72.03,92.63c.51,0,.98.08,1.53.16l2.6.4c-1.48.24-2.86.08-4.13-.57ZM72.82,94.07c-.21.31-.5.59-.68.54l-1.19-.33,1.87-.21ZM71.36,213.26c-.04.1-.2.22-.41.33-.36.19-.83,0-1.06-.39.37-.12.97-.31,1.26-.37.1-.02.25.33.21.43ZM71.01,211.71c0-.09.07-.16.16-.16s.16.07.16.16-.07.16-.16.16-.16-.07-.16-.16ZM71.85,213.98c.25-.06.45-.23.77-.6l.21,2.18-1.71-1.41.72-.17ZM71.98,213.26c-.24-.44-.17-.66-.21-1.01-.12-1.18-.28-2.25.25-3.35l.38,2.91c.06.43-.09.89-.42,1.45ZM71.18,94.77l.91.26c-.32.2-.73.16-.91-.26ZM70.76,95.54c.04-.13.23-.07.59.06-.04.3-.54.78-.8.6l.21-.66ZM71.13,212.31l-.7.26c.12-.21.46-.34.7-.26ZM70.34,94.1c.06,0,.12.05.12.12s-.05.12-.12.12-.12-.05-.12-.12.05-.12.12-.12ZM68.22,93.57l.17.2s-.24.14-.27.09c-.03-.05-.15-.26-.19-.32-.03-.05.25-.02.29.03ZM66.83,92.79c.18.09.53.32.79.5-.22.31-.38.53-.52.42-.21-.17-.3-.51-.27-.92ZM67.03,95.08l-.1-.51c-.02-.09.29-.01.4,0,1.07-.12,1.94-.15,2.99.35l-.95.78c-.45.37-.89.63-1.4.58-.5-.05-.82-.62-.93-1.19ZM68.76,97.04c-.16-.1-.33-.28-.53-.53l1.32.22c-.07.48-.51.48-.79.31ZM69.48,213.73c0,.09-.07.16-.16.16s-.16-.07-.16-.16.07-.16.16-.16.16.07.16.16ZM67.92,98.26c.33.35.5.54.84.98-.51.14-.9-.55-.84-.98ZM68.08,100.5l-.04-.98.38.36c.1.1-.13.41-.34.62ZM67.46,97.04l1.68.57c-.02.35-.13.71-.31,1.14l-1.37-1.72ZM69.13,96.16l.26-.23c.05-.05.34-.05.42-.06.11,0,0,.4-.12.39-.11,0-.6-.06-.56-.1ZM67.3,103.96l-1.22,4.1c-.18-1.53.33-2.9,1.22-4.1ZM65.71,102.89c.51.44.5.94-.07,1.27l.07-1.27ZM62.84,119.44c-.15,1.03-.52,2.01-1.04,2.98.07-1.1.44-2.03,1.04-2.98ZM62.35,125.16c0,.06-.05.12-.12.12s-.12-.05-.12-.12.05-.12.12-.12.12.05.12.12ZM61.87,124.06s.09.28.1.27c0,0-.25.13-.3.16.06-.04.22-.77.21-.44ZM61.71,126.35c.06-.22.23-.49.41-.66-.35,1.43-.53,2.72-1.36,4l.95-3.34ZM59.83,130.43c-.04,1.05-.37,2.08-.73,3.1l-.74,2.1c-.33.93-.39,1.81-1.06,2.45l2.53-7.64ZM57.54,138.32c0,.05-.04.09-.09.09s-.09-.04-.09-.09.04-.09.09-.09.09.04.09.09ZM56.95,139.05l.29-.42c.36-.52-.08,1.04.03.53-.01.07-.36-.06-.32-.11ZM48.19,170.46c0-.12.1-.22.22-.22s.22.1.22.22-.1.22-.22.22-.22-.1-.22-.22ZM48.47,174.85l-.34.43.8-5.09c.22-1.4.36-2.81.9-4.12.2-.49.22-.95.33-1.46.17-.74.94-2.29.42-2.71l.75-2.92,1.02-3.68,1.69-6,1.01-2.27c1.19-2.67,1.49-5.53,2.61-8.05.12.54.17.64.21.24l.14-.47c.02-.08-.07-.08-.32-.22l.55-1.1,1.68-4.39-1.85,7.5c-.35,1.43-.78,2.7-1.28,4.16l-.32-.63-1.32,4.8c-.09.34-.89.48-.59,1.18.36.84-.57,2.84-.91,3.6-.75,1.68-1.27,3.44-1.85,5.21-.37,1.12-.48,2.27-.7,3.39l-.71,3.51c-.1.47-.09.89-.04,1.38l-.13,1.45c.87-2.27.74-5.61,2.27-7.82l-1.82,8.61c-.05.25-.57.53-.59.79-.2,3.79-.92,5.14-1.82,8.48-.41,1.54-.81,3-1.55,4.54l1.75-8.38ZM56.02,148.35c-.19,1.08-.43,2.02-.98,3.14.05-1.06.47-2.12.98-3.14ZM54.59,152.87c0-.05.04-.09.09-.09s.09.04.09.09-.04.09-.09.09-.09-.04-.09-.09ZM54.62,153.33c0,.06-.05.12-.12.12s-.12-.05-.12-.12.05-.12.12-.12.12.05.12.12ZM53.12,156.92c0,.05-.04.09-.09.09s-.09-.04-.09-.09.04-.09.09-.09.09.04.09.09ZM52.36,158.67c0-.06.05-.12.12-.12s.12.05.12.12-.05.12-.12.12-.12-.05-.12-.12ZM52.41,159.59c0,.06-.05.12-.12.12s-.12-.05-.12-.12.05-.12.12-.12.12.05.12.12ZM51.98,215.41c-.64.39-1.29.43-2.01.24l2.01-.24ZM49.87,174.05c0-.06.05-.12.12-.12s.12.05.12.12-.05.12-.12.12-.12-.05-.12-.12ZM47.97,216.06s-.03,0-.04,0c-.41-.04-.4-.04.04,0ZM38.54,219.09c-.18.74-.24,1.05-.54,1.62l-.16-1.39.7-.23ZM38.14,217.33c.21-.01.62-.03.19-.01-.31.66-.31.49-.19.01ZM38.53,222.55l.89-1.45,1.69-.54-1.87,2.46c-.49.64-.9,1.19-1.42,1.69-.06-.99.3-1.49.71-2.17ZM38.75,217.69c0-.05.04-.09.09-.09s.09.04.09.09-.04.09-.09.09-.09-.04-.09-.09ZM39.67,218.98c0-.05.04-.09.09-.09s.09.04.09.09-.04.09-.09.09-.09-.04-.09-.09ZM40.97,216.9c-.18.16-.38.28-.74.42l.74-.42ZM40.29,212.62c.04.44.04.45,0,.04,0-.01,0-.03,0-.04ZM40.86,214.15c.14.14.06.52-.17,1-.15-.14-.06-.53.17-1ZM40.59,218.61c0,.05-.04.09-.09.09s-.09-.04-.09-.09.04-.09.09-.09.09.04.09.09ZM40.41,219.72c0,.05-.04.09-.09.09s-.09-.04-.09-.09.04-.09.09-.09.09.04.09.09ZM40.13,213.66c-.06,0-.12-.05-.12-.12s.05-.12.12-.12.12.05.12.12-.05.12-.12.12ZM40.74,219.4c.22-.86.67-.92,1.42-1.15l-.07.37-1.35.78ZM42.34,202.98c-.06,0-.12-.05-.12-.12s.05-.12.12-.12.12.05.12.12-.05.12-.12.12ZM42.59,217.04l-.38.42c-.17-.11-.36-.22-.26-.25l.64-.18ZM42.25,203.33c0,.05-.04.09-.09.09s-.09-.04-.09-.09.04-.09.09-.09.09.04.09.09ZM42.23,215.97c-.11.25-.53.46-1.17.44.26-.42.5-.78.88-1.24.23.24.39.6.3.81ZM41.7,204.91l.26-1.33c.18.52.07.96-.26,1.33ZM41.46,203.4l-.16-.47c-.04-.12.23-.33.41-.44l-.26.91ZM41.68,205.86l-.64,2.02c-.11-.81.26-1.45.64-2.02ZM42.82,218.52c-.17.6-.65,1.16-1.46,1.06l1.46-1.06ZM42.5,215.94c.45-.43,1.06-.48,1.71-.44-.5.51-1.02.7-1.71.44ZM43.45,199.18c.05,0,.09.04.09.09s-.04.09-.09.09-.09-.04-.09-.09.04-.09.09-.09ZM43.42,196.41c.04.44.04.46,0,.04,0-.01,0-.03,0-.04ZM44.27,216.49c-.19.41-.64.6-1.11.49l1.11-.49ZM45,218.04l-1.75,1.06c.27-.69.95-1.13,1.75-1.06ZM44.53,217.55c.49-.5,1.02-.53,1.76-.39-.54.19-1.1.33-1.76.39ZM45.55,216.5c.42-.39.93-.48,1.51-.26l-1.51.26ZM46.49,215.77c.14-.44.5-.48,1.11-.26l-1.11.26ZM46.76,185.07c.06,0,.12.05.12.12s-.05.12-.12.12-.12-.05-.12-.12.05-.12.12-.12ZM45.87,187.66c.25-.75.32-1.5.83-2.12l-2.67,10.22c-.12-2.37,1.08-5.86,1.84-8.1ZM44.03,190.22c.07,0,.12.05.12.12s-.05.12-.12.12-.12-.05-.12-.12.05-.12.12-.12ZM43.82,197.71c-.05,0-.09-.04-.09-.09s.04-.09.09-.09.09.04.09.09-.04.09-.09.09ZM43.9,190.86c-.28,1.61-.53,3.1-.96,4.63l-.99,3.52c-.21.75-.61,1.41-.94,2.03.67-3.39,1.51-7.13,2.9-10.17ZM41.28,201.7l-.42,1.18c-.15-.45-.1-.94.42-1.18ZM41.13,204.69c-.04.71-.22,1.29-.48,1.83-.04-.81.2-1.29.48-1.83ZM40.73,208.55l-.2,1.15c-.14.77-.41,1.45-.85,1.95.28-1.24.61-2.13,1.05-3.11ZM40.34,204.68c.09.41-.02.61-.41,1.26,0-.4.15-.92.41-1.26ZM40.12,207.29c.06-.01.45.54.3.61l-.6.29.3-.9ZM39.94,208.5c-.18.91-.44,1.69-.76,2.5.03-.89.14-1.76.76-2.5ZM39.45,213.9l-.16,1.88c-.06.09-.35.27-.39.19-.41-.74.02-1.26.55-2.08ZM38.48,212.44c.05,0,.09.04.09.09s-.04.09-.09.09-.09-.04-.09-.09.04-.09.09-.09ZM38.33,216.17l.39.1c-.02.42.02.56-.09.61-.11.04-.49.02-.47-.09l.16-.62ZM38.11,208.95c.06,0,.11.05.11.11s-.05.11-.11.11-.11-.05-.11-.11.05-.11.11-.11ZM35.9,211.45c.71-.86,1.24-1.7,2.31-2.24-.09.94-.47,1.45-.76,2.14l-1.35,3.16-2.54.96c1.07-2.81.77-2.12,2.34-4.02ZM34.38,220.94c-.18-.81.36-1.11,1.04-1.29.16.02.45.15.28.17l-1.32,1.12ZM35.08,222.05c-.28.16-.47.25-1.07.48.3-.22.63-.39,1.07-.48ZM36.17,218.82l-1.44.47c0-.06.02-.11.04-.16l-1.4.52.88-1.16.53.62c.17-.55.68-.52,1.4-.29ZM34.71,217.87c-.02-.05.31.05.29.1l-.06.22c-.01.05-.21-.24-.24-.32ZM37.21,215.2l-.11.56c-.13.66-.46,1.54-1.39,1.26-.14-.67.49-1.65,1.49-1.82ZM36.35,214.83c.27-.24.58-.36.91-.29l-.91.29ZM36.92,217.5c-.26.05-.58.05-.95,0,.26-.05.58-.05.95,0ZM36.37,218.06c-.33.07-.7.07-1.13,0,.33-.07.7-.07,1.13,0ZM35.51,221.84c.11-.04.22-.07.31-.1-.45.22-.7.31-.31.1ZM35.84,221.04c.21-.54.48-.82,1.1-1.33l.16.41-.41.84c-.08.17-.58.12-.85.07ZM37.66,221.72l-.85.87c.05-.57.26-.99.85-.87ZM36.9,214.33c-.02-.93.41-1.77.91-2.62-.06.83-.33,1.72-.91,2.62ZM33.4,215.95l2.59-1.09c-.34.88-1.15,2.97-2.88,2.34.01-.23.16-.84.29-1.25ZM33.75,218.43l-1.2,1.35.15-1.68,1.05.34ZM31.38,217l1.21-.48c.06-.03.02.64-.14.62l-1.07-.14ZM32.51,220.73c.25-.46,1.01-.57,1.53-.51l-.43,1.42-1.49.88c.03-.62.08-1.24.39-1.8ZM32.65,222.94c0,.09-.07.16-.16.16s-.16-.07-.16-.16.07-.16.16-.16.16.07.16.16ZM34.11,227.35c-.18.26-.82.51-1.11.39-.31-.13-.7-.98-.38-1.09l2.6-.94-1.1,1.64ZM32.16,226.13l3.38-1.87c.7.75-2.96,2.15-3.38,1.87ZM32.14,225.49c-.05-.62-.1-1.25.09-1.55.17-.26.68-.45,1.06-.61l3.04-1.25c.45,1.5-3.57,3.08-4.19,3.41ZM36.3,224.17c.03-.3.25-.8.46-.95l.94-.67c-.22.77-.63,1.14-1.4,1.62ZM37.08,226.18c.05-.04.23-.16.31-.21l2.97-1.53c.94-.09-4.82,2.9-3.28,1.74ZM43.26,221.72c-1.58,1.22-3.09,2.25-4.99,3.38.21-.44.75-.85,1.09-1.33l1.23-1.74c.4-.56,1.08-1.31,1.54-1.77.33-.18,1.13-.23,1.58-.26l-.46,1.72ZM44.13,222.14l1.83-1.61c-.33.88-1.12,1.33-1.83,1.61ZM44.02,221.14c-.08-.32-.15-.79-.16-1.15.81-.31,1.5-.57,2.51-.5l-2.35,1.65ZM45.86,218.38c-.15-.23.35-.54.63-.58l1.14-.15-1.78.73ZM47.18,217.21l1.41-.66c.02.05.06.2.13.42l-1.54.24ZM49.07,218.54c-.06,0-.12-.05-.12-.12s.05-.12.12-.12.12.05.12.12-.05.12-.12.12ZM50.56,216.4l-1.34.51c.1-.7.79-.67,1.34-.51ZM49.39,218.36c1.24-.76,2.6-.9,3.99-1.28.57-.22,1.16-.39,1.78-.06l-5.77,1.34ZM54.56,215.89c.97-.66,2.1-.58,3.18-.44l-1.38.41c-.56.17-1.21.17-1.8.03ZM60.62,215.62c-1.23.35-2.38.74-3.71.81,1.19-.51,2.44-.69,3.71-.81ZM67.67,216.12c-3.29.31-5.34.16-8.67.51,3.23-1.04,6.52-1.51,9.94-2.07l1.38-.22,2.56,1.59c-1.85,0-3.48.03-5.21.19ZM72.91,210.53c-.06,0-.12-.05-.12-.12s.05-.12.12-.12.12.05.12.12-.05.12-.12.12ZM72.88,210.03c-.47-.98-.82-3.83.1-4.62l.15,2.69c.04.68.12,1.19-.25,1.93ZM73.1,204.52c-.05,0-.09-.04-.09-.09s.04-.09.09-.09.09.04.09.09-.04.09-.09.09ZM72.96,94.49c.13-.38.5-.59.69-.5.24.11.42.22.71.45-.52.08-.91.1-1.4.05ZM73.84,205.22c.11.47.02.92-.2,1.68-.13-.51-.2-1.13.2-1.68ZM74.08,208.39l-.26,2.57-.15-1.74c-.06-.72.27-1.65.56-2.31l-.15,1.48ZM73.61,204.53l.03-1.66c.02-1.27.18-2.46.74-3.53.48.2.25,5.29-.78,5.19ZM75.37,195.32l-.58,3.67c-.34-1.27.11-2.42.58-3.67ZM75.31,199.67c-.06,0-.12-.05-.12-.12s.05-.12.12-.12.12.05.12.12-.05.12-.12.12ZM77.92,188.33c-.36,2.44-1.19,4.76-1.76,7.27l-.72,3.23c-.02-2.31.51-4.55.88-6.91.43-2.71.89-5.33,1.78-7.87-.14,1.45.02,2.88-.18,4.28ZM78.03,183.75l.23-.57c.14.08.1.25-.23.57ZM74.56,94.14l2.9-.33c.21-.02.63.13.89.32-1.3.26-2.46.58-3.78.01ZM78.77,185.22c.04-1.64.68-5.41,1.41-6.69l-1.41,6.69ZM78.56,94.12c.63-.37,1.38-.34,2.06-.24l1.8.27c-1.27.1-2.46.11-3.86-.03ZM81.32,171.56c0,.06-.05.12-.12.12s-.12-.05-.12-.12.05-.12.12-.12.12.05.12.12ZM80.65,174.45l.2-.69c.12.15.03.55-.2.69ZM80.65,179.11c-.05,0-.09-.04-.09-.09s.04-.09.09-.09.09.04.09.09-.04.09-.09.09ZM80.77,178.41c.13-1.14.37-2.15.65-3.18-.03,1.15-.17,2.2-.65,3.18ZM81.31,171.22c.21-1.32.84-3.28,1.41-4.31-.08,1.65-.44,3.05-1.41,4.31ZM82.24,173.59c0,.06-.05.12-.12.12s-.12-.05-.12-.12.05-.12.12-.12.12.05.12.12ZM82.91,175.79l-.69,3.97c-.66-1.49-.4-2.91.15-4.32l.88-2.25-.34,2.6ZM83.15,171.71c.18-.57.31-.92.48-1.29.04.57-.17.93-.48,1.29ZM83.94,159.63s0-.03,0-.04c.04.44.04.46,0,.04ZM85.03,166.03l.04-.74c.02.09,0,.3-.04.74ZM84.76,156.26c.19.8.31,1.43.39,2.37-1.09-.53-1.02-1.71-.39-2.37ZM86.21,176.13c-.44-1.11-.81-2.26-1.02-3.46.53,1.11.85,2.14,1.02,3.46ZM85.39,176.23c.84,2.04,1.28,3.84,1.66,5.91l.58,3.19c-1.68-2.93-2.07-6.09-2.23-9.1ZM87.76,186.09c-.09-.13-.04-.51.07-.71l.84,2.03-.91-1.33ZM88.65,182.67l.09-.65.28.91c-.07,0-.39-.14-.37-.27ZM88.81,186.41l.13-.53.29.79c-.2-.04-.45-.15-.42-.26ZM89.3,187.03c-.05,0-.09-.04-.09-.09s.04-.09.09-.09.09.04.09.09-.04.09-.09.09ZM89.25,183.69c.22.34.3.5.49,1.25-.29-.28-.52-.72-.49-1.25ZM90.5,93.32c-.06,0-.12-.05-.12-.12s.05-.12.12-.12.12.05.12.12-.05.12-.12.12ZM102.71,218.43c.96-1.17,2.4-1.67,3.81-2.14l.66-.22c.18-.06.28.44.42.79l1.1-1.14-.09.69c-.02.12.22.26.39.38,1.7,1.24,2.39.52,4.18.86-1.82.71-8.61,2.25-10.45.78ZM108.15,214.47c0-.06.05-.12.12-.12s.12.05.12.12-.05.12-.12.12-.12-.05-.12-.12ZM111.66,201.01c-.09.54-.23.96-.48,1.47,0-.55.18-1.01.48-1.47ZM112.14,212.61c.27.38.35,1.35.21,1.82-.03.1-.5-.06-.48-.16l.27-1.66ZM111.95,203.22c.05.26.05.58,0,.95-.05-.26-.05-.58,0-.95ZM111.96,197.16c-.05,0-.09-.04-.09-.09s.04-.09.09-.09.09.04.09.09-.04.09-.09.09ZM111.89,200.66c0,.06-.05.12-.12.12s-.12-.05-.12-.12.05-.12.12-.12.12.05.12.12ZM110.26,214.09l.46-.72c.07.26-.08.52-.46.72ZM110.58,214.74c0,.05-.04.09-.09.09s-.09-.04-.09-.09.04-.09.09-.09.09.04.09.09ZM109.84,215.55c.06,0,.12.05.12.12s-.05.12-.12.12-.12-.05-.12-.12.05-.12.12-.12ZM109.54,214.53c-.34-.58-.13-1,.27-1.35,0,.4-.11.9-.27,1.35ZM109.91,214.74c0-.06.05-.12.12-.12s.12.05.12.12-.05.12-.12.12-.12-.05-.12-.12ZM109.88,212.79c.08-.56.32-1.11.64-1.66-.03.61-.13,1.09-.64,1.66ZM110.11,208.98l.14-1.44c.1-1.05.43-1.99,1.04-2.85.04.76-.76,3.5-1.18,4.29ZM110.92,202.87c0-.06.05-.12.12-.12s.12.05.12.12-.05.12-.12.12-.12-.05-.12-.12ZM110.78,211.56c.09.01.5.05.25.03-.23.57-.19.49-.2.45-.03-.15-.13-.49-.06-.48ZM111.04,211.15c-.05,0-.09-.04-.09-.09s.04-.09.09-.09.09.04.09.09-.04.09-.09.09ZM111.38,212.97c.21.56.17,1.01-.26,1.47.06-.53.14-.99.26-1.47ZM111.15,210.25l.26-1.14c.15.34.03.79-.26,1.14ZM111.18,208.05c0-.81.22-1.47.68-2.07-.13.79-.35,1.41-.68,2.07ZM111.22,198.68c-.11.89-.26,1.77-.51,2.64l-1.21,4.32c.06-1.05.14-2.11.39-3.1l.99-4.03c.16-.67.37-1.29.59-1.94l-.25,2.1ZM109.57,208.56c.14.57.21,1.1-.19,1.71-.15-.56-.04-1.16.19-1.71ZM109.51,211.5l-.35-.17c-.12-.06.02-.52.14-.58.07-.03.12.24.21.75ZM109.28,215.09l-.21.24c-.06.07-.11-.16-.13-.27,0-.05.38-.02.34.03ZM108.49,209.5c-.59-.39-.82-1.09-.52-1.8.21-1.09.52-2.1,1.05-3.03l-.53,4.83ZM108.79,213.18l.04-.74c.02.09,0,.3-.04.74ZM108.73,213.45c0,.05-.04.09-.09.09s-.09-.04-.09-.09.04-.09.09-.09.09.04.09.09ZM112.62,216.43c-.67.55-1.13.91-1.93.54l-.51-.24c-.15-.07.16-.48.32-.56l1.86-.87c.39-.18,1.24-.32,1.32.29.04.31-.8.62-1.06.83ZM113.21,214.21c-.56-.51-.56-1.27-.31-1.86.67.45.89,1.17.31,1.86ZM112.88,189.72c-.19-.51,0-1.13.42-1.77.02.5-.09.84-.42,1.77ZM113.02,199.23l-.07,1.58s-.28-.09-.28-.15l-.02-.45.37-.97ZM112.69,194.03c-.05,0-.09-.04-.09-.09s.04-.09.09-.09.09.04.09.09-.04.09-.09.09ZM113.3,194.51l.34-.63.06.9c-.12,0-.45-.18-.39-.27ZM112.56,188.83l-.57,3.87-1.9,6.89c-.43,1.54-.79,3.07-1.35,4.54-.61,1.61-1.28,3.02-1.44,4.87l1.16,1.44-.65,4.95c-.77-.05-1.22-.57-1.28-1.29-.3-3.33,0-6.36.83-9.6l1.47-5.77c1.18-4.64,2.9-9,4.75-13.56.71,1.24-.71,1.67-1.01,3.65ZM134.79,94.47l.47-.23-.61.94-.15-.3c-.07-.14-.1-.23-.14-.17l-.32.45-.08-.51c-.02-.14.17-.41.31-.36.21.07.42.23.52.18ZM134.15,93.65c.11,0,.21.09.21.21s-.09.21-.21.21-.21-.09-.21-.21.09-.21.21-.21ZM133.42,93.75l-.68.45c-.02-.19.41-.44.68-.45ZM132.48,94.74c-.16.56-.48.92-1.03,1.46.27-.51.56-.99,1.03-1.46ZM129.73,98.66l-1.84,2.76c.26-1.17,1.07-1.95,1.84-2.76ZM129.73,100.89c-.09.02-.39-.15-.33-.2l.32-.24.88-1.64c1.03-1.57,1.2-1.27,2.08-2.81.14-.62.22-1.24.86-1.55.12.81-.11,1.6-.62,2.22l-1.86,2.27.82-.42c-1.01,1.83-2.86,4.47-4.53,6.06.76-1.72,1.93-2.12,2.37-3.7ZM132.78,212.32c-.41.61-.86.25-1.22-.06l1.22.06ZM129.66,211.98c0,.06-.05.12-.12.12s-.12-.05-.12-.12.05-.12.12-.12.12.05.12.12ZM129.36,212.72c0,.05-.04.09-.09.09s-.09-.04-.09-.09.04-.09.09-.09.09.04.09.09ZM127.24,104.72c.05,0,.09.04.09.09s-.04.09-.09.09-.09-.04-.09-.09.04-.09.09-.09ZM124.66,106.01c.05,0,.09.04.09.09s-.04.09-.09.09-.09-.04-.09-.09.04-.09.09-.09ZM123.56,108.77c.05,0,.09.04.09.09s-.04.09-.09.09-.09-.04-.09-.09.04-.09.09-.09ZM123.38,107.85l.1.28s-.24.14-.3.17c.09-.05.14-.63.2-.44ZM123.01,108.58c.05,0,.09.04.09.09s-.04.09-.09.09-.09-.04-.09-.09.04-.09.09-.09ZM121.9,110.24c.05,0,.09.04.09.09s-.04.09-.09.09-.09-.04-.09-.09.04-.09.09-.09ZM121.81,157.29s-.14.14-.18.18c-.04.04-.24.04-.21-.01l.28-.44s.15.22.11.27ZM121.63,110.63c.09,0,.16.07.16.16s-.07.16-.16.16-.16-.07-.16-.16.07-.16.16-.16ZM120.92,113.52l.5-.51c-.1.18-.23.32-.5.51ZM118.06,169.81l-.67,1.35,1.08-3.8c.23-.8.49-1.5,1.03-2.05-.29,1.62-.73,3.06-1.45,4.5ZM119.42,172.02c0,.05-.04.09-.09.09s-.09-.04-.09-.09.04-.09.09-.09.09.04.09.09ZM119.23,173.31c0,.05-.04.09-.09.09s-.09-.04-.09-.09.04-.09.09-.09.09.04.09.09ZM116.56,176.15c.12-1.84.72-3.55,1.59-5.16l-1.59,5.16ZM116.84,181.6c0,.05-.04.09-.09.09s-.09-.04-.09-.09.04-.09.09-.09.09.04.09.09ZM116.3,183.55c.07-.58.15-1.03.26-1.52.15.58.04,1.07-.26,1.52ZM117.54,165.59l.39-1.09c.45.43.23.96-.39,1.09ZM118.26,166.97l-.44,1.12c-.02-.42.13-.79.44-1.12ZM117.55,167.14c0,.09-.07.16-.16.16s-.16-.07-.16-.16.07-.16.16-.16.16.07.16.16ZM118.53,175.98l-.4,1.01c-.34-.38-.03-.81.4-1.01ZM118.1,178c-.08.5-.17.9-.41,1.5-.17-.49.08-1.02.41-1.5ZM118.47,175.61c0-.06.05-.12.12-.12s.12.05.12.12-.05.12-.12.12-.12-.05-.12-.12ZM118.31,165.94c0-.05.04-.09.09-.09s.09.04.09.09-.04.09-.09.09-.09-.04-.09-.09ZM118.72,164.32l.43-1.06c.19.45.04.87-.43,1.06ZM119.39,162.17c0-.06.05-.12.12-.12s.12.05.12.12-.05.12-.12.12-.12-.05-.12-.12ZM119.57,168.15l.28-.44s.15.22.11.27c-.04.04-.14.14-.18.18-.04.04-.24.03-.21-.01ZM119.8,163.11c.04-.41.21-.72.51-.95-.04.41-.21.72-.51.95ZM120.61,158.86c-.05,0-.09-.04-.09-.09s.04-.09.09-.09.09.04.09.09-.04.09-.09.09ZM120.73,163.27c0,.06-.05.12-.12.12s-.12-.05-.12-.12.05-.12.12-.12.12.05.12.12ZM118.18,118.36c.11-.35.26-.92.43-1.18l2.08-3.27c-.33,1.11-1.74,3.72-2.51,4.46ZM120.28,161.16c.21-.01.62-.03.19-.01-.31.66-.31.49-.19.01ZM120.36,164.56c0,.06-.05.12-.12.12s-.12-.05-.12-.12.05-.12.12-.12.12.05.12.12ZM120.97,164.91c-.15.82-.43,1.61-.93,2.39.25-.8.52-1.54.93-2.39ZM120.89,161.71c0-.05.04-.09.09-.09s.09.04.09.09-.04.09-.09.09-.09-.04-.09-.09ZM121.23,111.34c-.11.59-.44,1.09-.81,1.56-.79,1.42-1.52,2.82-2.72,3.97l3.52-5.52ZM119.95,117.19c-.39,1.26-1.02,2.26-1.65,3.37-1.38,2.43-2.57,4.88-4.37,6.99.49-1.18,1.14-2.19,1.77-3.31l1.73-3.06,2.52-3.99ZM117.02,167.54c.09,0,.16.07.16.16s-.07.16-.16.16-.16-.07-.16-.16.07-.16.16-.16ZM116.84,165.94c0-.05.04-.09.09-.09s.09.04.09.09-.04.09-.09.09-.09-.04-.09-.09ZM116.49,167.35c0,.1-.08.18-.18.18s-.18-.08-.18-.18.08-.18.18-.18.18.08.18.18ZM114.68,124.62c.11-.77.48-1.36,1.07-1.87-.31.67-.62,1.22-1.07,1.87ZM117.21,118.37c.09,0,.16.07.16.16s-.07.16-.16.16-.16-.07-.16-.16.07-.16.16-.16ZM108.27,125.59c.06,0,.12.05.12.12s-.05.12-.12.12-.12-.05-.12-.12.05-.12.12-.12ZM108.31,132.9c-.01.06-.04.16-.06.22-.02.06-.21-.24-.24-.31-.02-.05.31.04.3.1ZM108.07,120.96s0-.03,0-.04c.04.44.04.45,0,.04ZM108.09,127.37c.05,0,.09.04.09.09s-.04.09-.09.09-.09-.04-.09-.09.04-.09.09-.09ZM107.97,124.09c-.6-1.89-.89-3.7-1.19-5.58-.25-1.55-.52-3.03-.56-4.62.77,3.39,1.44,6.75,1.75,10.2ZM107.28,123.16c0,.1-.08.18-.18.18s-.18-.08-.18-.18.08-.18.18-.18.18.08.18.18ZM103.67,108.03c.05,0,.09.04.09.09s-.04.09-.09.09-.09-.04-.09-.09.04-.09.09-.09ZM102.57,103.42c-.15-.38-.23-.8-.24-1.3.21.34.3.67.24,1.3ZM101.96,102.14l.24-.93c.12.26,0,.64-.24.93ZM101.99,100.87l-.25-1.32c.5.27.45.87.25,1.32ZM101.62,98.46s0-.02,0-.04c.04-.41.04-.4,0,.04ZM101.46,100.36c.06,0,.12.05.12.12s-.05.12-.12.12-.12-.05-.12-.12.05-.12.12-.12ZM100.06,95.86l-.91-1.37s.71-.17.82-.06l.09,1.43ZM99.8,93.67c.05,0,.09.04.09.09s-.04.09-.09.09-.09-.04-.09-.09.04-.09.09-.09ZM97.9,93.34c.57-.08,1.28-.04,1.76-.02l-.46.75c-.1.16-.48.08-.84-.07l.62-.26-2.98-.13,1.9-.26ZM98.69,184.26l-.82.98.28-1.1.53.13ZM96.55,184.43l-.5,1.05c-.34-.57-.13-.93.5-1.05ZM96.02,185.81l-.21.24c-.06.07-.1-.14-.13-.27-.01-.06.38-.01.34.03ZM93.9,184.36c.06-.04.24-.26.31-.27l1.55-.05-1.45.58c-.07.03-.47-.22-.42-.26ZM92.62,187.23c-.08-.28-.13-.71.01-.75.16-.05.49-.14.66-.18l.59-.12c.11-.02.17.27.23.46l-1.5.59ZM92.71,191.17c0,.05-.04.09-.09.09s-.09-.04-.09-.09.04-.09.09-.09.09.04.09.09ZM92.51,185.95c.37-.49.9-.84,1.64-.31l-1.64.31ZM93.85,184.47c-.29.52-1.04.72-1.67.73l-.05-1.14c.62,0,1.16-.03,1.72.41ZM90.96,188.62c-.06,0-.12-.05-.12-.12s.05-.12.12-.12.12.05.12.12-.05.12-.12.12ZM91.16,183.67c.29.58.47,1.2.41,2.08-.61-.46-.97-1.31-.41-2.08ZM91.56,188.59c.82.49,1.01,1.3.9,2.29-.78-.41-.91-1.37-.9-2.29ZM92.35,192.47c-.02-.06.39-.09.38-.03l-.1.47c-.02.09-.24-.34-.28-.44ZM92.6,195.03l.03-1.26c.27.3.41.45.44.58.04.16-.19.42-.47.68ZM94.29,188.23c-.12.36-.58.66-.96.68-.29.02-.7-.73-.49-1.07.28-.46,1.39-.61,1.8-.62l-.35,1ZM93.96,185.32c.68-.36.96-.47,1.55-.62-.12.39-.24.67-.41.76-.29.15-.63.14-1.15-.14ZM95.21,186.07l-.19.22s-.17-.25-.22-.32c-.03-.04.33-.04.39-.03.06,0,.05.08.02.13ZM96.57,189.13l-.21.24c-.06.07-.11-.16-.13-.27-.01-.06.38-.02.34.02ZM95.47,188.54c-.03-.82.52-1.88,1.25-2.25.74-.38-.91,2.37-1.25,2.25ZM97.78,184.25c-.05.42-.13.79-.78,1.09l.78-1.09ZM97,187.81c.4-.76.84-1.43,1.41-2.11-.24.83-.74,1.46-1.41,2.11ZM98.22,188.29l1.45-1.84c.23-.3.39-.58.76-.52l-1.56,1.88c-.14.17-.4.34-.65.48ZM98.83,188.51c.45-.6.92-1.15,1.42-1.63-.34.7-.77,1.22-1.42,1.63ZM101.93,187.31c-.46.58-1.25,1.15-2.01,1.14l1.23-1.56c.08-.1.42-.23.53-.28.14-.07.37.55.25.7ZM100.82,186.2c0-.05.04-.09.09-.09s.09.04.09.09-.04.09-.09.09-.09-.04-.09-.09ZM101.05,185.41c-.08.1-.57.1-.57-.01,0-.11,0-.45.09-.52.4-.33,1.24-.95,1.87-1.17l-1.39,1.7ZM103.08,107.49c-.48-1.27-.88-2.53-.89-4.07l.4.7.22-.36.29,1.57-.47-.73.46,2.35c.01.05.32.28.3.27-.01,0-.17.14-.31.27ZM104.04,115.76c-.05,0-.09-.04-.09-.09s.04-.09.09-.09.09.04.09.09-.04.09-.09.09ZM104.22,116.5c-.05,0-.09-.04-.09-.09s.04-.09.09-.09.09.04.09.09-.04.09-.09.09ZM104.38,117.09s0-.03,0-.04c.04.44.04.46,0,.04ZM104.75,119.3s0-.03,0-.04c.04.44.04.46,0,.04ZM103.55,110.47c.51.35.48.96.62,1.56l.96,4.13c.16.68.48,1.27.14,1.86l-1.73-7.55ZM105.69,119.47l-.28-1.14c.31.31.43.69.28,1.14ZM105.95,113.37c0-.06.05-.12.12-.12s.12.05.12.12-.05.12-.12.12-.12-.05-.12-.12ZM106.8,130.5c-.05,0-.09-.04-.09-.09s.04-.09.09-.09.09.04.09.09-.04.09-.09.09ZM106.02,121.81l.45,1.6.9,3.49c.19.77.38,1.5.37,2.34-.84-2.43-1.47-4.74-1.72-7.44ZM107.72,126.08c-.05,0-.09-.04-.09-.09s.04-.09.09-.09.09.04.09.09-.04.09-.09.09ZM107.91,134.55c-.05,0-.09-.04-.09-.09s.04-.09.09-.09.09.04.09.09-.04.09-.09.09ZM108.09,136.02c-.05,0-.09-.04-.09-.09s.04-.09.09-.09.09.04.09.09-.04.09-.09.09ZM108.27,133.74c-.06,0-.12-.05-.12-.12s.05-.12.12-.12.12.05.12.12-.05.12-.12.12ZM108.34,130.86c0-.06.05-.12.12-.12s.12.05.12.12-.05.12-.12.12-.12-.05-.12-.12ZM108.54,132.25l.37-.3-.29.56c.04.1-.13-.22-.08-.26ZM108.64,134.85c-.06,0-.12-.05-.12-.12s.05-.12.12-.12.12.05.12.12-.05.12-.12.12ZM108.81,133.25l-.05-.51c0-.07.39,0,.36.06l-.1.26c-.02.06-.2.26-.21.19ZM109.1,134.39c-.06,0-.12-.05-.12-.12s.05-.12.12-.12.12.05.12.12-.05.12-.12.12ZM109.19,131.79c-.05,0-.09-.04-.09-.09s.04-.09.09-.09.09.04.09.09-.04.09-.09.09ZM109.13,129.74c-.04-.15-.22-.67-.24-.9l-.41-4.71c-.23-.82-.37-1.62-.21-2.5l1.44,5.71c.22.87.55,1.52-.58,2.4ZM109.65,133.47c-.06,0-.12-.05-.12-.12s.05-.12.12-.12.12.05.12.12-.05.12-.12.12ZM109.86,131.97c-.17-.32-.38-.77-.36-1.02.02-.25.42-.62.76-.89.04.17-.03.42-.15.77l-.25,1.14ZM110.3,131.23c-.05,0-.09-.04-.09-.09s.04-.09.09-.09.09.04.09.09-.04.09-.09.09ZM110.58,128.77l4.63-7.41c.45-.73.96-1.38,1.56-2.1-1.17,2.62-2.7,5.03-4.58,7.33-.57.69-.91,1.51-1.61,2.19ZM111.29,128.87l-.46.74c-.07-.33.11-.52.46-.74ZM110.97,130.75c-.1-.77.41-1.08.91-1.46l-.91,1.46ZM112.1,128.82c.01.09-.03-.18-.04-.25-.01-.1.18-.19.35-.29l-.32.54ZM113.34,128.63c-.09,0-.16-.07-.16-.16s.07-.16.16-.16.16.07.16.16-.07.16-.16.16ZM113.98,170.09c-.05,0-.09-.04-.09-.09s.04-.09.09-.09.09.04.09.09-.04.09-.09.09ZM116.05,167.66c.1.36-.09.58-.55.66l.55-.66ZM115.64,169.54c-.05,0-.09-.04-.09-.09s.04-.09.09-.09.09.04.09.09-.04.09-.09.09ZM117.23,168.22l-.44,2.54c-.41,2.39-.84,4.68-1.81,6.91.05-1.39,1-9.1,2.25-9.45ZM115.84,177.44c.66-.13-1.36,4.9-1.59,4.67l1.59-4.67ZM115.27,185.56c.05,0,.09.04.09.09s-.04.09-.09.09-.09-.04-.09-.09.04-.09.09-.09ZM115.73,183.52l-.29,2c-.54-.87.05-1.37.29-2ZM115.27,190.41c.06,0,.12.05.12.12s-.05.12-.12.12-.12-.05-.12-.12.05-.12.12-.12ZM115.1,186.94c-.25.53-.22.47-.22.42l-.04-.48c0-.07.52.11.27.05ZM114.9,187.58c.05,0,.09.04.09.09s-.04.09-.09.09-.09-.04-.09-.09.04-.09.09-.09ZM114.9,212.62l.7.08-.75.49c-.02-.18-.06-.58.05-.57ZM115.52,188.87c0-.06.05-.12.12-.12s.12.05.12.12-.05.12-.12.12-.12-.05-.12-.12ZM114.8,189.13l-.21.24c-.06.07-.11-.15-.13-.27-.01-.06.38-.02.34.03ZM114.35,184.47c-.07-.33-.07-.7,0-1.13.07.33.07.7,0,1.13ZM114.15,212.62c.03-.08.34.03.31.1l-.27.59c.04.07-.04-.06-.18-.29l.14-.4ZM114.07,215.08l1.47.23-1.35.28-.12-.51ZM114.4,216.45c.7-.49,1.46-.81,2.28-.82-.71.48-1.45.73-2.28.82ZM116.29,214.59l-1.89-.2c.22-.18.61-.32.92-.32l2.84.03c-.58.48-1.19.57-1.88.49ZM119.23,215.41c-.06,0-.12-.05-.12-.12s.05-.12.12-.12.12.05.12.12-.05.12-.12.12ZM116.51,213.47c.28-.69,1.99-.38,3.27.03l-3.27-.03ZM119.21,212.78c.59-.28,1.22-.38,1.88-.01h-1.88ZM121.16,164.38c-.05,0-.09-.04-.09-.09s.04-.09.09-.09.09.04.09.09-.04.09-.09.09ZM121.26,157.84c0-.05.04-.09.09-.09s.09.04.09.09-.04.09-.09.09-.09-.04-.09-.09ZM121.99,158.87l-.52,1.34c-.22-.61.12-.98.52-1.34ZM122.39,212.8c-.15.08-.43-.12-.63-.33l1.19.02-.56.31ZM122.42,156.25l.62-1.47c0,.53-.17.95-.62,1.47ZM122.6,110.6c.13-.39.35-.79.67-1.12-.09.44-.31.76-.67,1.12ZM123.37,112.45c.05,0,.09.04.09.09s-.04.09-.09.09-.09-.04-.09-.09.04-.09.09-.09ZM123.3,213.26l1.74-.39c-.52.56-1.14.56-1.74.39ZM125.47,212.75c.66-.32,1.29-.54,2-.68-.64.46-1.25.75-2,.68ZM132.34,213.83l-3.23.57-3.03-.23c1.59-.94,2.69.81,4.92-.78l1.36-.08c.08,0,.17.06.24.09.07.04-.16.42-.26.44ZM133.09,213.58l-.24.18c-.1.07-.29-.38-.18-.38h.47c.08,0,0,.16-.06.21ZM133.12,212.27c-.17-.46,1.71-.79,2.48-.44-.5.24-2.27,1.02-2.48.44ZM135.6,92.99l1.69-.24c-.48.63-1.16.39-1.69.24ZM140.68,211.37l-.79-.05.17-.43.83-.19c.04.13-.01.67-.21.66ZM163.89,185.57c-.12-.84-.12-1.67,0-2.61.12.84.12,1.67,0,2.61ZM264.35,159.06c.09,0,.16.07.16.16s-.07.16-.16.16-.16-.07-.16-.16.07-.16.16-.16ZM275.89,99.93c.27,1.41.53,2.56.92,3.83.05.17.04.53,0,.93-.21-.18-.89-.65-.95-.98l-.52-2.86.54-.93ZM276.69,105.18c0,.05-.04.09-.09.09s-.09-.04-.09-.09.04-.09.09-.09.09.04.09.09ZM276.03,111.91c-.05.06-.27-.21-.2-.23.2-.05.52-.13.48-.09l-.28.32ZM276.05,112.5l-.67.35.51-.62c.57.15.41.16.16.27ZM273.81,112.95c.91-1.19,1.11-1.65,2.49-2.72-.42,1.13-1.35,1.98-2.49,2.72ZM275.89,109.32c-.02.06-.04.15-.06.22-.01.06-.21-.24-.24-.31-.02-.05.32.04.3.1ZM275.74,107.48c0-.06.05-.12.12-.12s.12.05.12.12-.05.12-.12.12-.12-.05-.12-.12ZM275.98,105.64c0-.09.07-.16.16-.16s.16.07.16.16-.07.16-.16.16-.16-.07-.16-.16ZM275.32,109.59l-.37.46s-.3-.03-.27-.07l.32-.42c.15.02.47.05.31.03ZM275.33,98.01l-.12,1.84-.67-3.32c-.02-.11-.01-.38.03-.48.04-.09.3-.13.41-.13l.36,2.08ZM274.76,84.38c.06.28-.15.76-.66.86-.23.04-.43-.49-.44-.69,0-.29.16-.75.52-.77.24-.02.53.39.58.61ZM274.25,82.58c-.34-.2-.64-.46-.65-.91l.65.91ZM273.86,82.97c.08.04.27.3.17.33l-.29.08c-.09.02-.12-.19-.2-.55l.32.14ZM274.2,92.38l.39,2.97c-.08-.07-.35-.51-.37-.7l-.97-7.07c.39.87.78,3.5.95,4.8ZM274.32,110.48l1.22-.2-.68.66c-.1.16-.16.18-.23.03-.59.57-1.37,1.64-1.84,2.28-.1.09-.5-.04-.53-.18-.03-.18.08-.64.23-.79l1.83-1.79ZM272.65,80.5v.36c-.01.07-.31.18-.32.1l-.03-.53c0-.07.35,0,.35.06ZM272.38,81.78l.06,1.16c-.33-.4-.59-.85-.06-1.16ZM272.17,79.91l-.69.8c-.94-.65-1.62-.9-2.73-1.14l.68-1.47,2.74,1.82ZM271.7,81.35c.31.14.28,1.05-.05,1.18-.18.01-.54-.35-.54-.53,0-.22.39-.74.59-.65ZM270.81,81.54l-.92-1.13,1.18.45c.17.07-.07.53-.26.68ZM269.13,80.58l-.91-.65c.34.09.67.32.91.65ZM267.23,77.48c.37-.31,1.46.15,1.55.62.05.24-.24.82-.45.92-.39-.23-1.01-.64-1.28-.87-.12-.1.06-.56.19-.66ZM266.93,78.59c.09,0,.16.07.16.16s-.07.16-.16.16-.16-.07-.16-.16.07-.16.16-.16ZM265.46,76.46c.25-.45,1.21.27,1.19.37l-.17.83c-.11-.32-.1-.64-.23-.65l-.71-.03c-.16,0-.17-.37-.09-.53ZM265.71,77.92c0-.06.05-.12.12-.12s.12.05.12.12-.05.12-.12.12-.12-.05-.12-.12ZM265.82,117.88c0,.05-.04.09-.09.09s-.09-.04-.09-.09.04-.09.09-.09.09.04.09.09ZM264.94,76c0-.07.37.02.35.08-.02.06-.06.21-.11.26l-.2.18c-.07.07-.05-.42-.04-.52ZM265.1,77.96l.17.28c.04.06-.34.09-.36.02l-.09-.34s.25,0,.27.04ZM264.9,78.59c.09,0,.16.07.16.16s-.07.16-.16.16-.16-.07-.16-.16.07-.16.16-.16ZM264.27,75.57c.12-.03.34.37.28.49l-.67,1.46c-.88-.45-.44-1.52-.07-1.83.06-.05.38-.1.46-.12ZM261.14,82.81l-.19.26-.83,1.14c-.29-1.01.72-1.2,1.15-1.71l1.44-1.71-1.56,2.62v-.39c-.02-.06.02-.26,0-.21ZM261.1,82.05c.19-.52.53-1.01.93-1.54l.21-.28c.04-.06.28.1.22.08l-1.36,1.74ZM261.59,80.42c.7-2.21,1.72-1.97,1.39-1.6l-1.39,1.6ZM263.87,78.57c-.25.74-.62,1.34-1.14,1.81.2-.74.54-1.48,1.14-1.81ZM262.91,81.11l1.31-2.15c.99-.2-1.43,2.65-1.31,2.15ZM263.56,74.5c.1-.24.47-.13.5.15l-.84.65.34-.79ZM262.82,75.81c-.07.71.12,1.45.42,1.99-.03.05-.25.22-.26.16l-.15-.65c-.36.65-.88,1.15-1.62,1.37l1.62-2.88ZM261.77,79.1c-.46,1.31-.97,2.5-2.03,3.56-.37-1.46.69-2.85,2.03-3.56ZM259.86,84.66v.46s-1.07.85-1.07.85l.84-1.45c.06.02.23.08.23.14ZM259.05,82.46c.45.37.33.94-.04,1.35l-1.61,1.77,1.66-3.12ZM257.26,85.75c.05,0,.09.04.09.09s-.04.09-.09.09-.09-.04-.09-.09.04-.09.09-.09ZM252.38,92.59c.09,0,.16.07.16.16s-.07.16-.16.16-.16-.07-.16-.16.07-.16.16-.16ZM252.01,93.14c.09,0,.16.07.16.16s-.07.16-.16.16-.16-.07-.16-.16.07-.16.16-.16ZM251.62,93.86c-.32.45-.58.79-1.19,1.25.29-.45.71-.87,1.19-1.25ZM248.48,150.74l-.86,2.61c-.18.54-.33,1-.63,1.61-.42,0,1.24-4.31,1.49-4.22ZM247.61,154.64c-.1,0-.18-.08-.18-.18s.08-.18.18-.18.18.08.18.18-.08.18-.18.18ZM248.04,155.42l.43.08c.09.02-.03.41-.12.62-.12.29-1.06.09-1.11-.23-.04-.23.57-.51.8-.47ZM246.75,155.15c.2.32.13.78-.26.94l.26-.94ZM246.22,156.64c.12.15.03.55-.2.69l.2-.69ZM245.84,157.82c.06,0,.12.05.12.12s-.05.12-.12.12-.12-.05-.12-.12.05-.12.12-.12ZM241.23,104.62l1.21-1.2c.78-.77,1.56-1.48,2.54-2.22-1.14,1.3-3.88,4.16-5.46,5.15l1.71-1.74ZM244.3,206.5c-1.1,0-2.04-.41-2.92-.86,1.14.25,2,.53,2.92.86ZM243.98,162.9c.04.44.04.45,0,.04,0-.01,0-.03,0-.04ZM244.12,162.33l-.07-.16.12-.36c.02-.07.21.07.28.05.07-.01-.13.21-.32.47ZM234.84,125.73c-.39.64-.85,1.23-1.44,1.83.34-.7.82-1.27,1.44-1.83ZM232.92,127.2c-.16-.64.38-1.08.93-1.24l-.93,1.24ZM234.21,125.3c.2-.05.52-.13.48-.09l-.28.32c-.05.06-.27-.21-.21-.23ZM234.44,204.48l4.17,1.07c-2.09.02-3.89-.6-5.78-1.13.53-.09,1.08-.07,1.6.06ZM236.53,204.22c-.31-.25,3.04.69,2.81.83-1.03-.16-1.83-.43-2.81-.83ZM235.13,124.22l.59-.83c.3-.42.67-.77,1.21-.96l-1.8,1.79ZM238.63,120.89c.31-.74.74-1.33,1.4-1.81-.37.68-.78,1.25-1.4,1.81ZM240.94,205.62l-1.47-.46c.55-.07,1.1,0,1.47.46ZM232.34,111.68l1.1-.87c1.71-1.35,3.27-2.74,5.21-4.02-1.21,1.57-2.86,2.66-4.47,3.83l-3.49,2.54c.46-.59,1.04-1,1.66-1.48ZM232.86,129.3c0,.05-.04.09-.09.09s-.09-.04-.09-.09.04-.09.09-.09.09.04.09.09ZM230.46,113.26l-.21.24c-.06.07-.1-.14-.13-.27-.01-.06.38-.02.34.03ZM230.14,114.27c.05-.11.37.08.48.13.51-.4,1.05-.91,1.81-1.2l-2.65,2.11.18-.58c.03-.11.13-.36.18-.46ZM229.76,129.38c.57-.85,1.18-1.55,1.96-2.19-.57.85-1.18,1.55-1.96,2.19ZM230.3,130.52c0,.1-.08.18-.18.18s-.18-.08-.18-.18.08-.18.18-.18.18.08.18.18ZM230.85,130.14c.04-.41.21-.72.51-.95-.04.41-.21.72-.51.95ZM230.86,131.41l.38-.84c.1.33-.11.66-.38.84ZM231.48,130.2c.06,0,.12.05.12.12s-.05.12-.12.12-.12-.05-.12-.12.05-.12.12-.12ZM230.65,130.04c0,.05-.04.09-.09.09s-.09-.04-.09-.09.04-.09.09-.09.09.04.09.09ZM230.46,130.89c.09,0,.16.07.16.16s-.07.16-.16.16-.16-.07-.16-.16.07-.16.16-.16ZM231.37,202.61c-.32.09-.67-.04-.92-.29l.92.29ZM230.66,132.67c.39-.81.83-1.54,1.39-2.36-.29.83-.69,1.6-1.39,2.36ZM231.75,129.48c0-.05.04-.09.09-.09s.09.04.09.09-.04.09-.09.09-.09-.04-.09-.09ZM229.87,113.58c.13.37-.41.84-.86.68l.86-.68ZM229.28,132.43c-.25.53-.21.47-.22.41l-.04-.47c0-.07.52.11.26.05ZM228.76,115.31c.16.01.46.08.4.15l-.28.31c-.08.09-.26-.47-.12-.46ZM228.44,116.34c.09,0,.16.07.16.16s-.07.16-.16.16-.16-.07-.16-.16.07-.16.16-.16ZM227.89,115.97c.09,0,.16.07.16.16s-.07.16-.16.16-.16-.07-.16-.16.07-.16.16-.16ZM227.11,129.61c.11.13-.15.46-.46.65l.46-.65ZM226.41,130.52c.09,0,.16.07.16.16s-.07.16-.16.16-.16-.07-.16-.16.07-.16.16-.16ZM224.89,131.21l.97-.67-1.43,2.43-.9,1.37c.4-1.59.85-1.03,1.12-3.68l.23.55ZM225.12,133.53c0,.05-.04.09-.09.09s-.09-.04-.09-.09.04-.09.09-.09.09.04.09.09ZM224.48,129.76c.05,0,.09.04.09.09s-.04.09-.09.09-.09-.04-.09-.09.04-.09.09-.09ZM224.11,125.22c.06,0,.12.05.12.12s-.05.12-.12.12-.12-.05-.12-.12.05-.12.12-.12ZM224.37,127.91l-.2,1.52c-.28-.51-.17-1.05.2-1.52ZM224.23,130.64l-.85,3.4c-.29-.14.04-3.51.85-3.4ZM223.53,118.41l-.18-1.67c.38.36.92,1.01.18,1.67ZM223.74,122.39c-.33-.38-.35-.93-.17-1.31l.17,1.31ZM223.48,124.68l-.1.47c-.02.09-.22-.3-.29-.45-.02-.06.4-.08.38-.01ZM223.3,122.17l-.08,2.06-.31-1.71.39-.36ZM222.78,119.45l-.03-.95c.17.17.16.45.03.95ZM222.8,120.24c.52.46.53,1.06-.08,1.41l.08-1.41ZM223.13,128.84c.27.99.25,1.98-.34,2.8-.37-3.26-1.49-5.47-.11-8.16l.45,5.36ZM222.49,133.79l-.15-.47c-.04-.12.23-.32.42-.44l-.26.91ZM222.57,136.02c0,.06-.05.12-.12.12s-.12-.05-.12-.12.05-.12.12-.12.12.05.12.12ZM222.3,120.69c.26.81.29,1.49.22,2.18l-.66,1.74-.1-1.67c.04-.82.16-1.53.54-2.24ZM221.9,129.96c-.05-.26-.05-.58,0-.95.05.26.05.58,0,.95ZM221.9,119.27c.03.07.09.28.09.28,0,0-.25.13-.3.16.1-.06.13-.63.2-.44ZM221.56,130.97c-.48-1.05-.82-2.44,0-3.66-.07,1.19-.06,2.1,0,3.66ZM221.08,127.02l.25-2.25c.21.76.18,1.54-.25,2.25ZM221.17,121.9c-.05,1.35-.17,2.45-.39,3.96-.18.05-.09-3.84.39-3.96ZM220.08,132.55c.06.85-.04,1.42-.26,2.02.02-.74.11-1.37.26-2.02ZM220.43,133.92l.42-3.26,1.01,2.93-1.84,3.4.41-3.08ZM221.53,139.52c-.05,0-.09-.04-.09-.09s.04-.09.09-.09.09.04.09.09-.04.09-.09.09ZM221.9,138.78c-.05,0-.09-.04-.09-.09s.04-.09.09-.09.09.04.09.09-.04.09-.09.09ZM220.48,137.44c.42-1.17.89-2.2,1.55-3.18.51,1.48-.3,2.67-1.55,3.18ZM222.06,130.11l.49,2.01c.01.06-.31.47-.31.41l-.04-.38c-.08-.71-.14-1.33-.13-2.04ZM222.2,137.98l.7-.67c-.17.26-.37.46-.7.67ZM222.95,137.06l.88-.98c-.16.45-.47.75-.88.98ZM224.05,135.78c.51-.77,1.12-1.45,1.78-2.15-.49.78-1.05,1.46-1.78,2.15ZM225.14,133.26l2.71-3.7c.32-.48.72-.86,1.3-1.01-1.14,1.73-2.27,3.35-4.01,4.71ZM228.99,134.36c.33-1.07.69-2.06,1.49-2.81l-1.3,2.81c.12.45-.31,1.11-.68,1.44l.5-1.44ZM230.1,202.1c.06,0,.12.05.12.12s-.05.12-.12.12-.12-.05-.12-.12.05-.12.12-.12ZM229.91,134.46c0-.05.04-.09.09-.09s.09.04.09.09-.04.09-.09.09-.09-.04-.09-.09ZM228.53,137.86c-.05,0-.09-.04-.09-.09s.04-.09.09-.09.09.04.09.09-.04.09-.09.09ZM228.56,201.67c0,.06-.05.12-.12.12s-.12-.05-.12-.12.05-.12.12-.12.12.05.12.12ZM228.6,137.31c0-.06.05-.12.12-.12s.12.05.12.12-.05.12-.12.12-.12-.05-.12-.12ZM228.78,136.94l.52-1.13c.04.48-.11.91-.52,1.13ZM229.36,201.79c.09,0,.16.07.16.16s-.07.16-.16.16-.16-.07-.16-.16.07-.16.16-.16ZM227.69,137.46c.1-.29.47-.69.78-.91l-1.04,2.48c-.15.35-.43.74-.67,1.06l.93-2.62ZM227.82,201.48c0,.06-.05.12-.12.12s-.12-.05-.12-.12.05-.12.12-.12.12.05.12.12ZM227.33,201.3c0,.05-.04.09-.09.09s-.09-.04-.09-.09.04-.09.09-.09.09.04.09.09ZM226.9,201.12c0,.06-.05.12-.12.12s-.12-.05-.12-.12.05-.12.12-.12.12.05.12.12ZM226.72,140.28c.07.05-.03.27-.29.68l.29-.68ZM226.35,141.24c.07,0,.12.05.12.12s-.05.12-.12.12-.12-.05-.12-.12.05-.12.12-.12ZM229.56,202.64c1.15.4,2.23.63,3.51.92l-1.36-.06c-1.54-.07-2.94-.5-4.25-1.32-.54-.16-1.06-.37-1.44-.79l3.55,1.25ZM231.02,204.43c0,.05-.04.09-.09.09s-.09-.04-.09-.09.04-.09.09-.09.09.04.09.09ZM225.77,146.7c.05,0,.09.04.09.09s-.04.09-.09.09-.09-.04-.09-.09.04-.09.09-.09ZM225.52,147.62c0,.06-.05.12-.12.12s-.12-.05-.12-.12.05-.12.12-.12.12.05.12.12ZM224.81,147.24c0-.05-.02-.2-.04-.25-.02-.1.18-.18.35-.29l-.32.54ZM225.03,149.01c-.19.71-.38,1.29-.73,2.11.03-.67.25-1.41.73-2.11ZM224.98,148.91l.24-.93c.12.26,0,.64-.24.93ZM225.22,200.66c.05,0,.09.04.09.09s-.04.09-.09.09-.09-.04-.09-.09.04-.09.09-.09ZM225.48,144.3c-.11.44-.29.77-.53,1.12.11-.43.29-.77.53-1.12ZM221.63,153.91l1.64-4.26c.54-1.41.91-2.79,1.67-4.07l-1.13,3.32-1.32,3.8c-.41,1.19-.9,2.28-1.38,3.41-.09-.81.24-1.47.52-2.2ZM224.23,151.67c0,.06-.05.12-.12.12s-.12-.05-.12-.12.05-.12.12-.12.12.05.12.12ZM223.33,156.47c-.04.25-.87.04-.81-.22.21-.92.69-1.99,1.3-2.7l-.49,2.92ZM223.65,200.2c0,.05-.04.09-.09.09s-.09-.04-.09-.09.04-.09.09-.09.09.04.09.09ZM218.7,177.84c0-.59.41-2.32.62-2.61.04-.06.3.04.28.11l-.12.42c-.25.82-.36,1.46-.78,2.09ZM218.98,198.72c0,.06-.05.12-.12.12s-.12-.05-.12-.12.05-.12.12-.12.12.05.12.12ZM215.11,172.24c.51-.55,1.24-.33,1.88-.19l-1.88.19ZM216.84,174.23c0,.05-.04.09-.09.09s-.09-.04-.09-.09.04-.09.09-.09.09.04.09.09ZM214.46,174.78c-.33.07-.7.07-1.13,0,.33-.07.7-.07,1.13,0ZM213.46,171.9c.38-.41,1.08-.47,1.37.38l-1.37-.38ZM214.25,174.05c.26-.05.58-.05.95,0-.26.05-.58.05-.95,0ZM216.28,175.01h-1.48c.4-.17.82-.16,1.48,0ZM215.92,173.34s-.03,0-.04,0c-.41-.04-.4-.04.04,0ZM213.3,158.58c1.43-.05,2.85.16,4.23.8l-4.23-.8ZM211.65,156.19c.84-.22,1.56.06,2.2.44l-2.2-.44ZM212.97,158.58c0,.05-.04.09-.09.09s-.09-.04-.09-.09.04-.09.09-.09.09.04.09.09ZM207.43,184.21c.73.35,2.75,5.68,2.51,6.43-1.41-2.02-2-4.16-2.51-6.43ZM207.63,186.75c0,.05-.04.09-.09.09s-.09-.04-.09-.09.04-.09.09-.09.09.04.09.09ZM207.33,182.51c-.04-.33-.06-.57.21-.28l.42,1.82c-.34-.51-.49-.99-.63-1.54ZM209.93,188.06c-1.36-3.55-2.42-7.05-3.09-10.8-.14-.81-.02-2.11,0-2.91,0-.22.73-.42.88-.27.58.59,1.47,6.1,1.6,7.41l.23,2.14c.16,1.5.76,2.84.37,4.43ZM207.17,171.56c.05,0,.09.04.09.09s-.04.09-.09.09-.09-.04-.09-.09.04-.09.09-.09ZM207.08,156.18c0-.05.04-.09.09-.09s.09.04.09.09-.04.09-.09.09-.09-.04-.09-.09ZM208.27,153.86c.21-.07-.17,1.68-.64,1.22l.26-1.09c.02-.07.31-.11.38-.13ZM208.16,153.15c0-.06.05-.12.12-.12s.12.05.12.12-.05.12-.12.12-.12-.05-.12-.12ZM207.91,155.72c.02.07.06.2.1.27.03.07-.24.18-.28.12l-.21-.3c-.04-.06.38-.16.4-.09ZM207.63,156.8c.06,0,.12.05.12.12s-.05.12-.12.12-.12-.05-.12-.12.05-.12.12-.12ZM207.54,157.93c.05,0,.09.04.09.09s-.04.09-.09.09-.09-.04-.09-.09.04-.09.09-.09ZM207.6,171.65l1.92-.08c.82.89-1.92.4-1.92.08ZM209.38,103.98c-.05,0-.09-.04-.09-.09s.04-.09.09-.09.09.04.09.09-.04.09-.09.09ZM209.93,105.81l-.46-1.65c.36.45.57.88.46,1.65ZM209.59,150.02l-.41,1.49c-.14-.55,0-1.07.41-1.49ZM210.04,151.34l.66-1.89c-.08,1.5-.46,2.95-1.57,4.07.32-.75.65-1.43.91-2.18ZM211.12,156.52l.92.25c-.29.11-.72.03-.92-.25ZM211.43,157.29c0,.06-.05.12-.12.12s-.12-.05-.12-.12.05-.12.12-.12.12.05.12.12ZM209.91,153.88c.17-.89.77-.72,1.61-1.99l-.31,2.21-1.3-.21ZM211,155.32l-1.59.1.24-.8,1.34.69ZM210.85,154.43c.06-.01.07.18.08.3,0,.06-.11.02-.16-.02l-.32-.2c-.05-.03.34-.07.4-.08ZM210.47,107.66l-.25-1.12c.21.27.3.56.25,1.12ZM210.64,147.26c.07-.37.31-.93.47-1.31-.12,1.24-.38,2.32-.86,3.49l.39-2.18ZM210.11,106.31c-.06,0-.12-.05-.12-.12s.05-.12.12-.12.12.05.12.12-.05.12-.12.12ZM209.84,156.54c-.32.2-.73.16-.91-.26l.91.26ZM209.01,154.74c-.06,0-.12-.05-.12-.12s.05-.12.12-.12.12.05.12.12-.05.12-.12.12ZM209.62,157.37c-.31-.03-.63-.15-.92-.3.39-.05.6.02.92.3ZM210.2,173.53l-.74-.04c.09-.02.3,0,.74.04ZM209.77,171.63l1.72.05.92.55c-.84.22-1.8.32-2.64-.6ZM212.3,158.39c0-.06.05-.12.12-.12s.12.05.12.12-.05.12-.12.12-.12-.05-.12-.12ZM216.55,157.91c.38.13.43.35-.02.35l-1.32-.21c-.7-.11-1.46-.43-2.07-.79,1.17.13,2.21.36,3.41.64ZM214.07,156.74c0-.05.04-.09.09-.09s.09.04.09.09-.04.09-.09.09-.09-.04-.09-.09ZM214.79,156.49l2.52.24c-.77.14-1.66.29-2.52-.24ZM217.01,158.21c.09-.02.3,0,.74.04l-.74-.04ZM217.21,157.44c3.43-.44,2.43.67,1.82.5l-1.82-.5ZM219.69,159.22c-.05,0-.09-.04-.09-.09s.04-.09.09-.09.09.04.09.09-.04.09-.09.09ZM219.26,158.99c.11.07-.47.33-.62.26l-.68-.32,1.29.06ZM219.61,198.93s-.03,0-.04,0c-.41-.04-.4-.04.04,0ZM222.19,200.19c-1.26.42-1.81.46-2.64-.71l2.64.71ZM219.78,158.03c0-.05.04-.09.09-.09s.09.04.09.09-.04.09-.09.09-.09-.04-.09-.09ZM222.18,159.43c-.06,0-.12-.05-.12-.12s.05-.12.12-.12.12.05.12.12-.05.12-.12.12ZM221.84,158.35l.21-.53c.06-.16.66-.05,1.07.07l-1.28.46ZM223.1,199.89c.06,0,.12.05.12.12s-.05.12-.12.12-.12-.05-.12-.12.05-.12.12-.12ZM222.16,156.84l1.14.25c-.38.2-.93.18-1.14-.25ZM221.82,159.59c-.03.23-.71.25-.76,0,.02-.21.59-.22.76,0ZM220.8,156.65c.05,0,.09.04.09.09s-.04.09-.09.09-.09-.04-.09-.09.04-.09.09-.09ZM220.61,155.72c.05,0,.09.04.09.09s-.04.09-.09.09-.09-.04-.09-.09.04-.09.09-.09ZM220.43,156.46c.05,0,.09.04.09.09s-.04.09-.09.09-.09-.04-.09-.09.04-.09.09-.09ZM220.43,199c.05,0,.09.04.09.09s-.04.09-.09.09-.09-.04-.09-.09.04-.09.09-.09ZM220.06,157.75c-.05,0-.09-.04-.09-.09s.04-.09.09-.09.09.04.09.09-.04.09-.09.09ZM220.15,156.44c-1.7.39-3.18-.31-4.89-.45-.75-.06-4.08-.19-3.72-1.35,2.94.49,5.71.93,8.61,1.8ZM210.94,151.65c.06-.55.21-1.02.4-1.53l.62-1.62c.15,1.29-.13,2.33-1.03,3.15ZM211.12,148.74c.22-1.78.59-3.37,1-5.02.45,1.84-.08,3.49-1,5.02ZM211.77,113.86c-.06,0-.12-.05-.12-.12s.05-.12.12-.12.12.05.12.12-.05.12-.12.12ZM211.95,114.84l-.19-.79c.36.17.36.48.19.79ZM212.11,115.76l.04-.74c.02.09,0,.3-.04.74ZM212.26,116.33l.52.66c-.2.04-.55-.36-.52-.66ZM212.81,118.71c0,.06-.05.12-.12.12s-.12-.05-.12-.12.05-.12.12-.12.12.05.12.12ZM214.62,142.24l-1.47,5.13c-.37.32-.42.26-.23-.15.14-.72.2-1.52.4-2.17l1.5-4.8c.17-.54.03-1.15.57-1.5-.16,1.25-.43,2.33-.76,3.49ZM213.92,127.36l.03,1.84c-.23-.77-.38-1.65-.42-2.56l-.09-2.25c.37.91.46,1.91.48,2.97ZM213.89,121.24c.71.55.62,1.42.25,2.09l-.25-2.09ZM213.73,133.46l.05-2.01c.63.73.25,1.4-.05,2.01ZM213.43,120.36c.02.09,0,.3-.04.74l.04-.74ZM213.39,118.89l.04-.74c.02.09,0,.3-.04.74ZM214.05,134.55c.53-2.5.28-.13.71-2.78.18,1.66-.33,5.18-1.46,6.25l.74-3.47ZM214.53,129.19c.11.59.11,1.19,0,1.88-.11-.59-.11-1.19,0-1.88ZM214.88,136.24s0-.03,0-.04c.04.44.04.46,0,.04ZM214.9,127.35c.05.26.05.58,0,.95-.05-.26-.05-.58,0-.95ZM215.27,136.93c.05.26.05.58,0,.95-.05-.26-.05-.58,0-.95ZM215.46,136.77c-.05-.26-.05-.58,0-.95.05.26.05.58,0,.95ZM215.63,135.3c-.12-.41-.02-.9.2-1.31.15.5.16.95-.2,1.31ZM215.73,133.17c0-.05.04-.09.09-.09s.09.04.09.09-.04.09-.09.09-.09-.04-.09-.09ZM216.47,133.53c0,.05-.04.09-.09.09s-.09-.04-.09-.09.04-.09.09-.09.09.04.09.09ZM215.98,132.9c-.09-.4,0-.89.21-1.3.19.53.19.97-.21,1.3ZM215.21,130.48s.55-3.11,1.07-3.18c.21,1.93-.46,3.48-.74,5.24-.09.58-.09,1.16-.47,1.65l.15-3.71ZM215.01,123.33l-.07,2.39c-.83-1.06.13-4.83.07-2.39ZM214.17,114.36c.06,0,.12.05.12.12s-.05.12-.12.12-.12-.05-.12-.12.05-.12.12-.12ZM214.57,118.41c.18.91.3,1.77-.05,2.76-.69-.68-.6-1.55-.62-2.46l-.09-3.92.76,3.61ZM213.43,115.76c.05,0,.09.04.09.09s-.04.09-.09.09-.09-.04-.09-.09.04-.09.09-.09ZM213.5,116.27l-.03,1.12s-.18-.37-.26-.55c-.06-.13.1-.36.29-.57ZM214.61,137.07c-.25,1.13-.69,2.06-1.43,3.01.26-1.13.74-2.09,1.43-3.01ZM214.6,138.22l-.62,2.89c-.25,1.18-.8,2.35-1.29,3.38-.66-4.07.52-2.45,1.91-6.27ZM212.73,115.75l-1.17-4.79-.5-2.28-.47-2.09c1.32,1.83,2.72,6.32,2.13,9.16ZM212.51,106.19c.05,0,.09.04.09.09s-.04.09-.09.09-.09-.04-.09-.09.04-.09.09-.09ZM212.68,110.14c-.52-1.41-.83-2.58-1.17-3.98.5-.13,1.45,3.88,1.17,3.98ZM210.85,104.9l.45,2.06c-.21-.22-.3-.52-.44-.84l-1.41-3.28.56-1.12-.13,1.11c.31.61.82,1.4.97,2.06ZM207.75,95.57c.07,0,.12.05.12.12s-.05.12-.12.12-.12-.05-.12-.12.05-.12.12-.12ZM207.54,94.78l-.04.54c.03-.41.04-.54.04-.54ZM203.6,83.73c.11.2.52.48.67.5-.06-.47-.07-.64.03-.3.93,1.28,2.39,2.18,1.92,4.13-.61-.5-1.01-.99-1.35-1.57l-2.29-3.93,1.1.26c-.06.2-.2.71-.09.91ZM202.56,81.33c.05,0,.09.04.09.09s-.04.09-.09.09-.09-.04-.09-.09.04-.09.09-.09ZM202.2,80.96c.05,0,.09.04.09.09s-.04.09-.09.09-.09-.04-.09-.09.04-.09.09-.09ZM203.66,85.43c.09,0-.33.03-.27.08l.41.37c.39.05.4.13,0,.25l.89,2.51c.04.12,1.08,1.65,1.03,1.53.07.19-.04.49-.11.93l.33-.41,1.32,3.55c-.35-.45-.45-.82-.82-1.5.05.88.26,1.67.69,2.47l.85,1.59.55,1.36s.31.02.33-.02c-.33.75.74,1.85.87,3.25-.41-.29-.57-.57-.84-.94l.28,1.18c-.37-.36-.71-1-.33-1.31-.98-2.78-1.64-3.04-2.69-6.58-.28-.95-.81-1.95-1.19-2.97l-2.54-6.79-.82-2.31c1.62,1.97.83,2.65,2.05,3.77ZM205.12,173.33l-.07-1.04c.44.19.64.66.07,1.04ZM205.12,172.02c0-.06.05-.12.12-.12s.12.05.12.12-.05.12-.12.12-.12-.05-.12-.12ZM205.34,177.63c-.42,0-1.62-4.58-.74-3.76.53.49.79,2.8.74,3.76ZM204.54,172.81c-.02.13-.41-.23-.43-.37-.01-.1.5-.11.49-.01l-.06.39ZM205.42,206.96c-.82.85-1.57,1.48-2.56,2.11l1.11-1.03c.48-.44.92-.85,1.45-1.08ZM205.32,179.92l-.46-1.73c.46,1.34,1.61,2.35,1.45,3.45-.58-.44-.8-1.03-.99-1.72ZM205.58,178.37c0-.06.05-.12.12-.12s.12.05.12.12-.05.12-.12.12-.12-.05-.12-.12ZM206.24,177.06l.45,2.58c-.49-.81-.57-1.66-.45-2.58ZM206.73,180.22c0,.06-.05.12-.12.12s-.12-.05-.12-.12.05-.12.12-.12.12.05.12.12ZM206.73,183.64c-.27-.56-.42-1.02-.58-1.58.36.46.62.9.58,1.58ZM202.43,209.48c-.15.51-.48.82-1.05,1.03l1.05-1.03ZM200.81,80.07c.09,0,.16.07.16.16s-.07.16-.16.16-.16-.07-.16-.16.07-.16.16-.16ZM200.54,79.67c.05,0,.09.04.09.09s-.04.09-.09.09-.09-.04-.09-.09.04-.09.09-.09ZM199.8,210.97c.05,0,.09.04.09.09s-.04.09-.09.09-.09-.04-.09-.09.04-.09.09-.09ZM199.71,211.91c.09,0,.16.07.16.16s-.07.16-.16.16-.16-.07-.16-.16.07-.16.16-.16ZM191.2,83.32l1.41.4c-1.04,1.2-2.14,2.52-3.59,3.48.62-1.52,2.16-1.93,2.97-3.43l-2.47,2.21,1.69-2.67ZM190.49,83.06l-.21.24c-.06.07-.11-.17-.13-.27-.01-.06.37-.02.34.02ZM190.16,84.09c0,.06-.05.12-.12.12s-.12-.05-.12-.12.05-.12.12-.12.12.05.12.12ZM190.1,81.64c-.09,1.04-.74,1.76-1.77,2.22.52-.79,1.08-1.5,1.77-2.22ZM189.52,83.76c-.37.7-.67,1.23-1.24,1.64.25-.74.72-1.26,1.24-1.64ZM189.01,85.55c-.04.41-.21.72-.51.95.04-.41.21-.72.51-.95ZM185.2,131.56l.73,1.6c.19.41,0,1.25-.19,1.68-.43-1.07-.78-2.08-.55-3.28ZM185.22,137.61l-.05-1.61c.57.31.38.69.05,1.61ZM185.86,132.18c-.18-.38-.65-1.12-.69-1.52l.05-3.29c.92,1.45,1.05,3.18.64,4.81ZM185.71,127.09c0,.05-.04.09-.09.09s-.09-.04-.09-.09.04-.09.09-.09.09.04.09.09ZM185.64,126.77c-.42-.31-.69-.91-.26-1.36l.26,1.36ZM184.9,125.4l-.42-3.14c.12-.47,1.19,2.98.42,3.14ZM184.7,137.28l-.44.1.48-2.29.14,1.65c0,.09-.09.52-.17.54ZM184.51,140.28c-.16-.92-.13-1.74.2-2.62.17.88.14,1.78-.2,2.62ZM182.48,143.27c-.13-.12-.33-.74-.23-1,.12-.33.54-.68.95-.96.36.73.16,1.52-.72,1.96ZM182.97,143.94c0,.11-.09.21-.21.21s-.21-.09-.21-.21.09-.21.21-.21.21.09.21.21ZM180.67,148.47c-.1-.61-.02-1.16.84-.98l-.84.98ZM181.48,225.61c0,.05-.04.09-.09.09s-.09-.04-.09-.09.04-.09.09-.09.09.04.09.09ZM178.57,150.61l.55-2.39c.07-.28.87-.39,1.09-.29-.4,1.52.01,1.99-1.64,2.68ZM179.45,150.48c0,.05-.04.09-.09.09s-.09-.04-.09-.09.04-.09.09-.09.09.04.09.09ZM172.67,230.28c.4.46.6.71.78,1.22l.48-.37-1.33,1.81.14-1.01-.06-1.66ZM172.7,228.46l.62,1.91c-.85-.36-.74-1.21-.62-1.91ZM174.16,232.18l3.2-2.34c-.55,1-1.43,1.64-2.27,2.45l-1.51,1.46c-.32-.62.06-1.19.58-1.57ZM175.01,151.59c.32-.2.78-.13.94.26l-.94-.26ZM175.47,229.67c.01.12.04.39.04.42l-1.14.77,1.1-1.2ZM175.43,230.74l-.26.34c-.06.08-.33-.23-.24-.26.12-.04.54-.13.5-.08ZM174.69,231.41c0,.06-.05.12-.12.12s-.12-.05-.12-.12.05-.12.12-.12.12.05.12.12ZM176.69,228.92c0-.05.04-.09.09-.09s.09.04.09.09-.04.09-.09.09-.09-.04-.09-.09ZM177.43,151.57c.07.01-.03.15-.08.29-.02.06-.16-.26-.21-.32-.04-.06.22.02.29.03ZM177.33,228.58c-.06,0-.12-.05-.12-.12s.05-.12.12-.12.12.05.12.12-.05.12-.12.12ZM177.43,228c0-.05.04-.09.09-.09s.09.04.09.09-.04.09-.09.09-.09-.04-.09-.09ZM175.95,150.6l2.07-.02c-.51.68-1.32.38-2.07.02ZM177.3,110.16c.81.21,1.12.97,1.56,1.57l.55.75c-.8-.67-1.43-1.39-2.12-2.32ZM177.57,111.9l-.4-.67c.16,0,.38.02.39.12l.02.55ZM180.89,116.23c-.58-.79-1.14-1.65-1.66-2.69.79.68,1.29,1.45,1.66,2.69ZM180.75,114.32c.57.63.91,1.23.87,2.01-.39-.68-.69-1.34-.87-2.01ZM178.15,112.7c.7.79,1.06,1.39,1.59,2.47l-1.35-1.34c-.27-.27-.44-.71-.24-1.13ZM182.27,120.51c-1.35-.2-1.96-1.19-2.35-2.32l-1.05-3.03c1.52,1.63,2.89,3.06,3.4,5.35ZM184.01,129.89c.31.64.28,1.33.15,1.9-.34-.65-.4-1.29-.15-1.9ZM184.13,135.87s0-.03,0-.04c.04.44.04.46,0,.04ZM184.2,125.17l.05,2.19c0,.07-.4.2-.36.14.51-.85-.49-1.06.32-2.33ZM183.96,123.98c-.06,0-.12-.05-.12-.12s.05-.12.12-.12.12.05.12.12-.05.12-.12.12ZM184.08,133.44c0,.06-.05.12-.12.12s-.12-.05-.12-.12.05-.12.12-.12.12.05.12.12ZM183.17,93.14l.9-1.27c.06.02.35.11.35.11l-1.25,1.16ZM183.22,119.43l-.82-2.27c.7.6.97,1.34.82,2.27ZM183.19,124.97l.04-.74c.02.09,0,.3-.04.74ZM182.69,122.38c-.83.29-1.11-.59-1.46-1.18.52.18,1.06.46,1.46,1.18ZM182.66,124.7l-.88-2.02c.38.1.75.2.84.42.12.31.08.52.05,1.6ZM181.09,122.84c.29.46.56.88.82,1.34-.19-.19-.38-.39-.48-.49-.07-.08-.1-.06-.44-.14l-1.18-3.56c.91.8.72,1.98,1.28,2.85ZM182.13,127.2l-.98-3.18c.63.96.86,2.08.98,3.18ZM181.89,124.39c.88,1.61,1.7,3.4.95,5.24l-.95-5.24ZM181.18,141c.05-.82.23-1.54,1.01-1.8,0,.77-.38,1.43-1.01,1.8ZM181.72,143.94l.04-.74c.02.09,0,.3-.04.74ZM181.36,142.68s0-.03,0-.04c.04.44.04.46,0,.04ZM181.58,138.91l.92-3.48c.17.38.04,3.87-.92,3.48ZM182.19,134.18l.27-.93c.23.32.19.78-.27.93ZM183.3,139.53l-.78,1.7c-.2-.77.32-1.24.78-1.7ZM182.74,137.11l.27-.89.16.47c.04.12-.25.34-.43.42ZM183.13,133.64c.25.78.21,1.22.13,2.22-.26.77-.44-2.7-.13-2.22ZM183,130.87c-.02-.28.05-.67.19-1.26.22.3.28.77-.19,1.26ZM181.88,133.26l.65-1.5c.05.62-.23,1.13-.65,1.5ZM181.94,134.16c1.28.11-2.68,7.91-3.13,8,.2-1.48.78-2.64,1.31-3.91.56-1.36,1.1-2.62,1.82-4.09ZM179.28,143.18c.28-.98.65-1.9,1.33-2.72.12,1.03-.25,2.05-1.33,2.72ZM179.95,145.44c-.44.8-1.14,3.01-2.12,2.35,1.36-.79,1.17-2.76,2.12-2.35ZM180.88,142.76l-.63,1.56c-.05-.58.08-1.16.63-1.56ZM180.93,141.94c.09,0,.16.07.16.16s-.07.16-.16.16-.16-.07-.16-.16.07-.16.16-.16ZM180.82,139.6c.1-.06.14-.65.2-.44l.09.28s-.25.13-.3.16ZM181.02,143.94c.02.07.09.28.1.28.01,0-.25.13-.3.16.09-.05.14-.64.2-.44ZM179.58,143.89c.02.65-.27,1.17-.94,1.29l.94-1.29ZM178.73,145.86c-.02.07-.1.31-.15.37l-1.08,1.24c.04-.54.38-.97.74-1.43l.18-.26c.04-.06.33,0,.3.08ZM178.69,148.17l-.51,2.02-2.15-.33c.34-.59.68-1.17,1-1.53.28-.31,1.26-.2,1.66-.15ZM178.58,152.08l.02.34c0,.12-.43-.32-.43-.47,0-.09.4.03.41.13ZM177.89,228.46c.05,0,.09.04.09.09s-.04.09-.09.09-.09-.04-.09-.09.04-.09.09-.09ZM178.54,228.91l-.68.45c-.02-.19.41-.44.68-.45ZM179.27,230.38c-.55.26-1.08.11-1.07-.63l1.07.63ZM178.9,151.21c0-.05.04-.09.09-.09s.09.04.09.09-.04.09-.09.09-.09-.04-.09-.09ZM179.18,226.81c.05,0,.09.04.09.09s-.04.09-.09.09-.09-.04-.09-.09.04-.09.09-.09ZM179.43,147.58l1.38-2.86c.15.83-.31,3.17-1.38,2.86ZM180.99,147.07c-.05-.82.18-1.68.48-2.38.09-.22.76-.32.93-.17.16.15.15.62,0,.8l-1.41,1.76ZM183.22,140.75l.2-.69c.12.15.03.55-.2.69ZM183.32,138.88s-.24.03-.21-.01l.28-.43c.03-.05.15.22.11.26-.04.04-.14.14-.18.18ZM183.41,131.77c.07.33.07.7,0,1.13-.07-.33-.07-.7,0-1.13ZM183.19,125.89l-.02-.74.35.3c.08.07-.16.29-.33.45ZM183.61,120.9l.17.82c-.35-.18-.34-.6-.17-.82ZM183.78,123.01c.06,0,.12.05.12.12s-.05.12-.12.12-.12-.05-.12-.12.05-.12.12-.12ZM184.09,141.02c.19.1-.01.72-.27.86-.23-.11-.14-.87.27-.86ZM183.91,140.65l-.02-1.51c.3.42.71.93.02,1.51ZM181.85,89.96c.11,0,.21.09.21.21s-.09.21-.21.21-.21-.09-.21-.21.09-.21.21-.21ZM183.69,88.89l-.51.06,1.59-1.57c-.14.28-.36.76-.47.96,1.34.65-1.69,2.61-1.89,3.29,1.08-.6,1.53-1.15,1.65-.96.11.17.24.37.31.5.06.1-.22.39-.31.47l-.85.81.53-1.37-1.55,1.74-.08-.38s-.09.01-.12.04l-.37.3c.04.21-.04.05-.14-.21l-1.99,1.68c1.25-2.4,2.67-3.42,4.2-5.36ZM180.33,94.23l-.12.5c.68-.57,2.57-2.69,1.45-1.02-1.27,1.9-2.64,3.84-4.4,5.34-1.35,1.15-2.53,2.35-3.73,3.62l-.24.25c-.07.08-.39-.22-.31-.28.09-.06.33-.21.42-.29l1.74-1.57c.39-.35,4.47-4.96,4.8-5.79l-2.62,2.88c.69-1.87,1.3-2.61,2.99-3.63ZM176.69,111.42c-1.04-.51-1.59-1.4-1.62-2.55.94.48,1.61,1.34,1.62,2.55ZM174.71,107.44l.67.9c-.36-.08-.71-.39-.67-.9ZM176.69,109.41c0-.05.04-.09.09-.09s.09.04.09.09-.04.09-.09.09-.09-.04-.09-.09ZM174.29,107.51c-.67-.2-.83-.64-.63-1.19l.63,1.19ZM177.23,96.78c-.43.96-.84,1.96-1.46,2.76-.08.1-3.17,3.69-3.66,2.61l5.13-5.37ZM170.93,102.21c.14,0,.5.09.43.16l-.31.31c-.09.09-.24-.47-.12-.47ZM171.27,104.16c.03.06-.15-.23-.21-.32-.04-.06.23.02.3.03.07,0-.11.22-.09.29ZM170.96,105.29c-.41-.39-.62-.88-.67-1.43.55.24.86.72.67,1.43ZM170.81,105.88c.33.06.65.26.66.87l-.66-.87ZM171.8,105.23l.64.91c-.5-.22-.88-.38-.64-.91ZM172.39,107.49l-.5-.95c.21.05.56.15.55.3l-.06.65ZM172.55,103.6l-.43.04c-.02.31-.21.78-.48.89.06-.43.26-.72.11-.8l-.68-.38c.18,0,.57.02.82.05l-.34-.63c.21-.15.65.04.87.32.11.13.26.51.13.52ZM172.91,106.01c-.05,0-.09-.04-.09-.09s.04-.09.09-.09.09.04.09.09-.04.09-.09.09ZM173.86,109.35l-.87-1.45c.53.23.9.88.87,1.45ZM175.9,114.12c-.86-1.23-1.54-2.45-2.21-3.91,1.75.67,2.09,2.27,2.21,3.91ZM176.43,116.12l-.61-1.44c.41.38.66.77.61,1.44ZM177.98,116.82l-.59-.66c-.62-.69-.96-1.39-.94-2.33l1.53,2.99ZM177.12,116.58c1.38,1.09,1.25,1.44,1.37,3.64-.57-1.14-.94-2.18-1.37-3.64ZM178.93,118.74l1.63,4.94c.52,1.56,1.04,3.17,1.41,4.9l-2.23-5.35c-.05-.11.18-.27.23-.22.05.05-.05-.38-.11-.45-.75-.86-1.6-2.5-.92-3.82ZM179.15,123.25c.75,1.21,1.3,2.51,1.82,3.89l1.46,3.89c.13.34-.76.98-1.03.92-1.03-2.63-1.99-5.94-2.25-8.7ZM178.2,138.85c.33-.77.82-1.53,1.22-2.26.62-1.15.95-2.37,1.99-3.4-.68,2.88-2.33,6.16-3.07,8.7-.28.98-.97,3.41-1.55,3.99-.16.16-.73.09-1.1.02.77-2.43,1.51-4.72,2.51-7.05ZM176.26,146.53c.43.01-.64.74-.29,1.49l-.81-.02c.31-.74.13-1.49,1.1-1.47ZM175.38,148.45c.07-.01.44.11.39.16l-.27.35c-.11.07-.36.2-.39.13l-.14-.3c-.05-.11.29-.32.4-.34ZM173.27,147.57c.58-.45,1.02-.56,1.76-.7l-.18,1.07c-.39.03-.95-.1-1.58-.38ZM174.74,151.23c-.69.46-1.39.09-1.73-.46.6-.15,1.21-.02,1.73.46ZM169.74,147.44l3.74,1.5,1.02.64-4.25-1.2c-.33-.09-.6-.55-.52-.94ZM172.18,227.51c-.37-.6-.5-1.35-.41-2.21.34.63.5,1.21.41,2.21ZM172.14,229.2l.04-.74c.02.09,0,.3-.04.74ZM171.9,149.37c0-.05.04-.09.09-.09s.09.04.09.09-.04.09-.09.09-.09-.04-.09-.09ZM171.26,224.53c-.06,0-.12-.05-.12-.12s.05-.12.12-.12.12.05.12.12-.05.12-.12.12ZM171.26,226.45c-.05-.26-.05-.58,0-.95.05.26.05.58,0,.95ZM169.92,226.99l.34-1.28c.27.3.37.81.21,1.08l-.59.99-.55-3.78.98,1.71-.63-.53.23,1.81ZM169.11,219.95c.87,1.21,1.56,4.37,1.62,5.74-.8-1.33-1.92-4.39-1.62-5.74ZM169.28,174.33c.44.73.52,1.29.65,2.12l-.48.18c-.24-.87-.39-1.43-.17-2.3ZM169.2,173.77l.04-.74c.02.09,0,.3-.04.74ZM170.67,220.62c-.57-1.48-1-2.92-1.09-4.65l1.09,4.65ZM169.18,179.02v-2.15s.53,1.33.53,1.33l-.53.82ZM170.16,174.61l-.21,1.01c-.13-.29-.18-.72.21-1.01ZM170.29,173.62s.21.13.24.18c.03.05.05.13,0,.14l-.41.02c-.08,0,.09-.22.17-.33ZM169.68,173.44c.05-.35.12-.54.28-.91.01,0-.17-.15-.46-.4l1.22.03c-.25.53-.39.78-1.04,1.28ZM169.49,219.61c-.64-.61-.62-1.58-.43-2.39l.43,2.39ZM170.77,220.82l.39,2.05c-.49-.63-1.08-1.24-.39-2.05ZM170.02,170.81l1.08.22c-.32.53-1.18.73-1.72.7-.09-.1-.11-.6.01-.7.12-.1.48-.24.63-.21ZM169.23,147.25c.05,0,.09.04.09.09s-.04.09-.09.09-.09-.04-.09-.09.04-.09.09-.09ZM168.88,209.82c.14.8.22,1.58.24,2.43-.47-.77-.54-1.57-.24-2.43ZM168.49,185.6l-.39,3.1-.13-3.53c-.03-.72.22-1.51.34-2.2.2-1.13.21-2.22.8-3.18-.48,2.66-.33,3.43-.63,5.8ZM168.35,218.15l.02.55-.41-.67c.16,0,.38.02.39.12ZM168.13,189.17c-.06,0-.12-.05-.12-.12s.05-.12.12-.12.12.05.12.12-.05.12-.12.12ZM168.31,213.52c.3,1.4.39,2.72.38,4.42-.23-.42-.65-3.74-.38-4.42ZM167.55,175.26c-.07-.32.03-.76.21-1.13.15.4.17.72-.21,1.13ZM167.76,203.25c-.09-.4-.09-.83,0-1.32.09.4.09.83,0,1.32ZM165.91,195.7c-.83-2.06-.47-4.09-.33-6.08l.22-3.14c.09-1.24.3-2.42.49-3.7.11.73.21,1.52.18,2.28l-.23,5.68c.08,1.64.49,3.33-.34,4.96ZM166.29,208.96c-.05-.26-.05-.58,0-.95.05.26.05.58,0,.95ZM165.62,173.28c0-.08.42-.07.49-.04.17.06.04,2.1-.66,1.68l.16-1.64ZM163.98,147.39l1.62.92c-.59.05-1.24-.25-1.62-.92ZM165.93,178.93l.2,2.13c.07.76-1.35,1.71-.2-2.13ZM166.64,175.19c.1-.54-.16-1.26.67-1.39l-.22,3.26c-.05.68-.5,1.52-.8,2.21l.03-1.46c.02-.9.15-1.72.32-2.63ZM166.56,171.1c0-.05.04-.09.09-.09s.09.04.09.09-.04.09-.09.09-.09-.04-.09-.09ZM166.28,172.11c-.05,0-.09-.04-.09-.09s.04-.09.09-.09.09.04.09.09-.04.09-.09.09ZM167.26,178.33c.26-.3-.41,4.83-.77,3.98-.16-1.47.2-2.73.77-3.98ZM166.82,198.06l.2-1.33c.1.21.24.51.33.72.07.17-.26.44-.54.61ZM167.28,198.42l-.02,2.23c-.29-.76-.47-1.52.02-2.23ZM167.2,189.22c.11.65.11,1.31,0,2.06-.11-.65-.11-1.31,0-2.06ZM167.16,186.84v-1.48c.17.4.16.82,0,1.48ZM167.3,194.54l-.35.22c-.03-1.12-.11-2.2.15-3.49.3,1.18.19,2.17.2,3.26ZM167.26,194.91l.02,1.73c-.54-.39-.58-1.18-.02-1.73ZM166.74,202.87l.06-2.22.48,4.12.11,2.34c-.66-1.25-.69-2.75-.65-4.24ZM167.38,173.21l-.78-.29,1.09-.1c-.11.18-.22.42-.31.38ZM166.74,147.53c0-.05.04-.09.09-.09s.09.04.09.09-.04.09-.09.09-.09-.04-.09-.09ZM167.82,173.3l.29-.43s.13.21.11.27l-.08.27c-.02.06-.36-.06-.32-.11ZM168.23,180.27c.19.5.06.88-.14,1.59-.09-.47-.11-1.04.14-1.59ZM167.94,205.06c.05.26.05.58,0,.95-.05-.26-.05-.58,0-.95ZM168.86,148.91c.05,0,.09.04.09.09s-.04.09-.09.09-.09-.04-.09-.09.04-.09.09-.09ZM168.68,147.62c.05,0,.09.04.09.09s-.04.09-.09.09-.09-.04-.09-.09.04-.09.09-.09ZM168.68,173.4c.05,0,.09.04.09.09s-.04.09-.09.09-.09-.04-.09-.09.04-.09.09-.09ZM168.49,176.05c.06,0,.12.05.12.12s-.05.12-.12.12-.12-.05-.12-.12.05-.12.12-.12ZM168.49,179.36c.06,0,.12.05.12.12s-.05.12-.12.12-.12-.05-.12-.12.05-.12.12-.12ZM168.31,177.65c-.07-.33-.07-.7,0-1.13.07.33.07.7,0,1.13ZM168.34,171.19c-.14.42-.66,1.13-.87.89-.47-.54.18-1.21.78-1.31l.09.42ZM167.67,147.9c0-.05.04-.09.09-.09s.09.04.09.09-.04.09-.09.09-.09-.04-.09-.09ZM168.11,147.34l-3.09-1.22.72-1.13,2.38,2.35ZM162.39,142.5l2.97,2.11-.9,1.24c-.69-.38-1.43-.86-2.13-1.37l.06-1.98ZM162.39,145.97c.48.01.99.63,1.18,1.2-.88.19-.96-.55-1.18-1.2ZM162.61,148.35l-.25-.74.47.19c.12.05-.06.37-.22.54ZM161.9,147.4c.2,1.74.26,2.17-.9,3.4-.03-1.31.36-2.34.9-3.4ZM160.7,149.24c-.14-.66.11-1.45.63-2.01l-.63,2.01ZM161.14,146.32c.15.3.08.58-.29.69l.29-.69ZM160.68,144.55c.61.32-1.14,3.45-1.71,3.87l.94-4.15c.26.08.61.2.77.29ZM157.83,158.29l2.01-3.88c-.34,1.4-1,2.58-1.79,3.95.02.39-.03.34-.22-.07ZM157.91,158.95c0,.05-.04.09-.09.09s-.09-.04-.09-.09.04-.09.09-.09.09.04.09.09ZM158.18,151.79c-.06,0-.12-.05-.12-.12s.05-.12.12-.12.12.05.12.12-.05.12-.12.12ZM158.79,154.98l-.48,1.09c-.07-.35.12-.8.48-1.09ZM158.67,154.01c.05-.94.76-1.61,1.43-2.26-.09,1-.64,1.73-1.43,2.26ZM159.34,151.61c.16-.67.33-1.27.6-2.03.52.79.36,1.74-.6,2.03ZM159.75,148.82c0-.05.04-.09.09-.09s.09.04.09.09-.04.09-.09.09-.09-.04-.09-.09ZM159.95,148.55c.11-.43.29-.77.53-1.12-.11.44-.29.77-.53,1.12ZM163.49,124.82c-.64,4.38-2.59,14.55-3.82,18.33-.02.06-.51.04-.58.05-.07.01-.16.24-.1.27l.56.27c-.45,1.93-.89,3.91-1.48,5.9-.23.76-.91,1.49-1.24,2.13.14-1.33.3-2.34.52-3.44.48-2.5-.23-.82.39-3.16l1.01-3.84c.27-1.04.48-2.09.83-3.1.25-.74.43-1.33.3-2.1l-.75.63c.22-1.39.58-2.44.93-3.67l1.76-6.19c.51-1.78,1.08-3.4,1.73-5.12.21,1.08.09,1.99-.06,3.03ZM156.81,155.32l.28-.68c.08.06-.02.27-.28.68ZM156.98,160.6c0,.05-.04.09-.09.09s-.09-.04-.09-.09.04-.09.09-.09.09.04.09.09ZM157.08,160.14c.05,0,.09.04.09.09s-.04.09-.09.09-.09-.04-.09-.09.04-.09.09-.09ZM156.28,154.99c.03-.95.39-1.84.89-2.8.05-.04.23-.13.2-.06l-.16.44-.93,2.42ZM155.58,150.97s0-.03,0-.04c.04.44.04.45,0,.04ZM155.6,150.68c.05-1.61.34-3.08,1.18-4.31l-.63,2.51c-.16.63-.06,1.28-.55,1.79ZM155.6,154.07c.05,0,.09.04.09.09s-.04.09-.09.09-.09-.04-.09-.09.04-.09.09-.09ZM155.6,157.2c.05,0,.09.04.09.09s-.04.09-.09.09-.09-.04-.09-.09.04-.09.09-.09ZM155.54,157.93c0,.06-.05.12-.12.12s-.12-.05-.12-.12.05-.12.12-.12.12.05.12.12ZM155.6,161.32c.06,0,.12.05.12.12s-.05.12-.12.12-.12-.05-.12-.12.05-.12.12-.12ZM155.7,160.79c0-.05.04-.09.09-.09s.09.04.09.09-.04.09-.09.09-.09-.04-.09-.09ZM155.83,159.01l.49-1.48c.16.59.13,1.12-.49,1.48ZM157.26,154.25c.05,0,.09.04.09.09s-.04.09-.09.09-.09-.04-.09-.09.04-.09.09-.09ZM157.44,157.63c.06,0,.12.05.12.12s-.05.12-.12.12-.12-.05-.12-.12.05-.12.12-.12ZM157.44,153.82c-.06,0-.12-.05-.12-.12s.05-.12.12-.12.12.05.12.12-.05.12-.12.12ZM157.23,140.25c.04.44.04.46,0,.04,0-.01,0-.03,0-.04ZM157.35,139.61c0-.05.04-.09.09-.09s.09.04.09.09-.04.09-.09.09-.09-.04-.09-.09ZM158.73,134.55c-.05,0-.09-.04-.09-.09s.04-.09.09-.09.09.04.09.09-.04.09-.09.09ZM158.7,139.89l.04-.74c.02.09,0,.3-.04.74ZM158.67,135.1c0,.06-.05.12-.12.12s-.12-.05-.12-.12.05-.12.12-.12.12.05.12.12ZM158.46,141.08c0,.05-.04.09-.09.09s-.09-.04-.09-.09.04-.09.09-.09.09.04.09.09ZM157.62,139.15c.1-1.18.39-2.36.78-3.53-.06,1.2-.22,2.32-.78,3.53ZM159.01,132.8c0-.05.04-.09.09-.09s.09.04.09.09-.04.09-.09.09-.09-.04-.09-.09ZM159.25,130.34l.93-4.94c.82-.71-.71,4.49-.93,4.94ZM160.31,124.63c.16-1.24.43-2.35.83-3.57.16,1.23-.29,2.42-.83,3.57ZM163.04,121.47c0-.06.05-.12.12-.12s.12.05.12.12-.05.12-.12.12-.12-.05-.12-.12ZM163.3,121.1l.04-.74c.02.09,0,.3-.04.74ZM164.05,115.43s0-.03,0-.04c.04.44.04.45,0,.04ZM163.18,118.31c.25-.8.28-1.55.81-2.21l-.66,2.88c-.14.61-.38,1.13-.75,1.52.18-.84.37-1.47.6-2.19ZM161.7,123.1c.23-.8.32-1.63,1.11-2.2l-2.05,8.2c-.25,1.01-.66,1.94-1.02,2.9.23-3.11,1.11-5.95,1.95-8.89ZM163.08,109.37l.67-2.12c.01,1.09-.27,1.99-.48,2.99l-1.63,7.14,1.44-8.01ZM157.75,130.49l2.27-11.41c.31-1.54.93-2.93,1.54-4.46-.39,2.72-.85,5.37-1.47,8.1l-1.79,7.85c-.1.46-.47,1.05-.73,1.56.04-.55.07-1.1.18-1.64ZM157.44,132.34c.05,0,.09.04.09.09s-.04.09-.09.09-.09-.04-.09-.09.04-.09.09-.09ZM157.44,132.77c.06,0,.12.05.12.12s-.05.12-.12.12-.12-.05-.12-.12.05-.12.12-.12ZM157.26,133.63c.05,0,.09.04.09.09s-.04.09-.09.09-.09-.04-.09-.09.04-.09.09-.09ZM157.26,134.18c.05,0,.09.04.09.09s-.04.09-.09.09-.09-.04-.09-.09.04-.09.09-.09ZM157.52,134.55l-.46,1.79c-.43-.65,0-1.25.46-1.79ZM156.9,136.34c.14.75.03,1.33-.23,2.24-.12-.74-.06-1.47.23-2.24ZM156.87,143.47c.6.85.04,1.75-.45,2.63l-.43,1.15c-.08-.79.17-1.42.49-2.08.22-.47-.46-1.32.4-1.7ZM155.95,140.11s0-.03,0-.04c.04.44.04.46,0,.04ZM155.79,140.69c.06,0,.12.05.12.12s-.05.12-.12.12-.12-.05-.12-.12.05-.12.12-.12ZM155.79,142.11c-.05-.26-.05-.58,0-.95.05.26.05.58,0,.95ZM155.72,142.31c.1,0,.18.08.18.18s-.08.18-.18.18-.18-.08-.18-.18.08-.18.18-.18ZM155.68,143.34l-.04,1.03c-.14-.19-.28-.4-.34-.52s.19-.33.38-.5ZM155.2,145.73v-1.34c.56.31.32.63,0,1.34ZM155.23,160.58c.06,0,.12.05.12.12s-.05.12-.12.12-.12-.05-.12-.12.05-.12.12-.12ZM154.87,162.79c.06,0,.12.05.12.12s-.05.12-.12.12-.12-.05-.12-.12.05-.12.12-.12ZM154.86,152.21c.07.33.07.7,0,1.13-.07-.33-.07-.7,0-1.13ZM154.77,149.07c.11,0,.21.09.21.21s-.09.21-.21.21-.21-.09-.21-.21.09-.21.21-.21ZM154.65,150.38l.04-.74c.02.09,0,.3-.04.74ZM154.13,150.73c.15.65.05,1.19-.25,1.7,0-.64.1-1.16.25-1.7ZM153.29,155.89c.28-1.47-.02-2.89.79-2.85-.21,1.7-.51,3.07-.88,4.55-.1-.63-.02-1.11.1-1.7ZM152.84,158.92c.06,0,.12.05.12.12s-.05.12-.12.12-.12-.05-.12-.12.05-.12.12-.12ZM153.1,161.05c-.09.54-.23.96-.48,1.47,0-.55.18-1.01.48-1.47ZM152.66,157.57c.02.06.09.27.09.27,0,0-.24.13-.3.17.09-.05.14-.64.21-.44ZM152.47,163.53c.06,0,.12.05.12.12s-.05.12-.12.12-.12-.05-.12-.12.05-.12.12-.12ZM152.47,166.84c.06,0,.12.05.12.12s-.05.12-.12.12-.12-.05-.12-.12.05-.12.12-.12ZM152.3,167.67c.13.69.02,1.31-.25,1.88.02-.71.11-1.28.25-1.88ZM151.9,161.36l.43-2.17c.1.66-.39,4.64-.85,4.85.08-.97.25-1.78.42-2.69ZM151.69,171.9l.22-1.83c.19.59.19,1.26-.22,1.83ZM151.37,164.45c.06,0,.12.05.12.12s-.05.12-.12.12-.12-.05-.12-.12.05-.12.12-.12ZM151.25,170.25c0,.93-.13,1.72-.42,2.63-.28-.9-.02-1.78.42-2.63ZM150.45,173.65c.06,0,.12.05.12.12s-.05.12-.12.12-.12-.05-.12-.12.05-.12.12-.12ZM149.9,175.88l.41-1.58c.07.56-.04,1.15-.19,1.76l-.45,1.79c-.01-.71.07-1.35.23-1.97ZM148.79,181.39c.06,0,.12.05.12.12s-.05.12-.12.12-.12-.05-.12-.12.05-.12.12-.12ZM148.05,181.94c.06,0,.12.05.12.12s-.05.12-.12.12-.12-.05-.12-.12.05-.12.12-.12ZM147.68,185.26c.06,0,.12.05.12.12s-.05.12-.12.12-.12-.05-.12-.12.05-.12.12-.12ZM147.13,187.2c.02.09,0,.3-.04.74l.04-.74ZM148.16,90.83c-.4.03-.82.04-1.32.01.38-.17.83-.17,1.32-.01ZM144.86,197.92c.1,0,.18.08.18.18s-.08.18-.18.18-.18-.08-.18-.18.08-.18.18-.18ZM144.83,197.62c0-.05.04-.09.09-.09s.09.04.09.09-.04.09-.09.09-.09-.04-.09-.09ZM145.01,200.38c0,.05-.04.09-.09.09s-.09-.04-.09-.09.04-.09.09-.09.09.04.09.09ZM144.74,198.63c.05,0,.09.04.09.09s-.04.09-.09.09-.09-.04-.09-.09.04-.09.09-.09ZM144.55,199c.05,0,.09.04.09.09s-.04.09-.09.09-.09-.04-.09-.09.04-.09.09-.09ZM143.63,206.73c.05,0,.09.04.09.09s-.04.09-.09.09-.09-.04-.09-.09.04-.09.09-.09ZM143.08,206.36c.05,0,.09.04.09.09s-.04.09-.09.09-.09-.04-.09-.09.04-.09.09-.09ZM142.2,212.63c-.09.32-.59.93-.74.7-.2-.31-.22-.98-.07-1.21.29-.1.87.25.81.51ZM142.38,211.62c-.06.09-.63.04-.63-.07,0-.14.04-.45.14-.59l.9-1.13c.07.55-.16,1.45-.41,1.79ZM142.05,209.44c.15-.62.35-1.03.83-1.72.14.66-.02,1.43-.83,1.72ZM142.9,207.47c-.05,0-.09-.04-.09-.09s.04-.09.09-.09.09.04.09.09-.04.09-.09.09ZM143.46,212.18c-.02.21-.18.49-.47.76.17-1.47.4-2.85.82-4.43l-.34,3.67ZM143.82,205.56c-.06,0-.12-.05-.12-.12s.05-.12.12-.12.12.05.12.12-.05.12-.12.12ZM143.92,207.25l.26-1.65c.14.61.04,1.11-.26,1.65ZM144.19,204.09c-.06,0-.12-.05-.12-.12s.05-.12.12-.12.12.05.12.12-.05.12-.12.12ZM144.37,205.46c-.05-.26-.05-.58,0-.95.05.26.05.58,0,.95ZM144.37,202.8c-.06,0-.12-.05-.12-.12s.05-.12.12-.12.12.05.12.12-.05.12-.12.12ZM144.48,201.78l.26-1.14c.15.33.03.79-.26,1.14ZM145.21,205.38l-.26.57c.02.1-.17-.17-.13-.25l.26-.57c-.02-.1.17.17.13.25ZM145.07,197.34l.04-.74c.02.09,0,.3-.04.74ZM145.29,199.18c-.05,0-.09-.04-.09-.09s.04-.09.09-.09.09.04.09.09-.04.09-.09.09ZM144.82,91.97c.68-.3,1.27-.53,1.83.03l-1.83-.03ZM146.41,189.96c.24.89-.22,3.64-.44,4.46-.05-1.6.2-3,.44-4.46ZM146.03,200.49c-.07-.33-.07-.7,0-1.13.07.33.07.7,0,1.13ZM146.82,200.62c-.11.45-.25.9-.46,1.2l.35-3.92c.08-.88.73-1.89,1.22-2.78-.15,1.83-.66,3.62-1.12,5.5ZM148.16,192.95l-1.42,3.32c-.2-1.93.45-3.78,1.54-5.41-.02.61.08,1.62-.12,2.09ZM148.99,187.66c-.27,1.04-.33,2.06-1.13,3.03l1-3.68c.11-.41.2-.74.35-1.14,0,.69-.09,1.18-.22,1.78ZM149.34,185.74c-.05,0-.09-.04-.09-.09s.04-.09.09-.09.09.04.09.09-.04.09-.09.09ZM149.56,182.71l-2.3,7.84,1.04-5.14c.14-.69.32-1.43.53-2.08l1.1-3.47c-.13.85-.11,1.98-.37,2.86ZM149.89,184.02c-.06,0-.12-.05-.12-.12s.05-.12.12-.12.12.05.12.12-.05.12-.12.12ZM150.26,177.07c.17.42.06.93-.25,1.33l.25-1.33ZM150.06,183.2s0-.03,0-.04c.04.44.04.46,0,.04ZM151.02,180.03l-.78,2.74c-.03-2.79,1.11-2.68.46-5.54l.78-.06c-.08.94-.18,1.87-.46,2.87ZM151.55,174.81c-.06,0-.12-.05-.12-.12s.05-.12.12-.12.12.05.12.12-.05.12-.12.12ZM151.61,172.8c-.06.07-.1-.14-.13-.27-.01-.06.38-.01.34.03l-.21.24ZM151.96,180.75c-.31-1.26-.12-2.55.07-3.93l.37-2.53c.02-.15.18-.46.29-.52.11-.06.41-.09.48,0,.1.13.16.45.22.73l-1.43,6.24ZM153.15,173.38l-.63-.4c.36-.24.95-.3,1.12.06.07.15-.35.42-.49.33ZM153.83,171.95c0,.08-.42.24-.45.17l-.21-.5c-.1-.23-.26-.61-.12-.75.19-.18.68-.41.83-.34l-.04,1.42ZM153.66,166.77l.25-1.49c.17.46.38,1.1-.25,1.49ZM153.91,173.23c0-.51.65-.54,1.09-.42.3.08.54.44.69.86-.74-.02-1.31-.07-1.78-.44ZM156.16,173.22c-.05,0-.09-.04-.09-.09s.04-.09.09-.09.09.04.09.09-.04.09-.09.09ZM154.91,171.89c-.12.16-.24.42-.35.34-.12-.09-.39-.34-.35-.47l.3-1.22c1.43,0,2.61-.02,3.9.04l1.68.09,2.43.04c-1.85,1.53-3.36,0-5.69.73-.65.21-1.26.33-1.92.44ZM159.58,171.84c-.77.12-1.55.12-2.43,0,.77-.12,1.55-.12,2.43,0ZM159.12,172.59c-.87.37-1.4.33-1.97.15l1.97-.15ZM157.7,173.75c.51-.38,1.14-.44,1.71-.24l-1.71.24ZM159.53,173c.45-.3.89-.35,1.39-.29l.86.31-2.25-.02ZM161.01,172.15c.7-.04,1.29.06,1.88.24-.71.16-1.31.06-1.88-.24ZM162.88,171.4c-.06,0-.12-.05-.12-.12s.05-.12.12-.12.12.05.12.12-.05.12-.12.12ZM163.41,171.77h1.65c-.6.45-1.17.44-1.65,0ZM163.22,171.17c.64-.37,1.27-.45,2.22-.23-.7.14-1.39.24-2.22.23ZM165.33,178l.04-.74c.02.09,0,.3-.04.74ZM164.62,189.59c.05.26.05.58,0,.95-.05-.26-.05-.58,0-.95ZM164.62,191.06c.12.84.12,1.67,0,2.61-.12-.84-.12-1.67,0-2.61ZM164.83,203.39c-.1-.8-.21-1.55-.25-2.36l-.15-3.21c-.05-1.02-.1-2-.03-3.07.11.44.27,1.04.28,1.48l.09,4.05c.02,1.07.17,2.07.07,3.1ZM165.18,179.5c-.09-.4-.09-.83,0-1.32.09.4.09.83,0,1.32ZM165.69,182.09c.2,1.05-.1,1.95-.16,2.96l-.18,2.69c-.1-1.1-.25-4.42.35-5.65ZM165.36,202.14c-.13-1.75-.13-3.5,0-5.37.21,1.75.15,3.5,0,5.37ZM165.55,205.06c.12.77.12,1.55,0,2.43-.12-.77-.12-1.55,0-2.43ZM165.76,209.84l-.28-1.72.36-.32-.08,2.04ZM165.91,196.99l-.23-.89.57-.05-.34.94ZM166.08,198.3s0-.03,0-.04c.04.44.04.45,0,.04ZM166.3,211.5l.44,2.62c-.59-.79-.69-1.71-.44-2.62ZM167.02,220.19l-.81-5.38.81,2.69c.23.77.1,1.81,0,2.7ZM166.93,209.33c.56.43.72,1.07.77,1.81l.38,5.72c-.44-1.61-.65-3.04-.82-4.57l-.33-2.97ZM167.59,219.03c.79,2.88,1.19,5.82,1.59,8.8l.31.05c.15.02.55,1.44.36,1.88l-.92-2.17c-.88-2.08-1.93-6.16-1.35-8.56ZM171.95,234.4c.15.63-.47,1.18-1.1,1.38-.33-1.45-.62-2.8-.85-4.24l-.26-1.65c.67-.21.16,2.05,1.23,2.79-.19-1.61.63-.78-.49-3.5l.24,2.07c-.32-.55-.9-2.56-.66-2.93l.89-1.36c.62.79.31,2.26.52,2.28l.39.04c.31,1.38.81,3.12-.11,4.3l.2.8ZM174.44,150.15c-.72.13-1.48-.23-2.13-.66l2.13.66ZM172.57,234.55c-.15-.23-.05-1.06.21-1.27l.9,1.71c-.5-.22-.82-.35-1.12-.44ZM175.47,237.12c-.18.08-.36-.24-.56-.67l1.06.13c0,.16-.26.44-.5.55ZM177.37,232.96l-2.34,2.43c.71.26,1.09-.39,1.56-.75.21.52.12,1.39-.45,1.84l-1.12-.6c-.41-.22-.84-.47-1.04-.77-.19-.28-.3-1.04-.03-1.26,1.33-1.09,2.53-2.13,3.69-3.43,1.56.36.63.75,1.69.7l-1.96,1.83ZM179.93,230.47s-.11-.21-.07-.25l.21-.25c.15.05.29.1.35.12l-.49.39ZM184.23,226.51l-.21.24c-.06.07-.11-.16-.13-.27-.01-.06.38-.02.34.03ZM187.37,222.66c.28-.22.6-.43.89-.61-.25.33-.48.49-.89.61ZM188.75,221.83c-.05,0-.09-.04-.09-.09s.04-.09.09-.09.09.04.09.09-.04.09-.09.09ZM193.03,217.55l-2.27,1.88c.13.14.27.3.27.28,0-.02-.11.17-.14.23-.04.07-.22-.12-.31-.19l-.79.24c-.12.23-.57.64-.76.75l.33-.77-2.94,2.47,2.4-1.56-1.77,1.56-1.02.89c.26.07.41.1.5.03l.52-.37c-.31.46-.63.85-1.04,1.2l-4.45,3.83c-.4.35-1.01.62-1.45.93,1.6-.05,2.36-1.28,3.55-2.12-.83,1.36-3.32,3.04-4.75,2.63,1.83-3.03,5.08-3.29,6.98-5.91l-3.35,2.49c-.12-.06-.29-.15-.22-.12.03.02.15-.34.21-.38l3.7-2.89-.78.22,1.79-1.71c1.77-1.7,3.53-3.29,5.61-4.63l-2.17,2.38c1.5-.8,2.35-2.52,3.74-3.63l1.52-1.21,1.97-1.55c.5-.4,1.05-.76,1.61-1.13l-4.72,4.67-1.8,1.49ZM196.6,215.87l.7-.67c-.17.26-.37.46-.7.67ZM204.91,209.73l-2.08,1.58-1.83,1.29-2.08,1.53-1.42,1.04c.52-.61,1.06-1.09,1.71-1.6,1.5-1.17,2.84-2.67,4.54-3.54,1.06-.54,1.87-1.03,2.92-1.89-.31.76-1.1,1.07-1.76,1.57ZM206.8,206.55c-.05,0-.09-.04-.09-.09s.04-.09.09-.09.09.04.09.09-.04.09-.09.09ZM208.63,207.47l-.21.21c-.07.07-.33-.33-.23-.34l.46-.05c.06,0,.02.13-.02.18ZM207.07,206.14c1.16-1.23,2.83-2.85,4.24-3.63.39-.21.41-1.18,1.22-.57l-3.65,2.72-1.81,1.49ZM210.15,190.78c.38.79.67,1.55.93,2.33-.56-.69-1.01-1.39-.93-2.33ZM211.68,196.14c0-.05.04-.09.09-.09s.09.04.09.09-.04.09-.09.09-.09-.04-.09-.09ZM212.49,195.85l.47,1.07c-.36-.07-.59-.58-.47-1.07ZM210.2,206.02c.5-.8,3.53-5.04,4.63-3.82l-4.63,3.82ZM213.06,200.66c.05,0,.09.04.09.09s-.04.09-.09.09-.09-.04-.09-.09.04-.09.09-.09ZM212.97,197.25c0-.05.04-.09.09-.09s.09.04.09.09-.04.09-.09.09-.09-.04-.09-.09ZM213.34,200.56c0-.05.04-.09.09-.09s.09.04.09.09-.04.09-.09.09-.09-.04-.09-.09ZM213.52,198.35c0-.05.04-.09.09-.09s.09.04.09.09-.04.09-.09.09-.09-.04-.09-.09ZM214.31,199.98s.17.34.23.45c.08.16-.49.47-.62.34-.13-.13.11-.47.39-.79ZM214.52,198.53c.1-.06.13-.63.21-.44.02.06.09.28.09.28,0,0-.25.13-.3.16ZM215,198.9c.3,0,.47.85.17.85-.34,0-.52-.85-.17-.85ZM215.09,201.58c-.05,0-.09-.04-.09-.09s.04-.09.09-.09.09.04.09.09-.04.09-.09.09ZM215.48,200.82s-.2-.13-.24-.17c-.06-.06.1-.21.21-.34.16-.18.13.64.03.51ZM216.43,199.11l-.76.13c-.95-1.59.87-1.84.2-2.79l-.98.65c-.16-.49-.39-.72-.38-.25l.05.65c.01.15-.43.31-.55.23-.42-.81-1-1.92-1.36-2.81-.51-1.24-.1-3.59-.57-4.92-.17.53-.19.97-.17,1.43l.09,1.73c-.36-.55-1.31-3.14-1.36-3.6l-.45-4.37c-.07-.67-.16-1.31-.26-1.96l-.94-5.76c-.18-1.13-.53-2.08-.63-3.29,4.39.61,5.12,1.75,9.75,1.24.25,1.04-.4,3.51-.74,4.57-.12.38-.07.63.37.9-.17,2.07-1.41,3.68-1.35,5.5-.36.19-.34.24.21.19.46.5.19,1.15,0,1.84-.16.57-.05,1.46-.16,2.07-.22,1.2-.15,2.16.3,3.26l.67,1.62c.38.92-.9,3.15.71,3.98,1.03.53,1.92,1.07,2.68,2.12l-3-.48c-.05,0-.3-.12-.3-.17v-.44s-1.6,0-1.6,0c-.11-.24.2-.77.54-1.26ZM217.94,198.35c0,.05-.04.09-.09.09s-.09-.04-.09-.09.04-.09.09-.09.09.04.09.09ZM217.24,192.35c-.04-1.03-.08-2.13.02-3.24l.24-2.47c.07,1.49.28,3.92-.26,5.71ZM217.56,193.36l-.21.24c-.06.07-.11-.15-.13-.27-.01-.06.37-.02.33.03ZM216.84,185.5l.29-.69c.15.3.08.58-.29.69ZM216.84,185.83c0,.05-.04.09-.09.09s-.09-.04-.09-.09.04-.09.09-.09.09.04.09.09ZM216.12,201.62c2.17-.25,4.13.17,6.08.8l-6.08-.8ZM221.53,201.08c.32-.82,5.3,1.4,5.81,1.75-1.24.12-4.82-.59-5.81-1.75ZM232.78,205.9l-6.37-2.48,9.41,3.23-3.04-.76ZM236.27,206.92c-.05,0-.09-.04-.09-.09s.04-.09.09-.09.09.04.09.09-.04.09-.09.09ZM239.6,207.18l-3.08-1.14,3.71.46c1.07.13,3.07.36,3.33,1.35-1.46.06-2.68-.2-3.96-.67ZM244.74,208.76c-.05,0-.09-.04-.09-.09s.04-.09.09-.09.09.04.09.09-.04.09-.09.09ZM244.52,208.12c-.13-.05-.12.42-.2.41l-.67-.07.36-.34c.09-.09,0-.52-.03-.74l6.19,2.16c-1.73-.16-4.01-.82-5.64-1.42ZM250.53,208.98l-3.59-1.02c-.53-.15-1.09-.41-1.6-.69,2.64.22,4.99.9,7.5,1.9-.79.2-1.56.02-2.31-.2ZM248.86,157.11c.51-.11.95,0,1.33.26l-1.33-.26ZM256.41,159.07l1.7.25c-.63.11-1.18,0-1.7-.25ZM257.02,178.34c.13.49.54,1-.28,1.65l.28-1.65ZM255.64,205.24c.07.92.07,1.69-.02,2.77-.26-.91-.23-1.82.02-2.77ZM255.58,208.79s0-.03,0-.04c.04.44.04.45,0,.04ZM255.55,204.69l.06-.67c.02-.17.68-.22.69-.05l-.07,4.22c0,.27-.19.73-.32.97l-.06-4.86-.3.38ZM255.97,193.62c.12,0,.22.1.22.22s-.1.22-.22.22-.22-.1-.22-.22.1-.22.22-.22ZM256.22,185.16c.02.99-.09,1.82-.24,2.76-.17-.97-.21-1.9.24-2.76ZM255.97,197.17c-.11-.65-.11-1.31,0-2.06.11.65.11,1.31,0,2.06ZM255.75,189.05l.04-.74c.02.09,0,.3-.04.74ZM255.77,198.99c.01-.06.25.23.25.29l.11,1.79c.05.85.29,1.47-.18,2.18l-.14-1.86-.15-1.97c0-.07.09-.37.1-.43ZM256.13,192.57c-.13-.82-.04-1.54.24-2.2.1.92,0,1.55-.24,2.2ZM256.34,190.16c-.05,0-.09-.04-.09-.09s.04-.09.09-.09.09.04.09.09-.04.09-.09.09ZM256.31,181.68c.04.44.04.46,0,.04,0-.01,0-.03,0-.04ZM256.72,186.27c.11,1.02.23,1.87-.17,3.1-.25-1-.11-2.06.17-3.1ZM256.49,181.13l.04-.74c.02.09,0,.3-.04.74ZM251.25,157.44c1.27-.11,6.17.15,6.59,1.44l-6.59-1.44ZM254.96,189.33c0,.05-.04.09-.09.09s-.09-.04-.09-.09.04-.09.09-.09.09.04.09.09ZM255.1,210.41l-2.14-.67c.88-.37,1.48.05,2.14.67ZM253.67,201.12c0-.05.04-.09.09-.09s.09.04.09.09-.04.09-.09.09-.09-.04-.09-.09ZM254.04,209.09l1.01.4c-.38.34-.81.03-1.01-.4ZM253.71,208.63v-4.57c0-1.29.34-2.56.66-3.83l.62,8.63c-.35.02-.8-.08-1.28-.24ZM254.21,198.95l-.34,1.52.12-1.88c.06-.99-.09-2.42.43-2.37,0,1.02-.05,1.82-.2,2.74ZM254.29,195.68c.04.44.04.45,0,.04,0-.01,0-.03,0-.04ZM252.02,210.12l2.1.36c.33.06.84.31,1.11.63-1.17-.24-2.21-.5-3.2-.99ZM255.23,194.06l-.04,2.91c-.03,2.1.03,4.1-.16,6.15-.44-2.27-.3-4.46-.19-6.7l.15-2.94c.06.05.2.15.26.18.08.04-.01.28-.02.4ZM255.38,210.88c.34-.05.52-.1.5-.02l-.1.32c-.02.08-.18-.08-.4-.3ZM255.77,212.75c.12-.27.41-.78.63-1.09.4.42.27,1.06-.63,1.09ZM256.62,211.36c-.06,0-.12-.05-.12-.12s.05-.12.12-.12.12.05.12.12-.05.12-.12.12ZM256.41,210.33l.14-.68.48.95c-.5-.13-.65-.16-.63-.27ZM256.74,203.43c.4,2.08.36,3.97.03,6-.27-2.06-.23-4.04-.03-6ZM257,191.08l-.07,3.38.06,8.06c-.14-.16-.36-.58-.36-.75,0-2.12-.06-4.16-.17-6.25-.07-1.43.26-3.05.33-4.99.02-.66.03-1.19.31-1.7l-.1,2.24ZM259.39,210.75c.56.06.81.2,1.2.67l-1.07.3c-.13-.09-.16-.62-.13-.97ZM257.4,207.45l.04-1.61c.63,1.28,1.13,2.49,1.55,4.04l-1.65-.39.05-2.03ZM259.02,210.47l-.2,1.28-1.63-.23-.02-1.55c.61.06,1.25.21,1.84.5ZM256.64,185.94l.63-3.36c.15-.11-.13,4.4-.63,3.36ZM257.42,177.02l.59-2.74c.44-2.02,1.01-3.97,1.62-5.9.19.13.37.26.32.3l-.3.26-2.31,9.18c-.74-.28.18-.66.08-1.1ZM259.82,168.14c.11-.07.13-.63.21-.44.03.06.1.28.09.28,0,0-.24.13-.3.17ZM257.41,182.24l.04-.74c.02.09,0,.3-.04.74ZM257.63,181.07c-.06,0-.12-.05-.12-.12s.05-.12.12-.12.12.05.12.12-.05.12-.12.12ZM257.63,180.33c-.06,0-.12-.05-.12-.12s.05-.12.12-.12.12.05.12.12-.05.12-.12.12ZM257.82,179.86c-.05-.26-.05-.58,0-.95.05.26.05.58,0,.95ZM260.69,169.19l-1.54,4.98c-.44,1.42-.43,2.83-1.12,4.05.64-3.84,1.85-7.37,3.1-10.93.14.72-.24,1.27-.44,1.91ZM260.58,166.04c-.05,0-.09-.04-.09-.09s.04-.09.09-.09.09.04.09.09-.04.09-.09.09ZM260.78,166.79c.08.06-.02.27-.28.68l.28-.68ZM260.83,166.41c0-.06.05-.12.12-.12s.12.05.12.12-.05.12-.12.12-.12-.05-.12-.12ZM261.31,165.42c-.06,0-.12-.05-.12-.12s.05-.12.12-.12.12.05.12.12-.05.12-.12.12ZM261.5,164.86c-.06,0-.12-.05-.12-.12s.05-.12.12-.12.12.05.12.12-.05.12-.12.12ZM261.86,163.76c-.06,0-.12-.05-.12-.12s.05-.12.12-.12.12.05.12.12-.05.12-.12.12ZM262.05,163.27c-.05,0-.09-.04-.09-.09s.04-.09.09-.09.09.04.09.09-.04.09-.09.09ZM261.97,161.77l.28-.68c.08.06-.02.27-.28.68ZM262.5,162.61l-.21.24c-.06.07-.11-.15-.13-.27-.01-.06.38-.02.34.03ZM261.71,160.51c-.41-.06-.77-.32-1.04-.7l1.85-.03c-.14.41-.49.78-.81.73ZM262.79,161.8c-.05,0-.09-.04-.09-.09s.04-.09.09-.09.09.04.09.09-.04.09-.09.09ZM261.64,159.32c.24-.33.88-.54,1.29-.36-.13.42-.64.41-1.29.36ZM263.52,160.33c-.05,0-.09-.04-.09-.09s.04-.09.09-.09.09.04.09.09-.04.09-.09.09ZM263.63,157.81c-1.2.95-1.66.5-3.34.22l3.34-.22ZM261.75,158.71c-.89.57-2.16.78-2.84-.2.98-.02,1.76.03,2.84.2ZM259.75,158.03c0,.05-.04.09-.09.09s-.09-.04-.09-.09.04-.09.09-.09.09.04.09.09ZM256.99,156.21s-.03,0-.04,0c-.41-.04-.4-.04.04,0ZM257.95,156.91l1.65.39-2.44-.03c-.57,0-1.31.12-1.56-.78.83.01,1.57.23,2.35.42ZM255.89,155.84s-.03,0-.04,0c-.41-.04-.4-.04.04,0ZM255.48,156.38c.09.34-.64.37-.74.03.03-.11.67-.15.74-.03ZM254.57,156.82c-.78-.15-1.57-.39-2.39-.65.83-.12,1.66-.12,2.39.65ZM249.42,156.56c-.14,0-.57-.1-.57-.22l.03-.47c0-.12.46-.23.6-.18l2.48.9-2.54-.03ZM250.9,155.32c-.55-.09-1.11-.24-1.68-.42.59-.14,1.11-.07,1.68.42ZM252.72,142.12c.09.08.13.56.07.72l-1.63,4.19c-.15.39-.15.65-.42.93-.07,2.15-1.41,4.16-1.78,6.45l-.92-.09c-.15-.01.06-.46.06-.58-.15.06-.26.11-.28.11-.02,0-.03-.29,0-.34l.39-1,.77-2.03c.65-1.73,1.18-3.5,2.07-5.12.51-.92,1.06-1.76,1.33-2.71l-1.46,2.24c.72-2.27,1.56-4.35,3.04-6.34-.24,1.5-.75,1.87-1.23,3.56ZM256.26,134.67l-.34-.3-.41,1.17c.11,0,.41,0,.36.04l-.43.32-1.07,2.56-.49-.66,1.52-3.01c.11-.21.58-.48.8-.59.31-.63.58-1.59,1.19-2.01l-1.12,2.48ZM256.81,132.25s-.25.13-.3.16c-.05.03.27-.56.21-.44,0,.02.09.28.09.27ZM255.11,90.09l4.03-5.5c-.82,2.52-2.38,4.01-4.03,5.5ZM257.81,132.89c-.05,0-.09-.04-.09-.09s.04-.09.09-.09.09.04.09.09-.04.09-.09.09ZM257.78,131.95c.15-.96.68-1.73,1.4-2.38-.43.84-.85,1.56-1.4,2.38ZM258.25,129.69l3.5-5.85c-.54,2.34-2.02,4.18-3.5,5.85ZM263.13,122.34l-.91,1.47c-.18-.54,1.09-1.97.52-1.91l.45-.04c.1,0,.01.38-.05.49ZM264.84,120.46c-.69.08-.69.86-1.27,1.32-.12-.25.86-1.71.9-1.71h.55s1.79-2.95,1.79-2.95c.23-.38.68-.54,1.07-.27l-3.03,3.61ZM267.56,116.18c1.06-1.54,2.18-3.09,4.05-4.07l-2.97,3.8c-.29.37-.68.51-1.09.27ZM269.64,117.28c-.48-.16-.6-.21-.29-.15l.41-.27c.05-.04.16.04.3.1.09.04-.32.27-.41.33ZM269.7,115.56l1.94-2.25c.11-.13.52.14.57.29.19.68-1.81,2-2.5,1.96ZM271.2,115.93l1.04-.98c.31-.29.81-.4,1.37-.08-.66.69-1.48,1.03-2.41,1.06ZM273.64,114.35l2.75-1.59c.28.54-2.42,2.4-2.75,1.59ZM276.24,106.55l.49-.37c.42-.32.68-.79,1.27-.6l-1.37,1.41c-.15.15-.5-.36-.39-.45ZM277.33,107.42c.13.31.2.51.14.62-.07.14-.4.29-.67.33l.53-.95ZM277.17,109.25c-.02-.53.38-.92.95-.98l-.95.98ZM279.92,104.96c-.46,1.07-.48,2.32-1.69,2.96l.98-1.67-1.1.9c-.26-.47-.12-.96.25-1.3l.77-.71,1.36-1.12c.1.36-.46.68-.57.94Z"/>
        <path class="cls-2" d="M34.78,219.13h-.01s0,0,0,0h.02Z"/>
      </g>
    </g>
  </g>
</svg>