<?xml version="1.0" encoding="UTF-8"?>
<svg id="Capa_2" data-name="Capa 2" xmlns="http://www.w3.org/2000/svg" viewBox="0 0 293.15 72.77">
  <defs>
    <style>
      .cls-1 {
        fill: #ffdf00;
        stroke: #1d1d1b;
        stroke-miterlimit: 10;
        stroke-width: .5px;
      }

      .cls-2 {
        fill: #e30613;
      }
    </style>
  </defs>
  <g id="Capa_1-2" data-name="Capa 1">
    <g>
      <path class="cls-1" d="M292.86,49.44c-.14-2.45-.77-4.97-1.94-7.7-1.13-2.64-2.85-5.26-5.13-7.79l-2.45-2.73c-.26-.98-.36-1.57-.4-1.88-.04-.33-.08-.91,0-1.8.03-.35.11-.65.24-.96l2.9-6.45-8.7-6.02-1.49-9.17-7.98,2.61-4.6-3.19.09,4.67-16.96,5.55-2.1-2.29-14.4-5.76-.7,3.93-13.67-7.25-3.12,7.55-.87-6.53-11.55,3.85-8.41,3.04-8.87-7.15-5.34,6.54c-1.54,1.88-2.87,3.44-3.94,4.62-.42-1.08-.91-2.27-1.47-3.57l-4.77-11.12-17.25,16.1-2.06,1.9c-.24-.69-.56-1.35-.96-1.99-1.73-2.71-4.65-4.33-7.81-4.33h-7.69c-2.38,0-4.66.92-6.41,2.57-1.74-1.62-4.07-2.58-6.66-2.58h-9.89c-1.93,0-3.73.51-5.27,1.44-1.44-.93-3.13-1.45-4.93-1.45l-24.54-.02c-.68,0-1.34.07-1.99.22-.61-.13-1.23-.22-1.87-.22h-22.12c-.64-.01-1.27.05-1.88.18-.58-.11-1.17-.19-1.78-.19h-6.51c-2.27,0-4.43.76-6.25,2.17-1.66-1.38-3.78-2.19-6.12-2.19h-6.51c-2.5,0-4.91,1.01-6.78,2.86-1.31,1.3-2.25,2.92-2.74,4.7L.61,50.92c-.65,2.37-.42,4.84.62,6.93,1.55,3.16,4.7,5.12,8.21,5.14l6.79.02c2.43,0,4.77-.95,6.62-2.68,1.7,1.72,4.02,2.72,6.5,2.72l6.79.02c.66,0,1.31-.07,1.95-.21.61.13,1.23.22,1.87.22l23.63.07c2.36,0,4.6-.89,6.39-2.5,1.68,1.61,3.91,2.53,6.32,2.54l7.72.02c1.94,0,3.8-.6,5.38-1.7,1.52,1.1,3.35,1.73,5.31,1.73l7.09.02c2.77,0,5.28-1.08,7.2-3.01,1.79,1.92,4.28,3.05,7.11,3.06l7.09.02c.78,0,1.55-.11,2.3-.31.76.21,1.56.32,2.37.32l19.78.06,2.74,8.97,20.11-12.6,19.41,5.99-.18-4.8c1.19.84,2.42,1.63,3.67,2.34,2.92,1.65,5.63,2.75,8.28,3.36,1.4.32,2.69.48,3.94.48,2.58,0,4.88-.67,6.91-2.05.59-.41,1.13-.85,1.66-1.32l.25.1c6.14,2.45,12.51,3.69,18.94,3.69,3.15,0,6.35-.3,9.53-.89l13.29-2.48,20.26,2.84-.34-.47c.1,0,.21.01.3.01.66,0,1.32-.03,1.95-.1,2.91-.31,5.3-1,7.31-2.13,2.23-1.25,3.76-2.58,4.85-4.24.77-1.19,1.35-2.63,1.84-4.53.46-1.81.63-3.82.5-6.16Z"/>
      <g>
        <g>
          <path class="cls-2" d="M164.16,14.9c.94,2.19,1.68,4.04,2.2,5.56.53,1.51,1,3.17,1.41,4.98.41,1.81.64,3.59.67,5.36.03,1.77-.26,3.32-.86,4.65-.61,1.36-1.08,2.53-1.43,3.49l4.97.93c.22-1.66.64-3.27,1.25-4.81.61-1.54,1.25-2.89,1.95-4.04.69-1.15,1.62-2.46,2.8-3.95-.58.74-1.27,1.43-2.05,2.05-.78.63-1.86,1.36-3.23,2.19l-.37-3.49c1.04-.45,2.27-1.28,3.67-2.49,1.39-1.21,2.74-2.5,4.03-3.87,1.28-1.37,2.89-3.23,4.81-5.59l2.17,1.75,1.2,7.67c-1.15.54-2.25,1.46-3.28,2.73-1.04,1.28-2,2.75-2.87,4.41-.88,1.66-1.6,3.16-2.15,4.5-.55,1.34-1.2,3.12-1.96,5.34l1.33-3.29,4.76,1.36c-.65,1.85-1.15,3.6-1.5,5.27-.35,1.67-.58,3.11-.68,4.33-.1,1.22-.12,2.6-.06,4.16l-11.53-3.56,1.02-7.46-5.14-.3c-.07,1.24.14,2.48.61,3.71.48,1.23,1.3,2.76,2.45,4.57l-13.1,8.21c-.43-1.42-.75-2.67-.95-3.74-.2-1.07-.34-2.32-.42-3.74-.08-1.42-.03-2.96.15-4.62.18-1.66.54-3.3,1.08-4.93l-5.99-.34,3.86-6.58c.32.42,1.83.99,4.53,1.7.15-.24.28-.46.42-.66,1.43-1.95,2.12-3.85,2.09-5.69-.03-1.84-.49-3.45-1.36-4.82-.87-1.37-1.84-2.41-2.91-3.12l8.4-7.85Z"/>
          <path class="cls-2" d="M202.68,16.15l.18-.07.2-.07,1.43-.48c.17,1.24.38,2.31.66,3.22.27.91.7,1.93,1.28,3.06.58,1.13,1.37,2.32,2.37,3.56,1,1.24,2.23,2.41,3.67,3.52-.23.32-.58.8-1.06,1.45-.47.65-.83,1.13-1.07,1.45-1.73-1.32-3.11-2.72-4.15-4.22-1.03-1.5-1.86-3.45-2.47-5.87.35,2.39.77,4.48,1.25,6.28.49,1.8.99,3.34,1.52,4.63.53,1.29,1.22,2.83,2.09,4.65.86,1.78,1.52,3.19,1.96,4.22,1.57,3.55,2.05,6.83,1.43,9.83-.64,3-2.07,5.27-4.29,6.82-.89.6-2.26.7-4.09.27-1.83-.42-3.83-1.25-6.02-2.48-2.17-1.23-4.24-2.72-6.19-4.46-1.94-1.74-3.53-3.59-4.78-5.56-1.24-1.97-1.9-3.9-2.01-5.82-.11-1.91.52-3.63,1.86-5.16.86-.97,1.55-2.08,2.1-3.32.54-1.25.93-2.49,1.19-3.74.25-1.25.42-2.39.51-3.44.08-1.04.1-2.31.06-3.81l12.38-4.47ZM195.75,35.8c-.46.87-.81,1.87-1.04,3-.24,1.13-.21,2.35.09,3.64.29,1.29.99,2.57,2.08,3.82.9,1.04,1.74,1.89,2.53,2.54.79.65,1.72,1.27,2.78,1.86.02-1.27-.03-2.42-.14-3.45-.11-1.03-.32-2.28-.63-3.74-.31-1.47-.76-3.12-1.35-4.96-.59-1.84-1.33-3.76-2.22-5.77-.93,1.16-1.63,2.18-2.09,3.05Z"/>
          <path class="cls-2" d="M214.17,40.22c-.28-4.86.55-9.01,2.47-12.44-.54,1.19-1.55,3-3.04,5.42l-2.35-3.92c.91-.57,1.88-1.59,2.9-3.04,1.01-1.45,1.93-2.98,2.76-4.59.82-1.61,1.8-3.79,2.94-6.54l4.28,2.27,6.17,10.32c-1.83,1.06-3.19,2.73-4.1,5.01-.93,2.28-1.46,4.78-1.6,7.48-.15,2.71-.01,5.25.41,7.62.42,2.37.98,4.14,1.69,5.28l2.69.59c-1.44-2.09-2.33-4.67-2.7-7.76l9.88-.91c-.08,1.6.01,3.1.28,4.5.27,1.4.64,2.63,1.1,3.71.47,1.07.95,1.97,1.43,2.7.49.73,1.14,1.53,1.95,2.4-8.09,1.51-16.05.73-23.75-2.34-2.01-5.66-3.13-10.91-3.4-15.77Z"/>
          <path class="cls-2" d="M242.27,52.03c-1.67-3.28-2.94-5.95-3.83-8.02-.88-2.06-1.56-4.34-2.04-6.84-.48-2.49-.48-4.78.01-6.85-.12.83-.35,1.63-.7,2.38-.36.76-.92,1.66-1.7,2.72l-2.33-3.18c.7-.64,1.36-1.67,1.97-3.11.6-1.44,1.11-2.94,1.51-4.51.4-1.57.84-3.68,1.31-6.33l2.89,1.16,7.37,8.05c-.73.77-1.2,1.91-1.41,3.4-.21,1.5-.24,3.08-.08,4.75.16,1.67.38,3.19.67,4.56.29,1.37.76,3.17,1.41,5.41l-.74-3.36,5.11.27c.49,1.86,1.08,3.61,1.77,5.24.69,1.63,1.37,3.03,2.04,4.2.67,1.16,1.51,2.46,2.53,3.9l-14.86-2.09c-.2-.39-.5-.98-.91-1.77Z"/>
          <path class="cls-2" d="M272.29,25.27c-.09-1.26-.16-2.76-.19-4.48l3.31,2.29c-.54,1.19-.86,2.45-.96,3.76-.11,1.32-.09,2.53.06,3.63.15,1.1.46,2.46.93,4.06l-7.27,2.65-1.61-5.24c-1.05,1.51-1.68,3.06-1.89,4.64-.22,1.58-.11,3.11.32,4.6.43,1.49,1.07,2.9,1.92,4.23.86,1.33,1.8,2.55,2.83,3.65,1.03,1.1,2.03,2.06,2.99,2.86.96.8,2.18,1.72,3.64,2.74-.17-1.25-.5-2.56-.99-3.92-.49-1.36-1.02-2.6-1.59-3.73-.57-1.13-1.35-2.5-2.34-4.12l8.03-3.29c1.66,1.85,2.87,3.66,3.63,5.45.77,1.79,1.19,3.4,1.27,4.83.08,1.43,0,2.62-.25,3.58-.25.96-.5,1.64-.75,2.03-.27.41-.88.88-1.85,1.43-.97.54-2.32.91-4.05,1.09-1.73.18-3.83-.1-6.31-.84-2.47-.74-5.19-2.15-8.15-4.24-2.75-1.96-4.84-3.83-6.28-5.59-1.42-1.76-2.35-3.44-2.77-5.02-.43-1.59-.57-3.08-.44-4.47.13-1.39.42-3.16.85-5.31.49-2.37.79-4.43.92-6.16.12-1.73-.06-3.6-.54-5.61l14.34-4.7c.79,4.88,2.01,9.28,3.67,13.18-.22-1.41-.37-2.74-.46-4Z"/>
        </g>
        <g>
          <path class="cls-2" d="M37.6,20.56h6.51c.26,0,.46.13.58.39.13.26.15.57.07.92l-7.32,31.39c-.08.36-.25.66-.51.92-.26.26-.53.39-.8.39l-6.76-.02c-.27,0-.48-.13-.61-.39-.14-.26-.16-.57-.07-.92l3.7-15.05-4.41,6.98c-.24.39-.54.69-.89.9-.35.21-.67.31-.96.31h-2.51c-.42,0-.73-.15-.92-.45-.2-.29-.3-.55-.32-.78l-.86-6.99-3.93,15.04c-.09.36-.27.66-.54.92-.27.26-.54.39-.81.39l-6.76-.02c-.27,0-.48-.13-.6-.39-.13-.26-.14-.57-.05-.92l8.59-31.32c.1-.36.28-.66.54-.92.26-.26.52-.39.78-.39h6.51c.66,0,1.06.44,1.19,1.32l1.71,11.65,7.62-11.64c.57-.87,1.19-1.31,1.85-1.31Z"/>
          <path class="cls-2" d="M50.73,45.12l14.7.04c.27,0,.48.13.62.39.15.26.18.57.12.93l-1.33,6.86c-.07.36-.23.67-.48.92-.25.26-.51.39-.79.39l-23.6-.07c-.27,0-.48-.13-.62-.39-.14-.26-.17-.57-.09-.92l7.23-31.39c.08-.36.25-.66.5-.92.25-.26.5-.39.76-.39h22.11c.26.01.46.14.6.4.14.26.17.57.1.93l-1.33,6.86c-.07.36-.23.67-.47.92-.24.26-.5.39-.76.39l-14.02-.02-.66,3.06,12.09.02c.27,0,.47.13.61.39.14.26.18.57.11.93l-1.25,6.33c-.07.36-.23.67-.48.92-.25.26-.51.39-.77.39l-12.25-.03-.66,3.06Z"/>
          <path class="cls-2" d="M73.75,20.58l24.53.02c.26,0,.47.13.62.39.15.26.2.57.14.93l-1.19,7.85c-.05.36-.2.67-.43.93-.23.26-.48.39-.75.39h-7.76s-3.68,22.32-3.68,22.32c-.06.36-.21.67-.45.93-.24.26-.5.39-.77.39l-7.69-.02c-.27,0-.49-.13-.64-.39-.15-.26-.2-.57-.13-.93l3.99-22.31h-7.76c-.26-.01-.47-.14-.61-.4-.14-.26-.18-.57-.11-.93l1.5-7.84c.07-.36.22-.66.46-.93.24-.26.49-.39.75-.39Z"/>
          <path class="cls-2" d="M101.78,54.77l-7.06-.02c-.22,0-.4-.11-.53-.32-.13-.21-.18-.42-.15-.61s.06-.34.1-.44l12.51-31.17c.36-1.07.97-1.61,1.83-1.61h9.88c.85,0,1.32.54,1.4,1.62l4.34,31.25c.01.1.01.24-.01.44s-.12.4-.31.61c-.19.21-.39.32-.61.32l-7.06-.02c-.8,0-1.29-.56-1.48-1.67l-.51-3.42-9.05-.03-1.4,3.41c-.48,1.11-1.11,1.66-1.91,1.65ZM113.45,40.19l-1.27-10.16-3.93,10.15h5.19Z"/>
          <path class="cls-2" d="M137.87,44.85l12.55.03c.27,0,.49.13.67.39.18.26.25.57.23.93l-.53,7.4c-.03.36-.15.67-.37.93-.22.26-.46.39-.74.39l-21.81-.07c-.27,0-.5-.13-.67-.39-.17-.26-.24-.57-.2-.93l3.33-31.59c.04-.36.17-.67.38-.93.22-.26.46-.39.72-.39h7.68c.26,0,.47.14.64.4.17.26.23.57.2.93l-2.09,22.9Z"/>
        </g>
      </g>
    </g>
  </g>
</svg>