<?xml version="1.0" encoding="UTF-8"?>
<svg id="Capa_2" data-name="Capa 2" xmlns="http://www.w3.org/2000/svg" viewBox="0 0 360.73 219.32">
  <defs>
    <style>
      .cls-1 {
        fill: #1d1d1b;
      }
    </style>
  </defs>
  <g id="Capa_1-2" data-name="Capa 1">
    <g>
      <g>
        <path class="cls-1" d="M97.44,0h11.48c.46,0,.81.25,1.06.75.25.5.31,1.09.19,1.78l-10.7,60.58c-.12.69-.42,1.28-.89,1.78-.47.5-.97.75-1.49.75h-12.94c-.53,0-.93-.26-1.2-.76-.28-.5-.34-1.09-.2-1.78l6.05-29.07-7.85,13.5c-.44.75-.98,1.33-1.63,1.73-.64.41-1.24.61-1.8.61h-4.72c-.79,0-1.37-.28-1.74-.85-.38-.56-.58-1.06-.61-1.5l-1.7-13.5-7.2,29.06c-.17.69-.51,1.28-1.01,1.78-.51.5-1.02.75-1.55.75h-12.94c-.53,0-.91-.26-1.15-.76-.24-.5-.27-1.09-.07-1.78L61.74,2.53c.19-.69.52-1.28,1-1.78.47-.5.94-.75,1.4-.75h11.48c1.17,0,1.86.84,2.08,2.53l3.13,22.5,13.39-22.5c.98-1.69,2.06-2.53,3.23-2.53Z"/>
        <path class="cls-1" d="M123.59,47.37h27.55c.51.01.92.26,1.25.76.33.5.47,1.1.41,1.78l-1.04,13.23c-.05.69-.29,1.28-.71,1.78-.42.5-.89.75-1.42.75l-45.18-.03c-.53,0-.94-.25-1.23-.75-.3-.5-.39-1.09-.27-1.78L113.26,2.53c.12-.69.38-1.28.81-1.78.42-.5.86-.75,1.32-.75h39.01c.46,0,.84.25,1.13.75.29.5.42,1.1.36,1.78l-1.05,13.23c-.05.69-.28,1.28-.66,1.78-.39.5-.82.75-1.3.75h-25.35s-.8,5.9-.8,5.9h22.03c.48,0,.88.26,1.19.76.31.5.43,1.1.37,1.78l-1.06,12.2c-.06.69-.29,1.28-.7,1.78-.41.5-.86.75-1.36.75h-22.8s-.8,5.9-.8,5.9Z"/>
        <path class="cls-1" d="M161.23,0h43.28c.46,0,.86.25,1.21.75.35.5.53,1.1.55,1.78l.41,15.11c.02.69-.14,1.28-.47,1.78-.34.5-.74.75-1.22.75h-14.06s-.22,42.99-.22,42.99c0,.69-.2,1.28-.58,1.78-.39.5-.84.75-1.36.75h-14.73c-.53-.01-.97-.26-1.33-.76-.36-.5-.53-1.09-.5-1.78l1.71-42.98h-14.06c-.48,0-.88-.25-1.19-.75-.31-.5-.44-1.09-.39-1.78l1.09-15.11c.05-.69.26-1.28.63-1.78.37-.5.78-.75,1.24-.75Z"/>
        <path class="cls-1" d="M222.78,65.73h-13.51c-.43,0-.8-.21-1.12-.62-.32-.41-.49-.8-.5-1.17s0-.66.05-.84l12.16-59.99c.26-2.07,1.14-3.1,2.65-3.1h17.44c1.51,0,2.55,1.03,3.15,3.1l21.81,60.03c.07.19.13.47.19.85s-.05.77-.31,1.17c-.26.41-.6.61-1.03.61h-13.51c-1.53-.01-2.71-1.07-3.54-3.2l-2.41-6.58h-17.13s-1.36,6.56-1.36,6.56c-.49,2.13-1.5,3.19-3.02,3.19ZM239.06,37.66l-6.38-19.54-3.24,19.53h9.62Z"/>
        <path class="cls-1" d="M286.65,46.51h23.5c.51.01,1,.26,1.48.76.48.5.8,1.1.96,1.79l3.26,14.19c.16.69.1,1.28-.16,1.79-.27.5-.66.75-1.19.75l-41.75-.03c-.53,0-1.01-.25-1.47-.75-.45-.5-.73-1.1-.83-1.79l-8.77-60.69c-.1-.69-.02-1.28.24-1.79.26-.5.62-.75,1.08-.75h13.55c.46,0,.9.25,1.33.75.43.5.7,1.1.82,1.79l7.94,43.97Z"/>
      </g>
      <g>
        <path class="cls-1" d="M98.48,132.2c3.68-5.4,7.42-10.18,11.22-14.32,3.76-4.15,7.39-7.11,10.92-8.87l2.12-24.91-4.53-5.68c-6.83,7.66-12.51,13.71-16.98,18.16-4.53,4.44-9.16,8.63-13.91,12.55-4.8,3.93-8.83,6.62-12.06,8.09l-1.87,11.35c4.48-2.7,8.05-5.06,10.71-7.1,2.64-2.04,5.06-4.26,7.24-6.66-4.38,4.81-8,9.08-10.83,12.81-2.86,3.73-5.76,8.1-8.72,13.11-2.99,5.01-5.5,10.21-7.53,15.62l-13.26-3.04c1.82-3.14,4.17-6.92,7.05-11.34,2.83-4.32,4.95-9.35,6.38-15.1,1.43-5.75,2.33-11.55,2.74-17.43.42-5.87.57-11.26.44-16.18-.1-4.91-.46-10.93-1.06-18.05l-29.59,25.47c2.23,2.31,3.89,5.69,4.99,10.14,1.13,4.45.92,9.67-.68,15.66-1.6,5.99-5.27,12.15-11.08,18.48-.55.64-1.14,1.35-1.78,2.14-6.9-2.32-10.59-4.16-11.08-5.54L0,162.88l16.71,1.13c-3.1,5.3-5.71,10.64-7.81,16.01-2.11,5.38-3.74,10.37-4.88,14.99-1.14,4.62-1.93,8.67-2.37,12.15-.44,3.49-.7,7.54-.78,12.16l45.94-26.6c-1.78-5.9-2.8-10.85-3.1-14.86-.29-4,.22-8.02,1.51-12.05l14.4.98-9.3,24.23,30.72,11.62c1.05-5.06,2.2-9.57,3.44-13.52,1.23-3.95,3.01-8.64,5.31-14.07,2.28-5.43,5.05-11.14,8.3-17.13l-12.42-4.44-6.39,10.68c3.91-7.22,7.15-13,9.75-17.35,2.57-4.35,5.74-9.22,9.46-14.62Z"/>
        <path class="cls-1" d="M235.53,200.03c-.86-3.49-1.35-7.51-1.48-12.06-.13-4.55.29-9.43,1.25-14.64l-28.81,2.91c-.55,10.03.68,18.44,3.76,25.23l-7.54-1.93c-1.43-3.74-2.11-9.47-2.04-17.19.06-7.72,1.03-15.98,2.87-24.78,1.79-8.8,4.55-16.91,8.27-24.33,3.62-7.42,8.17-12.85,13.65-16.29l-17.82-34.48-9.07-17.41c.57,14.27-3.53,26.96-6.57,32.2-3.09,5.23-6.42,10.21-9.98,14.93-.68.89-1.35,1.71-2,2.5-1.19-1.73-2.26-3.5-3.19-5.31-2.03-4.03-3.51-7.89-4.45-11.58-.93-3.69-1.5-7.01-1.72-9.96-.22-2.95-.2-6.44.05-10.47l-4.05,1.54-.58.22-.52.22-35.87,14.5c-.9,4.86-1.82,8.99-2.77,12.38-.95,3.39-2.2,7.11-3.76,11.16-1.58,4.05-3.55,8.11-5.92,12.16-2.4,4.05-5.14,7.65-8.24,10.79-4.9,4.96-7.95,10.54-9.09,16.76-1.15,6.22-.71,12.52,1.35,18.91,2.12,6.39,5.36,12.42,9.72,18.08,4.45,5.66,9.44,10.5,14.96,14.51,5.59,4.02,10.96,6.72,16.07,8.1,5.14,1.38,9.23,1.1,12.25-.86,7.52-5,13.09-12.38,16.74-22.13.62-1.72,1.15-3.46,1.58-5.23.24,6.64.81,13.46,1.74,20.47,20.92,10.02,44.09,12.59,68.79,7.71-2-2.86-3.54-5.47-4.64-7.83-1.09-2.36-2.07-5.29-2.94-8.79ZM144.81,180.34c-.35,3.34-.96,7.08-1.83,11.21-2.7-1.92-4.97-3.94-6.84-6.06-1.85-2.12-3.72-4.87-5.59-8.27-2.28-4.08-3.38-8.23-3.33-12.43.05-4.2.8-8.15,2.24-11.83,1.43-3.68,3.08-6.94,4.97-9.76,1.87-2.82,4.49-6.13,7.85-9.91,1.18,6.54,2.02,12.8,2.5,18.77.5,5.97.72,11.35.65,16.11-.06,4.77-.27,8.82-.62,12.17ZM174.03,157.63c-.33,2.43-.6,4.9-.83,7.39-.18-1.09-.38-2.19-.61-3.3-.66-3.34-1.71-7.92-3.11-13.72-1.37-5.9-2.41-10.94-3.13-15.12-.71-4.18-1.21-9.19-1.49-15.05-.28-5.85-.19-12.66.24-20.43.27,7.87,1.38,14.23,3.34,19.1,1.26,3.06,2.92,6.01,4.99,8.84l3.13,9.46c3.59-5.09,6.43-9.33,8.58-12.75-5.57,10.14-9.3,22-11.1,35.57Z"/>
        <path class="cls-1" d="M358,173.68c-1.86-5.84-4.98-11.76-9.34-17.77l-23.56,10.67c2.42,5.27,4.31,9.74,5.66,13.41,1.35,3.67,2.56,7.72,3.63,12.15,1.07,4.43,1.68,8.69,1.82,12.77-4.01-3.35-7.3-6.33-9.88-8.95-2.56-2.61-5.18-5.72-7.84-9.31-2.64-3.6-5-7.56-7.06-11.9-2.05-4.33-3.46-8.92-4.23-13.77-.78-4.85-.63-9.84.42-14.98,1.02-5.14,3.19-10.17,6.49-15.09l3.21,17.06,20.97-8.61c-1.01-5.22-1.62-9.62-1.84-13.22-.22-3.59-.08-7.53.43-11.81.49-4.28,1.54-8.37,3.16-12.26l-8.62-7.47c-.16,5.61-.23,10.47-.18,14.58.04,4.11.23,8.46.57,13.03-3.86-12.7-6.42-27.01-7.81-42.91l-39.28,15.25c.71,6.55.66,12.63-.17,18.27-.86,5.63-2.34,12.31-4.48,20.04-1.95,6.99-3.38,12.74-4.24,17.27-.89,4.53-1.03,9.37-.41,14.54.03.22.07.44.1.65l-14.25-.89.8,10.92c-.97-7.28-1.59-13.15-1.87-17.6-.28-4.45-.32-9.4-.13-14.83.18-5.43.84-10.59,1.97-15.46,1.1-4.87,2.79-8.56,5.05-11.06l-17.19-26.22-7.31-3.77c-2.28,8.61-4.31,15.47-6.03,20.58-1.77,5.11-3.79,10.01-6.07,14.68-2.32,4.67-4.62,8.04-6.86,10.1l5.04,10.34c2.66-3.44,4.64-6.39,5.96-8.85.85-1.59,1.55-3.25,2.13-4.95-1.64,5.98-2.38,12.47-2.17,19.48.23,8.12,1.12,15.53,2.7,22.25,1.6,6.72,4.06,15.42,7.4,26.09.81,2.56,1.43,4.48,1.84,5.76l42.74,6.86c-2.48-4.68-4.46-8.91-5.98-12.7-1.5-3.79-2.96-8.35-4.36-13.66-1.12-4.29-2.02-8.83-2.71-13.59,1,3.92,2.75,8,5.28,12.23,3.48,5.74,8.85,11.81,16.17,18.22,7.92,6.8,15.44,11.42,22.48,13.84,7.09,2.42,13.23,3.34,18.38,2.76,5.14-.58,9.22-1.76,12.24-3.52,2.99-1.77,4.92-3.31,5.8-4.64.84-1.28,1.73-3.48,2.67-6.6.92-3.12,1.42-7.01,1.49-11.66.05-4.65-.86-9.9-2.73-15.73Z"/>
      </g>
    </g>
  </g>
</svg>