<?xml version="1.0" encoding="UTF-8"?>
<svg id="Capa_2" data-name="Capa 2" xmlns="http://www.w3.org/2000/svg" viewBox="0 0 225.95 137.37">
  <defs>
    <style>
      .cls-1 {
        fill: #ffdf00;
      }
    </style>
  </defs>
  <g id="Capa_1-2" data-name="Capa 1">
    <g>
      <g>
        <path class="cls-1" d="M61.04,0h7.19c.29,0,.51.16.66.47.15.31.19.69.12,1.12l-6.7,37.95c-.08.43-.26.8-.55,1.12-.29.31-.61.47-.93.47h-8.11c-.33,0-.58-.16-.75-.48-.17-.31-.22-.68-.13-1.12l3.79-18.21-4.92,8.46c-.28.47-.62.83-1.02,1.09-.4.25-.78.38-1.13.38h-2.96c-.49,0-.86-.18-1.09-.53-.24-.35-.36-.67-.38-.94l-1.06-8.46-4.51,18.2c-.11.43-.32.8-.63,1.12-.32.31-.64.47-.97.47h-8.11c-.33,0-.57-.16-.72-.48-.15-.31-.17-.68-.05-1.12L38.67,1.59c.12-.43.33-.8.63-1.12.3-.31.59-.47.88-.47h7.19c.73,0,1.17.53,1.3,1.59l1.96,14.09L59.01,1.59c.62-1.06,1.29-1.59,2.02-1.59Z"/>
        <path class="cls-1" d="M77.41,29.67h17.26c.32,0,.58.17.78.48.21.31.29.69.26,1.12l-.65,8.29c-.03.43-.18.8-.45,1.12-.26.31-.56.47-.89.47l-28.3-.02c-.33,0-.59-.16-.77-.47-.19-.31-.24-.69-.17-1.12L70.94,1.59c.07-.43.24-.8.5-1.12.26-.31.54-.47.83-.47h24.43c.29,0,.52.16.71.47.18.31.26.69.23,1.12l-.66,8.29c-.03.43-.17.8-.41,1.12-.24.31-.51.47-.81.47h-15.88s-.5,3.7-.5,3.7h13.8c.3,0,.55.16.74.47.19.31.27.69.23,1.12l-.66,7.64c-.04.43-.18.8-.44,1.12-.26.31-.54.47-.85.47h-14.28s-.5,3.69-.5,3.69Z"/>
        <path class="cls-1" d="M100.99,0h27.11c.29,0,.54.16.76.47.22.31.33.69.35,1.12l.26,9.47c.01.43-.09.8-.3,1.12-.21.31-.47.47-.77.47h-8.81s-.14,26.93-.14,26.93c0,.43-.12.8-.36,1.12-.24.31-.53.47-.85.47h-9.23c-.33,0-.61-.16-.83-.48-.23-.31-.33-.69-.31-1.12l1.07-26.92h-8.81c-.3,0-.55-.16-.74-.47-.2-.31-.28-.69-.25-1.12l.68-9.46c.03-.43.16-.8.4-1.12.23-.31.49-.47.78-.47Z"/>
        <path class="cls-1" d="M139.54,41.17h-8.46c-.27,0-.5-.13-.7-.39-.2-.25-.3-.5-.31-.74s0-.41.03-.53l7.61-37.58c.16-1.29.72-1.94,1.66-1.94h10.92c.94,0,1.6.65,1.97,1.94l13.66,37.6c.04.12.08.29.12.53s-.03.48-.19.74c-.16.26-.37.38-.64.38h-8.46c-.96,0-1.7-.67-2.22-2.01l-1.51-4.12h-10.73s-.85,4.11-.85,4.11c-.31,1.33-.94,2-1.89,2ZM149.74,23.59l-4-12.24-2.03,12.23h6.03Z"/>
        <path class="cls-1" d="M179.55,29.13h14.72c.32,0,.63.16.93.48.3.31.5.69.6,1.12l2.04,8.89c.1.43.07.8-.1,1.12-.17.31-.42.47-.74.47l-26.15-.02c-.33,0-.64-.16-.92-.47-.28-.31-.46-.69-.52-1.12l-5.49-38.01c-.06-.43-.01-.8.15-1.12.16-.31.39-.47.68-.47h8.49c.29,0,.56.16.83.47.27.31.44.69.52,1.12l4.97,27.54Z"/>
      </g>
      <g>
        <path class="cls-1" d="M61.69,82.81c2.3-3.38,4.64-6.37,7.03-8.97,2.35-2.6,4.63-4.45,6.84-5.56l1.32-15.61-2.84-3.56c-4.28,4.8-7.84,8.59-10.63,11.37-2.83,2.78-5.74,5.4-8.71,7.86-3.01,2.46-5.53,4.15-7.55,5.07l-1.17,7.11c2.81-1.69,5.04-3.17,6.71-4.45,1.66-1.27,3.17-2.67,4.54-4.17-2.74,3.01-5.01,5.69-6.78,8.03-1.79,2.34-3.61,5.07-5.46,8.21-1.87,3.14-3.45,6.4-4.71,9.78l-8.31-1.9c1.14-1.97,2.61-4.34,4.41-7.1,1.77-2.7,3.1-5.86,3.99-9.46.89-3.6,1.46-7.24,1.71-10.91.26-3.68.36-7.05.28-10.13-.07-3.08-.29-6.85-.66-11.31l-18.53,15.95c1.4,1.45,2.44,3.56,3.13,6.35.71,2.79.57,6.05-.43,9.81-1,3.75-3.3,7.61-6.94,11.58-.34.4-.72.85-1.11,1.34-4.32-1.45-6.63-2.61-6.94-3.47L0,102.02l10.47.71c-1.94,3.32-3.58,6.66-4.89,10.03-1.32,3.37-2.34,6.5-3.05,9.39-.71,2.89-1.21,5.43-1.49,7.61-.28,2.18-.44,4.72-.49,7.61l28.77-16.66c-1.11-3.69-1.75-6.8-1.94-9.31-.18-2.51.14-5.02.94-7.55l9.02.61-5.82,15.18,19.24,7.28c.66-3.17,1.38-5.99,2.16-8.47.77-2.48,1.88-5.41,3.32-8.81,1.43-3.4,3.16-6.97,5.2-10.73l-7.78-2.78-4,6.69c2.45-4.52,4.48-8.14,6.11-10.87,1.61-2.72,3.59-5.77,5.93-9.16Z"/>
        <path class="cls-1" d="M147.53,125.29c-.54-2.19-.85-4.71-.93-7.56-.08-2.85.18-5.91.78-9.17l-18.05,1.82c-.35,6.28.43,11.55,2.36,15.81l-4.72-1.21c-.9-2.34-1.32-5.93-1.28-10.77.04-4.84.65-10.01,1.8-15.52,1.12-5.51,2.85-10.59,5.18-15.24,2.27-4.65,5.11-8.05,8.55-10.2l-11.16-21.6-5.68-10.91c.36,8.94-2.21,16.89-4.12,20.17-1.94,3.28-4.02,6.4-6.25,9.35-.43.56-.84,1.07-1.25,1.57-.75-1.08-1.42-2.19-2-3.33-1.27-2.53-2.2-4.94-2.79-7.26-.58-2.31-.94-4.39-1.08-6.24-.14-1.85-.13-4.03.03-6.56l-2.54.97-.36.14-.32.14-22.47,9.08c-.57,3.05-1.14,5.63-1.73,7.76-.59,2.12-1.38,4.45-2.36,6.99-.99,2.54-2.22,5.08-3.71,7.62-1.5,2.54-3.22,4.79-5.16,6.76-3.07,3.11-4.98,6.6-5.69,10.5-.72,3.89-.45,7.84.85,11.85,1.33,4,3.36,7.78,6.09,11.32,2.79,3.54,5.91,6.58,9.37,9.09,3.5,2.52,6.86,4.21,10.07,5.07,3.22.87,5.78.69,7.68-.54,4.71-3.13,8.2-7.75,10.48-13.86.39-1.07.72-2.17.99-3.28.15,4.16.51,8.43,1.09,12.82,13.1,6.27,27.62,7.89,43.09,4.83-1.25-1.79-2.22-3.42-2.91-4.9-.68-1.48-1.3-3.31-1.84-5.5ZM90.71,112.96c-.22,2.09-.6,4.43-1.15,7.02-1.69-1.2-3.12-2.47-4.28-3.79-1.16-1.33-2.33-3.05-3.5-5.18-1.43-2.56-2.12-5.15-2.09-7.78.03-2.63.5-5.1,1.4-7.41.89-2.31,1.93-4.35,3.11-6.12,1.17-1.77,2.81-3.84,4.91-6.21.74,4.1,1.26,8.02,1.57,11.76.31,3.74.45,7.11.41,10.09-.04,2.99-.17,5.53-.39,7.62ZM109.01,98.73c-.21,1.52-.37,3.07-.52,4.63-.11-.68-.24-1.37-.38-2.07-.42-2.1-1.07-4.96-1.95-8.6-.86-3.7-1.51-6.85-1.96-9.47-.45-2.62-.76-5.76-.94-9.42-.17-3.66-.12-7.93.15-12.79.17,4.93.86,8.92,2.09,11.97.79,1.92,1.83,3.76,3.12,5.54l1.96,5.92c2.25-3.19,4.03-5.84,5.37-7.99-3.49,6.35-5.83,13.78-6.95,22.28Z"/>
        <path class="cls-1" d="M224.24,108.79c-1.16-3.66-3.12-7.37-5.85-11.13l-14.76,6.69c1.52,3.3,2.7,6.1,3.54,8.4.85,2.3,1.61,4.83,2.28,7.61.67,2.78,1.05,5.44,1.14,8-2.51-2.1-4.57-3.97-6.19-5.6-1.6-1.64-3.24-3.58-4.91-5.83-1.66-2.25-3.13-4.74-4.42-7.45-1.28-2.71-2.16-5.59-2.65-8.63-.49-3.04-.39-6.16.27-9.39.64-3.22,2-6.37,4.06-9.45l2.01,10.68,13.13-5.39c-.63-3.27-1.01-6.03-1.15-8.28-.14-2.25-.05-4.72.27-7.4.31-2.68.97-5.24,1.98-7.68l-5.4-4.68c-.1,3.52-.14,6.56-.11,9.13.02,2.57.14,5.3.36,8.16-2.42-7.96-4.02-16.92-4.89-26.88l-24.6,9.55c.44,4.1.41,7.91-.11,11.44-.54,3.53-1.47,7.71-2.81,12.55-1.22,4.38-2.11,7.98-2.66,10.81-.56,2.83-.64,5.87-.26,9.11.02.14.04.27.06.41l-8.93-.56.5,6.84c-.61-4.56-1-8.24-1.17-11.03-.18-2.79-.2-5.89-.08-9.29.11-3.4.53-6.63,1.23-9.68.69-3.05,1.75-5.36,3.16-6.93l-10.76-16.42-4.58-2.36c-1.43,5.39-2.7,9.69-3.78,12.89-1.11,3.2-2.37,6.27-3.8,9.19-1.45,2.93-2.89,5.03-4.3,6.33l3.16,6.47c1.66-2.15,2.91-4,3.73-5.54.53-1,.97-2.03,1.34-3.1-1.03,3.75-1.49,7.81-1.36,12.2.14,5.08.7,9.73,1.69,13.94,1,4.21,2.54,9.66,4.63,16.34.51,1.6.89,2.81,1.15,3.61l26.77,4.3c-1.55-2.93-2.8-5.58-3.75-7.96-.94-2.37-1.85-5.23-2.73-8.56-.7-2.69-1.27-5.53-1.7-8.51.62,2.46,1.72,5.01,3.3,7.66,2.18,3.59,5.54,7.4,10.13,11.41,4.96,4.26,9.67,7.15,14.08,8.67,4.44,1.52,8.29,2.09,11.52,1.73,3.22-.36,5.78-1.1,7.66-2.21,1.87-1.11,3.08-2.08,3.64-2.91.52-.8,1.08-2.18,1.67-4.14.58-1.96.89-4.39.93-7.31.03-2.91-.54-6.2-1.71-9.85Z"/>
      </g>
    </g>
  </g>
</svg>