<?xml version="1.0" encoding="UTF-8"?>
<svg id="Capa_2" data-name="Capa 2" xmlns="http://www.w3.org/2000/svg" viewBox="0 0 235.84 143.39">
  <defs>
    <style>
      .cls-1 {
        fill: #fff;
      }
    </style>
  </defs>
  <g id="Capa_1-2" data-name="Capa 1">
    <g>
      <g>
        <path class="cls-1" d="M63.71,0h7.5c.3,0,.53.16.69.49.16.33.2.72.12,1.17l-6.99,39.61c-.08.45-.27.84-.58,1.16-.31.33-.63.49-.98.49h-8.46c-.34,0-.61-.17-.79-.5-.18-.33-.22-.71-.13-1.17l3.95-19-5.13,8.83c-.29.49-.64.87-1.06,1.13-.42.27-.81.4-1.18.4h-3.08c-.51,0-.89-.19-1.14-.55-.25-.37-.38-.69-.4-.98l-1.11-8.83-4.71,19c-.11.45-.33.84-.66,1.16-.33.33-.67.49-1.01.49h-8.46c-.34,0-.59-.17-.75-.5-.16-.33-.17-.71-.05-1.16L40.37,1.65c.13-.45.34-.84.65-1.16.31-.33.61-.49.92-.49h7.5c.76,0,1.22.55,1.36,1.65l2.05,14.71L61.6,1.66c.64-1.1,1.35-1.66,2.11-1.66Z"/>
        <path class="cls-1" d="M80.8,30.97h18.01c.33,0,.6.17.82.5.22.33.31.72.27,1.17l-.68,8.65c-.04.45-.19.84-.46,1.17-.28.33-.58.49-.93.49l-29.54-.02c-.34,0-.61-.16-.81-.49-.19-.33-.25-.72-.18-1.17L74.05,1.66c.08-.45.25-.84.53-1.17.27-.33.56-.49.86-.49h25.51c.3,0,.55.16.74.49.19.33.27.72.24,1.17l-.69,8.65c-.04.45-.18.84-.43,1.17-.25.33-.54.49-.85.49h-16.57s-.52,3.86-.52,3.86h14.4c.32,0,.57.17.78.49.2.33.28.72.24,1.17l-.69,7.97c-.04.45-.19.84-.46,1.17-.27.33-.56.49-.89.49h-14.91s-.52,3.86-.52,3.86Z"/>
        <path class="cls-1" d="M105.41,0h28.29c.3,0,.56.16.79.49.23.33.35.72.36,1.17l.27,9.88c.01.45-.09.84-.31,1.17-.22.33-.49.49-.8.49h-9.2s-.14,28.1-.14,28.1c0,.45-.13.84-.38,1.17-.25.33-.55.49-.89.49h-9.63c-.34,0-.63-.17-.87-.5-.24-.33-.34-.72-.33-1.17l1.12-28.1h-9.2c-.31,0-.57-.17-.78-.49-.2-.33-.29-.72-.26-1.17l.71-9.88c.03-.45.17-.84.41-1.17.24-.33.51-.49.81-.49Z"/>
        <path class="cls-1" d="M145.65,42.97h-8.83c-.28,0-.53-.14-.74-.41-.21-.27-.32-.52-.32-.77s0-.43.03-.55l7.95-39.22c.17-1.35.75-2.03,1.73-2.03h11.4c.98,0,1.67.68,2.06,2.03l14.26,39.24c.05.12.09.31.12.55s-.03.5-.2.77c-.17.27-.39.4-.67.4h-8.83c-1,0-1.77-.7-2.31-2.09l-1.58-4.3h-11.2s-.89,4.29-.89,4.29c-.32,1.39-.98,2.09-1.98,2.09ZM156.3,24.62l-4.17-12.77-2.12,12.77h6.29Z"/>
        <path class="cls-1" d="M187.41,30.41h15.37c.33,0,.65.17.97.5.32.33.53.72.63,1.17l2.13,9.28c.1.45.07.84-.11,1.17-.17.33-.43.49-.78.49l-27.3-.02c-.34,0-.66-.16-.96-.49-.3-.33-.48-.72-.54-1.17l-5.73-39.68c-.07-.45-.01-.84.16-1.17.17-.33.41-.49.71-.49h8.86c.3,0,.59.16.87.49.28.33.46.72.54,1.17l5.19,28.75Z"/>
      </g>
      <g>
        <path class="cls-1" d="M64.39,86.43c2.4-3.53,4.85-6.65,7.33-9.37,2.46-2.71,4.83-4.65,7.14-5.8l1.38-16.29-2.96-3.71c-4.46,5.01-8.18,8.97-11.1,11.87-2.96,2.91-5.99,5.64-9.09,8.21-3.14,2.57-5.77,4.33-7.88,5.29l-1.22,7.42c2.93-1.76,5.26-3.31,7-4.64,1.73-1.33,3.31-2.78,4.73-4.36-2.86,3.15-5.23,5.94-7.08,8.38-1.87,2.44-3.77,5.3-5.7,8.57-1.95,3.27-3.6,6.68-4.92,10.21l-8.67-1.99c1.19-2.05,2.73-4.53,4.61-7.42,1.85-2.82,3.23-6.11,4.17-9.87.93-3.76,1.53-7.55,1.79-11.39.28-3.84.37-7.36.29-10.58-.07-3.21-.3-7.15-.69-11.8l-19.34,16.65c1.46,1.51,2.55,3.72,3.26,6.63.74,2.91.6,6.32-.45,10.24-1.05,3.92-3.45,7.94-7.24,12.08-.36.42-.75.88-1.16,1.4-4.51-1.52-6.92-2.72-7.25-3.62L0,106.49l10.93.74c-2.03,3.47-3.74,6.96-5.11,10.47-1.38,3.52-2.44,6.78-3.19,9.8-.74,3.02-1.26,5.67-1.55,7.95-.29,2.28-.46,4.93-.51,7.95l30.03-17.39c-1.16-3.86-1.83-7.09-2.03-9.71-.19-2.62.14-5.24.98-7.88l9.42.64-6.08,15.84,20.08,7.6c.69-3.31,1.44-6.26,2.25-8.84.81-2.58,1.97-5.65,3.47-9.2,1.49-3.55,3.3-7.28,5.43-11.2l-8.12-2.9-4.18,6.98c2.55-4.72,4.67-8.5,6.37-11.34,1.68-2.84,3.75-6.03,6.19-9.56Z"/>
        <path class="cls-1" d="M153.99,130.78c-.56-2.28-.88-4.91-.97-7.89-.08-2.97.19-6.17.82-9.57l-18.84,1.9c-.36,6.56.44,12.06,2.46,16.5l-4.93-1.26c-.94-2.44-1.38-6.19-1.34-11.24.04-5.05.68-10.45,1.88-16.2,1.17-5.75,2.98-11.06,5.41-15.91,2.37-4.85,5.34-8.4,8.93-10.65l-11.65-22.55-5.93-11.38c.37,9.33-2.31,17.63-4.3,21.05-2.02,3.42-4.2,6.68-6.52,9.76-.45.58-.88,1.12-1.31,1.64-.78-1.13-1.48-2.29-2.09-3.47-1.33-2.64-2.29-5.16-2.91-7.57-.61-2.41-.98-4.58-1.13-6.51-.14-1.93-.13-4.21.03-6.85l-2.65,1.01-.38.14-.34.14-23.45,9.48c-.59,3.18-1.19,5.88-1.81,8.1-.62,2.22-1.44,4.65-2.46,7.3-1.03,2.65-2.32,5.3-3.87,7.95-1.57,2.65-3.36,5-5.39,7.05-3.2,3.24-5.2,6.89-5.94,10.96-.75,4.06-.47,8.19.88,12.36,1.39,4.18,3.5,8.12,6.36,11.82,2.91,3.7,6.17,6.86,9.78,9.49,3.65,2.63,7.16,4.39,10.51,5.3,3.36.91,6.04.72,8.01-.56,4.91-3.27,8.56-8.09,10.94-14.47.41-1.12.75-2.26,1.04-3.42.16,4.34.53,8.8,1.14,13.38,13.68,6.55,28.83,8.23,44.97,5.04-1.3-1.87-2.31-3.57-3.03-5.12-.71-1.54-1.36-3.46-1.92-5.74ZM94.68,117.9c-.23,2.19-.63,4.63-1.2,7.33-1.76-1.26-3.25-2.58-4.47-3.96-1.21-1.38-2.43-3.19-3.65-5.4-1.49-2.67-2.21-5.38-2.18-8.13.03-2.75.52-5.33,1.47-7.74.93-2.41,2.02-4.54,3.25-6.38,1.22-1.85,2.93-4,5.13-6.48.77,4.28,1.32,8.37,1.63,12.27.33,3.91.47,7.42.43,10.54-.04,3.12-.17,5.77-.4,7.95ZM113.78,103.06c-.22,1.59-.39,3.2-.54,4.83-.12-.71-.25-1.43-.4-2.16-.43-2.19-1.12-5.18-2.03-8.97-.9-3.86-1.58-7.15-2.05-9.89-.46-2.73-.79-6.01-.98-9.84-.18-3.82-.13-8.28.16-13.36.18,5.14.9,9.31,2.19,12.49.82,2,1.91,3.93,3.26,5.78l2.04,6.18c2.35-3.33,4.21-6.1,5.61-8.33-3.64,6.63-6.08,14.38-7.26,23.26Z"/>
        <path class="cls-1" d="M234.06,113.55c-1.21-3.82-3.26-7.69-6.11-11.62l-15.4,6.98c1.58,3.45,2.82,6.37,3.7,8.77.88,2.4,1.68,5.05,2.38,7.94.7,2.9,1.1,5.68,1.19,8.35-2.62-2.19-4.77-4.14-6.46-5.85-1.67-1.71-3.38-3.74-5.13-6.09-1.73-2.35-3.27-4.94-4.62-7.78-1.34-2.83-2.26-5.83-2.77-9-.51-3.17-.41-6.43.28-9.8.67-3.36,2.09-6.65,4.24-9.86l2.1,11.15,13.71-5.63c-.66-3.41-1.06-6.29-1.2-8.64-.15-2.35-.05-4.92.28-7.72.32-2.8,1.01-5.47,2.07-8.01l-5.64-4.88c-.11,3.67-.15,6.85-.12,9.53.02,2.69.15,5.53.38,8.52-2.52-8.31-4.2-17.66-5.11-28.05l-25.68,9.97c.46,4.28.43,8.26-.11,11.94-.56,3.68-1.53,8.05-2.93,13.1-1.28,4.57-2.21,8.33-2.77,11.29-.58,2.96-.67,6.13-.27,9.5.02.14.04.28.07.43l-9.32-.58.52,7.14c-.64-4.76-1.04-8.6-1.22-11.51-.18-2.91-.21-6.14-.08-9.7.12-3.55.55-6.92,1.29-10.11.72-3.18,1.82-5.6,3.3-7.23l-11.24-17.14-4.78-2.47c-1.49,5.63-2.81,10.11-3.94,13.46-1.15,3.34-2.48,6.54-3.97,9.6-1.52,3.05-3.02,5.25-4.49,6.6l3.29,6.76c1.74-2.25,3.03-4.18,3.9-5.78.56-1.04,1.01-2.12,1.39-3.23-1.07,3.91-1.55,8.15-1.42,12.74.15,5.31.73,10.16,1.77,14.55,1.05,4.39,2.65,10.08,4.84,17.06.53,1.67.93,2.93,1.2,3.76l27.94,4.48c-1.62-3.06-2.92-5.83-3.91-8.31-.98-2.48-1.93-5.46-2.85-8.93-.74-2.8-1.32-5.77-1.77-8.89.65,2.56,1.79,5.23,3.45,8,2.27,3.75,5.78,7.72,10.57,11.91,5.18,4.45,10.09,7.47,14.7,9.05,4.63,1.58,8.65,2.19,12.02,1.81,3.36-.38,6.03-1.15,8-2.3,1.96-1.16,3.22-2.17,3.8-3.03.55-.84,1.13-2.27,1.74-4.32.6-2.04.93-4.58.97-7.63.03-3.04-.56-6.47-1.78-10.28Z"/>
      </g>
    </g>
  </g>
</svg>