<?xml version="1.0" encoding="UTF-8"?>
<svg id="Capa_2" data-name="Capa 2" xmlns="http://www.w3.org/2000/svg" viewBox="0 0 301.34 68.48">
  <defs>
    <style>
      .cls-1 {
        fill: #ffdf00;
        stroke: #1d1d1b;
        stroke-miterlimit: 10;
        stroke-width: .5px;
      }

      .cls-2 {
        fill: #e30613;
      }
    </style>
  </defs>
  <g id="Capa_1-2" data-name="Capa 1">
    <g>
      <path class="cls-1" d="M300.49,44.8c.65-2.71-.13-5.58-2.09-7.61-.57-.58-1.03-1.27-1.45-2.52.35-1.35.35-2.8-.04-4.21-.69-2.5-2.5-4.47-4.8-5.41-.64-.61-1.37-1.13-2.18-1.55.06-.74.23-1.46.55-2.14,1-2.11,1.03-4.52.16-6.63-.03-.19-.06-.39-.1-.61-.63-3.55-3.5-6.27-7.08-6.7-.08,0-.16-.02-.24-.02-.02-.04-.03-.07-.05-.11-.19-.44-.39-.9-.58-1.37-1.03-2.54-3.25-4.4-5.93-4.95-.55-.12-1.11-.17-1.66-.17-2.13,0-4.2.83-5.75,2.36,0,0,0,0-.01.01-3.08.44-5.9,1.27-8.49,2.05-2.41.52-4.7,1.25-7.05,2.23-.36-.29-.74-.57-1.11-.85-1.4-1.03-3.07-1.58-4.77-1.6-1.01-.34-2.16-.58-3.4-.58-.83,0-1.63.1-2.4.3-.36-.05-.72-.07-1.08-.07-1.68,0-3.28.53-4.62,1.45-1.1-1.3-2.58-2.24-4.28-2.67-.44-.11-.88-.18-1.33-.22-1.83-1.11-4.2-2.17-7.13-2.43-.24-.02-.48-.03-.72-.03-1.94,0-3.78.69-5.22,1.88-1.58-1.58-3.68-2.39-5.79-2.39-1.64,0-3.29.49-4.72,1.5l-2.59,1.83c-1.71.41-3.37.97-5.01,1.68-.79.14-1.53.35-2.22.6-.94-1.22-2.21-2.16-3.71-2.7-.9-.33-1.84-.49-2.78-.49-1.83,0-3.63.61-5.11,1.79-1.96,1.56-3.87,3.62-5.68,6.13-.21.17-.42.33-.65.5,0-.01-.02-.02-.03-.03-.36-.72-.46-1.05-.46-1.2-.1-3.44-2.34-6.46-5.61-7.54-.93-.31-1.9-.46-2.9-.46-2.6,0-4.71,1.04-6.03,1.92-1.08.72-1.98,1.68-2.61,2.81-.18.32-.58.58-.87.75-.15.08-.3.17-.45.26-2.36,1.5-4.14,3.32-5.62,5.14-.53-.55-1.14-1.04-1.83-1.43l-3.44-1.98c-1.19-.69-2.53-1.06-3.9-1.09l-3.23-.07c-.12-.11-.25-.21-.38-.31-1.44-1.07-3.16-1.64-4.91-1.64-.84,0-1.69.13-2.51.39-.68.22-1.75.66-2.81,1.48-.84.22-1.54.53-2.14.86-.74-.39-1.48-.7-2.21-.96-1.51-2.03-3.93-3.29-6.56-3.29-.11,0-.22,0-.33,0-.18,0-.35.02-.52.03-.95-.46-1.99-.73-3.08-.8-.16,0-.32-.01-.48-.01-2.56,0-4.98,1.2-6.54,3.26,0,0-.54.69-.7.9-.85-.29-1.75-.45-2.67-.45-.35,0-.71.02-1.07.07l-1.11.15c-1,.13-1.96.45-2.84.92-.45-.08-.91-.11-1.37-.11-.94,0-1.89.16-2.79.49-.23.08-.44.12-.67.12-.31,0-.68-.06-1.1-.19-.67-.2-1.36-.32-2.06-.35l-4.14-.16c-1.4-.57-3.21-1.11-5.31-1.11-.13,0-.27,0-.4,0-1.52-1.41-3.51-2.18-5.57-2.18-.57,0-1.15.06-1.73.18-.43.09-.84.22-1.24.37-2.02.3-3.59,1.02-4.62,1.49-.03.01-.06.03-.09.04-.05,0-.1,0-.15,0-.29,0-.58.01-.86.03-.79-.16-1.59-.23-2.4-.23-1.77,0-3.24.37-4.21.62-.21.05-.41.11-.61.15-.09.01-.18.03-.26.05-1.03.2-1.91.34-2.68.42-1.47-1.23-3.33-1.9-5.25-1.9-.56,0-1.12.06-1.68.17-.77.16-1.46.4-2.07.67-1.28-.23-2.74-.44-4.33-.44s-3.23.23-4.72.68c-.21.06-.41.13-.61.21l-.83-.13c-.41-.06-.82-.09-1.22-.09-1.64,0-3.2.49-4.52,1.36-2.04-1.5-4.2-1.66-5.02-1.66-.44,0-.88.03-1.32.1-.92.04-1.87.24-2.78.61-.61.02-1.2.1-1.76.24-.57-.04-1.16-.06-1.78-.06-2.11,0-4.03.29-5.81.88-.93-.22-2.16-.46-3.62-.46-.93,0-1.86.1-2.77.3-3.15.69-5.6,3.15-6.27,6.3-.67,3.15.58,6.4,3.17,8.3.46.33.89.68,1.32,1.03.47.37.98.78,1.54,1.21-.15,1.43-.48,2.34-.91,3.17-.36.69-.62,1.42-.77,2.18-.35,1.75-.92,3.53-1.52,5.42-.82,2.56-1.74,5.47-2.23,8.72-.04.24-.06.48-.08.72-.03.44-.34,1.15-.58,1.65-.25.54-.45,1.1-.58,1.67-.89,1.53-3.21,5.56-1.34,10.6,1.19,3.23,4.26,5.35,7.68,5.35.12,0,.24,0,.37,0,1.65-.07,3.19-.64,4.46-1.56l.42-.06c1.54.81,3.24,1.23,4.99,1.23,2.43,0,4.81-.84,6.81-2.35.02,0,.05-.01.07-.02,1.37.94,2.99,1.45,4.66,1.45,1.04,0,2.09-.2,3.1-.61.08-.03.19-.07.35-.11.82,1.09,1.91,1.98,3.21,2.56,1.07.48,2.21.71,3.34.71,1.97,0,3.91-.71,5.44-2.07.77-.68,1.38-1.28,2.02-1.97.5-.41.86-.47,1.18-.47.09,0,.19,0,.3.02.32.04.64.06.96.06,1.07,0,2.14-.21,3.13-.62.41.13.84.24,1.26.3l6.04.96c.43.07.86.1,1.28.1.85,0,1.7-.13,2.49-.39,1.15.25,2.42.5,3.76.66.33.04.67.06,1.01.06.16,0,.31,0,.47-.01.96.38,2,.58,3.04.58.11,0,.22,0,.33,0,1.02,1.17,2.38,2.05,3.95,2.49.81.23,1.65.34,2.48.34,2.17,0,4.13-.73,5.71-2.01h.1c.89,0,1.78-.14,2.65-.44.1-.03.19-.07.29-.1.21.01.41.02.63.03.05,0,.11,0,.16,0,.37,0,.74-.02,1.1-.07,1.63-.22,3.44-.96,4.9-2.35l.08.04c1.27.69,2.68,1.06,4.12,1.06,1.18,0,2.31-.24,3.34-.68.43.14.88.25,1.34.32,1.22.69,2.6,1.05,4.02,1.05.41,0,.83-.03,1.24-.09,1.68-.26,4.22-1.06,6.13-3.45,1.54,1.51,3.6,2.35,5.74,2.35.21,0,.42,0,.63-.02l.53-.04c.54-.04,1.07-.14,1.58-.28l3.1.49c1.17.48,2.42.73,3.67.73.77,0,1.54-.09,2.28-.28,1.05-.26,2.03-.74,2.89-1.38.32.05.65.07.97.08,0,0,10.84.25,10.9.25.44,0,.87-.03,1.3-.1.39-.06.82-.09,1.29-.09s.97.03,1.51.08c.28,1.51.99,2.94,2.1,4.12,1.59,1.68,3.76,2.55,5.94,2.55,1.46,0,2.94-.39,4.26-1.19.05,0,.1,0,.16,0,1.73,0,3.46-.55,4.92-1.64,1.3-.09,2.57-.49,3.71-1.18,1.04-.63,1.9-1.48,2.56-2.47.58.13,1.16.19,1.75.19.89,0,1.77-.14,2.63-.43,1.07.91,2.37,1.55,3.8,1.81.4.28.83.57,1.29.86,1.32.82,2.82,1.24,4.33,1.24.96,0,1.92-.17,2.84-.51,2.37-.88,4.21-2.81,4.97-5.22.05-.16.09-.31.14-.47,3.89,2.38,8.48,4.8,13.9,6.42.77.23,1.56.34,2.34.34,1.68,0,3.33-.52,4.73-1.5.85-.18,1.66-.48,2.39-.9,2.42,2.05,5.52,2.45,7.57,2.46h.02c.62,0,1.24-.07,1.84-.21,2.93-.68,5.18-.98,7.29-.98.5,0,.99.02,1.48.05.2.01.4.02.6.02.38,0,.77-.03,1.14-.08l5.54-.78c.55.12,1.18.2,1.87.2,1.92,0,3.73-.63,5.21-1.76.9-.49,1.6-1.07,2.18-1.67,1.08.1,1.91.24,2.69.47.74.21,1.51.32,2.27.32.04,0,1.42-.02,1.42-.02.65.31,1.34.53,2.06.66.48.09.97.13,1.45.13,1.48,0,2.93-.4,4.2-1.16.81.29,1.64.53,2.48.7.24.05.49.09.74.12.88.1,1.75.23,2.61.36,2.23.33,4.53.67,7.03.67,1.87,0,3.59-.19,5.26-.59,1.17-.28,2.25-.8,3.18-1.54,1.6-.46,4.52-1.31,6.89-4.15.79-.95,1.35-2.06,1.65-3.23.33-.41.62-.86.86-1.34.76-1.47,1.67-4.18.45-7.45Z"/>
      <path class="cls-2" d="M132.08,49.77c-1.32-5.24-2.69-10.04-2.61-15.34-.97-3.68-1.53-7.23-1.72-10.69-1.11-.75-.44-2.29-.84-3.32.63.62.19,1.59,1.07,1.52.11-1.38-1.07-2.17-1.17-3.42l-.09-.9.9-.06c-1.55-1.62-3.24-2.07-5.6-2.48-1.62.18-3.31.67-5.02-.53,1.29-.46,2.57-1,3.87-1.67-1.84.07-3.16,1.32-5.03,1.25.03-.81,1.18-1.09.63-2.03-.62.82-1.39,1.67-1.65,2.63-.71,1.38-2.81,2.29-4.43,1.78-.03,1.07.51,1.75,1.36,2.52-1.53,2.23-2.76,4.27-3.87,6.79-.12-.34-.01-.88.22-1.36-.73.07-1.62-.06-2.24-.42.31-2.21,1.3-4,1.16-6.08l-.63.38c-.2.15-.3.21-.31.22l.02-.68.69-.23.96-.11.09-.44-.95-.17-.34-1.12-1.11.15c-1.46,1.52-3.27,1.61-5.27.88-2.29.83-4.58.78-6.92.07l-5.72-.22c-1.59-.75-3.15-1.46-4.88-.76.63.61,1.02.88,1.67,1.35-.87.37-1.69-.05-2.46-.65-1.36-1.03-2.74-2.01-3.72-3.16l-.34,1.16c-.24-.27-.36-.22-.89.05,0,.02.05-.39.11-.79-2.15,0-3.71,1.62-5.84,1.76-2.16-.47-3.97,1.07-6.19.48,1.08-.21,2.19-.25,3.24-.6-1.66-.51-3.15.24-4.73.49-3.49.67-6.9,1.02-10.34.09l.86-1.43c-.95.2-1.04,1-1.64,1.35-2.93-.36-5.86-1.5-8.78-.61,1.94.23,3.91-.37,5.88.8-1.89.48-3.8.62-5.78.52.1-.48.21-.77-.46-.64-.38-.03-1.18-.13,0,.36l-4.66-.7,1.77.99-3.94.55c1.27.54,2.27,0,3.65.05-.18.74-.72,1.47-1.44,1.76l.48-1.14c-.63.54-1.78,1.16-.82,1.98-1.95,1.84-2.75,4.79-5.22,6.61,1.14-2.1,2.49-3.83,3.81-5.61-.8,0-.41,1.03-1.38,1.12-.01-1.44,1.71-2.26,1.39-3.92l-3.87,6.97s.07.05.07.09c0,.05-.04.09-.09.09-.02,0-.04,0-.06-.02l-1.55,2.78c-.9-3.5-.73-7.11-1.03-10.93-.53,2.43.38,4.83.04,7.27-.97-2.64-.95-5.12-.59-7.37-.54.31-.31-.83-.27-1.03-.49-.96-.63-.3-1.11-.32-.96-.47-.22.74-1.13,1.31-.32-.75-3.47-1.21-1.78-.31-2.56-.22-5.66-.82-8.45.62-1.86.67-3.7-.93-6.11-.4,1.66,1.21,3.08,2.58,4.98,3.64.49.9,1.51,2.14,1.33,3.14,0,3.46-.48,6.23-1.93,9.01-.96,4.81-2.96,8.96-3.68,13.74-.1,1.74-.69,3.26-1.35,4.66-.1,1.98-2.54,3.51-1.64,5.93l.8-2.96c.44.42.75.54,1.26.69-.63.24-1.21.47-1.23,1.16l10.79-1.45c-.6.33-1.1.45-1.71.63-.42-.05-.83-.32-.97.59,0,.18.77.6-.3.4,1.55,1.14,3.36.36,4.44-1.17.53-.05.9-.11,1.58-.28-.1-.28-.12-.54.19-.75l1-.27c.12.01-.04-.11-.26-.2l-.75-.25c-.27-3.44-.64-6.8-.49-10.24,1,.86-.46,2.05.59,2.74l.46-5.06c.37,1.27.87,2.37,1.62,3.63l-1.51,2.45c1.19-.31,1.06-1.42,1.95-1.9l1.29,4.4c.87-.28.63.93,1.57.73-.93-1.84-.41-3.87,1.15-5.09l2.23-2.13c-.35.96-1.05,1.64-.8,2.77l.96-1.65c-.16,1.41-.66,2.76-.32,4.04.78-1.47.2-3.03.95-4.23,1.12-.6-.12-2.16,1.42-2.66-.29,2.02-.73,3.91-1.32,5.66v-1.27c-.63,2.65-1.58,5.25-2.63,8.1l-.9,1.1.7,1.14c2.53-1.04,6.21-1.18,9.71-.45l1.68-.18c-.67,1.21-1.39,1.89-1.38,3.19.71-.63,1.18-1.1,1.71-1.69l-.95.35c.03-.1.18-.55.21-.64.49-.12.78-.15,1.2-.12,2.16-1.82,4.8-2.69,7.74-2.34,1.82-.87,3.74-1,5.67-.22l6.04.96c-.56-1.27-1.88-.56-2.67-1.29,3.48.05,6.58,1.21,9.94,1.62,1.19-.73,2.51-.44,3.51.57,1.29-.44-.72-.58.2-1.26l-1.46-.44c.44-1.05,1.25.01,2.41-.1-1.31-1.59-2.5-2.73-2.84-4.9.17-2.14,1.2-4.21,2.8-6.04-.51-.55-1.43-.48-2.05-.07.3-.99,1.47-.89,1.54-1.97-5.68,1.45-11.35,2.64-17.07,1.97l-.46-.81c.08-.02.25-.06.29-.07l.55.25,1.02-.86,1.33.54c2.13-.83,4.25-1.07,6.29-1.01.5-1.4,2.15-.11,3.24-.62.58-.24.97-.77,1.38-1.42l4.33-.37c-.55-1.85-2.07-2.63-2.69-3.99.76-.75-.48-1.86-.06-2.76.16-.24.37-.59.35-.65l-.82-.96c1.58.27,3.51-.21,5.08.91,1.92-1.25,4.53-1.13,7.38-1.63l-.51,4.64-4.81,20.3,1.43.68-1.1.87c1.21.37.75,1.49.73,2.54.77.22,1.21-.46,1.42-1.28,1.53.11,2.26-.89,3.28-2.18l1.4,1.49c.08-.81.08-1.35.22-1.5h1.88c.22.96.97.97,1.63.99.73-.1.55-.97.7-1.69l1.08-.24.08-.56-.77-.45c.18-.85.57-.87,1.09-.55.54.26.56.67.81,1.37l.44-.68c.14.07.38.15.61.19l.55-10.98,1.54-10.3,4.67-2.6c1.62.05,3.17-.31,4.27-1.56.67-.35,1.46-.63,2.23-.72-1.34,3.69-2.55,7.2-2.81,10.99-1.37,1.9-1.21,4.21-2.54,5.91-1.44,1.83-1.35,4.28-2.73,6.19l-.34.95-1.58-.17c.14.52.42,1.2.7,1.8l2,.51-.89.74.85.43c.3.19.53.04.73-.44l5.89-.77-.47,1.02c1.23-.07,2.21-.66,3.31-1.33l-.52,2.29c1.42-.22,1.41-1.43,1.7-2.5.79-1.04.97-1.98.89-3.52h8.14c.5.29,1.2.24,1.4.93-.21.16-.63.52-.6.86l.95.74c.09.18.34.33-.41.2l-.55.3c1.07.49,1.67.6,1.6,1.8l.53-.04.09-.74,7.83,1.24c.45.37.94.49,1.35.39.4-.41.55-.67.72-1.26l-.86-.93-.45-5.77c.65,1.04.15,2.73,1.76,2.94ZM35.08,22.42l-.04.27-.09.27-.22-.04.34-.5ZM34.31,23.85c.07,0,.12.05.12.12s-.05.12-.12.12-.12-.05-.12-.12.05-.12.12-.12ZM9.74,53.8l-.03-.18.41-.56.02.4-.39.34ZM22.97,17.34v.23s-.52-.12-.52-.12l.52-.11ZM21.64,17.12c-1.63.35-2.8.24-4.16.25,1.43-.36,2.79-.54,4.16-.25ZM18.8,23.4c.05,0,.09.04.09.09s-.04.09-.09.09-.09-.04-.09-.09.04-.09.09-.09ZM18.61,22.58c-.07,0-.12-.05-.12-.12s.05-.12.12-.12.12.05.12.12-.05.12-.12.12ZM18.86,21.53l.35.14.28.33-.44.04-.2-.51ZM19.32,20.99l-.31-.36.56-.08.1.31-.34.13ZM19.53,19.95l-.37-.45.56-.08.13.41-.32.12ZM18.65,18.28l-.07.27-.39-.41.46.15ZM15.77,18.11c.05,0,.09.04.09.09s-.04.09-.09.09-.09-.04-.09-.09.04-.09.09-.09ZM15.44,18.07c-1.42-.03-2.62-.27-3.55-1.13l3.55,1.13ZM15.45,19.96l-.53-.51.71.08.43.4-.61.03ZM15.77,19.07l-.66-.32.75-.14c.25.13.3.18.54.61l-.62-.16ZM17.97,18.44l-1.55-.22c.6-.18,1.17-.23,1.55.22ZM16.61,18.83l.4-.04.27.59c.17-.41.47-.6.95-.6.49.02.84.27.92.86-.79.67-1.76.3-2.52-.24l-.02-.57ZM17.89,21.28l.28.33-.44.04-.2-.51.35.14ZM17.83,20.66c0-.07.05-.12.12-.12s.12.05.12.12-.05.12-.12.12-.12-.05-.12-.12ZM18.32,23.56l-.27,2.28c-.3-.73-.23-1.55.27-2.28ZM16.63,20.19l.38.07.19.23-.29.09-.27-.39ZM17.19,21.3c-.09,0-.16-.07-.16-.16s.07-.16.16-.16.16.07.16.16-.07.16-.16.16ZM16.15,33.87c.07,0,.12.05.12.12s-.05.12-.12.12-.12-.05-.12-.12.05-.12.12-.12ZM15.59,53.4c-.77.34-1.65.43-2.44.17l2.44-.17ZM13.76,39.72c.08,0,.14.06.14.14s-.06.14-.14.14-.14-.06-.14-.14.06-.14.14-.14ZM13.5,40.3c.07,0,.12.05.12.12s-.05.12-.12.12-.12-.05-.12-.12.05-.12.12-.12ZM13.29,40.91c.14,1.7-.44,3.29-.62,5.01.04,1.41-.47,2.71-1.29,3.67l1.92-8.68ZM12.96,53.71l-.22.13-.42.16.15-.35.48.06ZM10.95,52.04l.22.39-.22.41-.24-.03.24-.77ZM11.42,53.66c-.12.18-.63.49-.86.47l.95-1.58-.1,1.11ZM11.49,51.72c-.63-.88.29-1.32.51-1.79-.11.82-.23,1.4-.51,1.79ZM12.28,54.72c.59-.68,1.57-.83,2.47-.77l-2.47.77ZM15.5,54.31l4.09-1.1c1.32-.59.7-2.01,1.79-3.21-.17,1.3-.42,2.5-.79,3.93-1.67.19-3.17.48-5.09.37ZM19.91,18.96c0-.07.05-.12.12-.12s.12.05.12.12-.05.12-.12.12-.12-.05-.12-.12ZM21.24,49.74l.74-3.22.61,4.11c-.41-.58-.64-.87-1.35-.89ZM19.24,55.98l-.78-.06-.27-.34.66-.27.69-.14.17.31-.48.51ZM20.15,55.65c-.02.14-.03.02-.04-.54l.65.18-.61.36ZM21.43,54.65l-.34-.34.56-.16.24.23-.46.26ZM23.31,53.26c-.24.76-1.53.8-1.97.5l.56-3.3,1.42,2.8ZM22.96,42.88c-.05,0-.09-.04-.09-.09s.04-.09.09-.09.09.04.09.09-.04.09-.09.09ZM23.14,42.31c-.05,0-.09-.04-.09-.09s.04-.09.09-.09.09.04.09.09-.04.09-.09.09ZM23.29,41.56c.03-.27.1-.55.27-1.12.05.39-.05.76-.27,1.12ZM23.62,40.07c-.07,0-.12-.05-.12-.12s.05-.12.12-.12.12.05.12.12-.05.12-.12.12ZM23.9,39.29c-.05,0-.09-.04-.09-.09s.04-.09.09-.09.09.04.09.09-.04.09-.09.09ZM19.8,18c1.77-.1,3.45-.02,5.13-.31-1.62.84-3.46.81-5.13.31ZM24.49,37c.15.64.1,1.14-.24,1.7-.13-.64-.05-1.18.24-1.7ZM24.28,40.25s-.03-.53.04-.27l.58-.26.05.45-.67.09ZM25.22,42.24c-.07,0-.12-.05-.12-.12s.05-.12.12-.12.12.05.12.12-.05.12-.12.12ZM25.6,18.49l-.28-.35.49-.04v.19s-.21.19-.21.19ZM27.79,17.98l-.11.36-.45-.33.56-.03ZM27.61,45.87c-.08.62-.14.32-.3,0l.13-.9c.39.06.63.11.71.17l-.54.74ZM28.25,16.34c-.07,0-.12-.05-.12-.12s.05-.12.12-.12.12.05.12.12-.05.12-.12.12ZM28.44,16.98c-.05,0-.09-.04-.09-.09s.04-.09.09-.09.09.04.09.09-.04.09-.09.09ZM32.77,29.32l-.55.56.1-.62c-.39.32-.27-.21-.21-.29l.52-.46-.13.56c.19.08.35.19.27.24ZM32.95,43.26v-.63s.15.34.15.34l-.15.29ZM32.16,28.17c.1-.69.56-1.19,1.27-1.44l-1.27,1.44ZM35.93,24.21c-.52,1.02-1.08,1.82-1.67,2.62.42-.99.95-1.9,1.67-2.62ZM35.72,51.29c0,.05-.04.09-.09.09s-.09-.04-.09-.09.04-.09.09-.09.09.04.09.09ZM34.27,40.45c.01-.51.34-.86.88-1.45l-.88,1.45ZM30.49,54.8l-.08-.6.4.09v.41s-.31.09-.31.09ZM31.18,54.5c.09-.7.2-1.17.48-2l.59.64-.65,1.01c1.01-1.08,2.2-1.03,4.04-.76l-3.38.94.58-.04.91.08c-.8.44-1.54.04-2.56.14ZM34.31,54.18l1.65-.57c-.06.74-.95,1.01-1.65.57ZM36.29,23.76c-.09,0-.16-.07-.16-.16s.07-.16.16-.16.16.07.16.16-.07.16-.16.16ZM37.42,54.06c-.07,0-.12-.05-.12-.12s.05-.12.12-.12.12.05.12.12-.05.12-.12.12ZM38.65,47.23c-.05,0-.09-.04-.09-.09s.04-.09.09-.09.09.04.09.09-.04.09-.09.09ZM39.88,54.81c-.07,0-.12-.05-.12-.12s.05-.12.12-.12.12.05.12.12-.05.12-.12.12ZM69.47,52.64c-.07,0-.12-.05-.12-.12s.05-.12.12-.12.12.05.12.12-.05.12-.12.12ZM70.98,52.73l-.51-.75.74.25.45.54-.69-.04ZM71.41,51.39c-.27-.22-.46-.55-.48-.95l.48.95ZM71.65,44.1l-.31.31-.21-.16.43-.43.09.29ZM71.25,42.38l-.86.89c-.13-.53.27-.77.86-.89ZM70.51,53.35l.19.23-.29.09-.27-.39.38.07ZM70.07,42.32c-.28.47-.54,1.17-1.48.77l1.48-.77ZM68.24,53.82c.07,0,.12.05.12.12s-.05.12-.12.12-.12-.05-.12-.12.05-.12.12-.12ZM66.64,43.07c.05,0,.09.04.09.09s-.04.09-.09.09-.09-.04-.09-.09.04-.09.09-.09ZM67.26,53.37c-1.07.24-2.22.25-3.44-.35,1.14-.11,2.15-.07,3.44.35ZM58.25,53.37c-.47.13-.93.02-1.36-.26l1.36.26ZM71.97,36.83c-.15-.18-.26-.4-.41-.75l.41.75ZM71.36,36.9c.07,0,.12.05.12.12s-.05.12-.12.12-.12-.05-.12-.12.05-.12.12-.12ZM75.9,21.13c.05,0,.09.04.09.09s-.04.09-.09.09-.09-.04-.09-.09.04-.09.09-.09ZM75.95,21.71l-.03,1.15c-.12-.27-.11-.59.03-1.15ZM75.33,20.95c.05,0,.09.04.09.09s-.04.09-.09.09-.09-.04-.09-.09.04-.09.09-.09ZM75.15,15.18c-.17.38-.36,1.11-1.25.79l1.25-.79ZM74.38,25.21l.38-1.04.34,1.45c-.69-.06-.64-.11-.72-.41ZM75.01,26.46l-.39.32-.32-.24.66-.53.06.44ZM74.1,17.64c0,.05-.04.09-.09.09s-.09-.04-.09-.09.04-.09.09-.09.09.04.09.09ZM72.95,15.59c.21-.03.48-.04.33,0l-.37.25c-.27-.03-.48,0,.04-.24ZM72.9,17.07c0,.07-.05.12-.12.12s-.12-.05-.12-.12.05-.12.12-.12.12.05.12.12ZM71.2,17.71l.39.26c.05-.01.05-.01-.18.04.03,0,.02,0-.32-.05-.2.22-.17.16.12-.25ZM70.42,17.92c.05,0,.09.04.09.09s-.04.09-.09.09-.09-.04-.09-.09.04-.09.09-.09ZM69.46,17.14l.3.12-.3.12-.49-.12.49-.12ZM69.61,28.59c-1.08.15-2.15.26-3.43-.15,1.1-.19,2.24-.27,3.43.15ZM68.82,16.61c-.98.41-1.88.75-3.31.89,1.03-.33,2.09-.65,3.31-.89ZM64.96,17.64c0,.07-.05.12-.12.12s-.12-.05-.12-.12.05-.12.12-.12.12.05.12.12ZM63.72,16.79l1.16.1-2.15.26.99-.35ZM64.49,17.64c-.59.21-1.15.3-1.75.23l.99-.31.76.08ZM60.88,17.53l1.35.1c-.67.19-1.28.28-1.95.27l.6-.37ZM62.4,28.79c-.3.06-.67.06-.97,0,.37-.04.7-.04.97,0ZM59.39,29.85l.54.29-.68.09-.61-.35.74-.02ZM57.99,28.59c.33-1.05,1.5-.91,2.34-.4-.34.78-1.76,1.03-2.34.4ZM59.74,29.32l.65-.07.29.32-.45.08-.49-.33ZM49.77,16.58l.53.31-.69.07c-.12-.06-.51.23.16-.38ZM49.92,18.71c-.28.51-.68.92-1.3,1.59.14-.5.11-1.74,1.3-1.59ZM48.6,20.79c.1,0,.18.08.18.18s-.08.18-.18.18-.18-.08-.18-.18.08-.18.18-.18ZM48.23,17.01c.1,0,.18.08.18.18s-.08.18-.18.18-.18-.08-.18-.18.08-.18.18-.18ZM47.06,17.18l.5-.02v.39s-.63-.01-.63-.01l.13-.35ZM47.42,26.29c-.2-.77.36-1.57,1.06-2.11l-1.06,2.11ZM47.47,28.13c0,.07-.05.12-.12.12s-.12-.05-.12-.12.05-.12.12-.12.12.05.12.12ZM46.21,17.35c.05,0,.09.04.09.09s-.04.09-.09.09-.09-.04-.09-.09.04-.09.09-.09ZM46.76,18.19c-.77,0-1.5,0-2.27-.14.73-.65,1.5-.29,2.27.14ZM45.64,36.81l.12.3-.2.22-.23-.04.32-.49ZM45.43,32.76c0-.07.05-.12.12-.12s.12.05.12.12-.05.12-.12.12-.12-.05-.12-.12ZM45.65,33.35c-.07,0-.12-.05-.12-.12s.05-.12.12-.12.12.05.12.12-.05.12-.12.12ZM45.72,32.39l.12-.68.11.29-.02.41-.21-.02ZM44.92,39.04s-.08-.17-.16-.33l.41.08-.26.25ZM44.81,43.92l-.02.41-.21-.02.12-.68.11.29ZM44.8,42.97c0-.05.04-.09.09-.09s.09.04.09.09-.04.09-.09.09-.09-.04-.09-.09ZM44.27,41.5s0,0,0,0h0ZM44.07,43.94c-.44-.76-.25-1.55.14-2.17.11.83.05,1.4-.14,2.17ZM44.28,41.49l-.06-.7.37.08-.18.41c-.07.11-.11.18-.13.21ZM44.61,44.74c.07,0,.12.05.12.12s-.05.12-.12.12-.12-.05-.12-.12.05-.12.12-.12ZM40.82,17.42l.53.02-.23.3-.35.13.05-.45ZM44.43,17.92c-1.22.55-2.46.15-3.59.32,1.04-.73,2.4-1.18,3.59-.32ZM43.04,46.59c-.55.31-.87.57-.63.08l.4-.94c-.12.64-.02.64.78.43-.25,1.39-.39,2.93-1.14,4.39-.55-1.56.76-2.49.6-3.96ZM41.14,53.29c.45-.71.76-1.46,1.11-2.3v1.86c.09.37.03.73-.15.87l-.97-.44ZM42.44,55.37l-.29-.39.39.07-.1.32ZM42.64,52.54c-.12-.27-.11-.59.03-1.15l-.03,1.15ZM43.53,54.84c-.13.09-.22.15-.27.19-.05.26-.09.06-.14-.17l.49-.21-.08.19ZM43.13,45.92c0-.86.09-1.58.4-2.36.2.83-.01,1.63-.4,2.36ZM44.91,53.98l-.82.34c-.42.13-.46-.03-.19-.36l.65-.57.72-.21.38.3-.74.49ZM44.8,42.56c-.09-1.61.2-3.46,1.18-4.77l-1.18,4.77ZM46.02,30.59c-.05,0-.09-.04-.09-.09s.04-.09.09-.09.09.04.09.09-.04.09-.09.09ZM46.44,35.33l.08.46-.12.7c-.16-.15-.26-.26-.29-.28l.33-.88ZM46.1,53.6l.71-.48.89.1c-.54.2-1.01.28-1.59.38ZM46.46,35.27c0-1.94.27-3.96,1.37-5.71.07,1.98-.97,3.66-1.37,5.71ZM47.66,29.56c0-.92.35-1.8.84-2.61-.13.89-.01,1.93-.84,2.61ZM48.01,53.3c-.07,0-.12-.05-.12-.12s.05-.12.12-.12.12.05.12.12-.05.12-.12.12ZM48.48,53.28c-.05,0-.09-.04-.09-.09s.04-.09.09-.09.09.04.09.09-.04.09-.09.09ZM48.06,26.51c.15-.71.52-1.35,1.02-2.27.1.78-.27,1.45-1.02,2.27ZM48.77,23.69c0-.05.04-.09.09-.09s.09.04.09.09-.04.09-.09.09-.09-.04-.09-.09ZM48.05,22.65c-.24-1.12.66-.98,1.4-1.61-.39.61-.89,1.16-1.4,1.61ZM48.94,20.49l.99-.61c-.3.45-.58.62-.99.61ZM50.17,18.36l-.54-.31.76-.19.52.31-.74.19ZM49.98,17.47c.81-.36.98-.36,1.27-.18l-1.27.18ZM51.04,16.69l-.57-.51.83.05.42.35-.68.11ZM51.76,17.99c.8-.23,1.5-.27,2.29-.2-.76.45-1.53.42-2.29.2ZM52.16,16.97c.7-.46,1.55-.36,2.3-.06-.78.2-1.46.28-2.3.06ZM55.15,17.55l.53.16c-.14.34-.18.37-.63.41-.06,0-.06-.03.1-.58ZM55.38,43.42c-.09,0-.16-.07-.16-.16s.07-.16.16-.16.16.07.16.16-.07.16-.16.16ZM55.67,42.31c-.05,0-.09-.04-.09-.09s.04-.09.09-.09.09.04.09.09-.04.09-.09.09ZM56.22,41.05l-.54-.31.76-.19.52.31-.74.19ZM56.25,17.7l3.99-.55c-1.08,1.27-2.66,1.2-3.99.55ZM58.71,40.45l-.51-.12.52-.11v.23ZM57.78,30.65l2.87.21c-.87.09-1.94.37-2.87-.21ZM60.58,40.64l-.49-.12.49-.12.3.12-.3.12ZM63.89,30.3c.37-.04.7-.04.97,0-.3.06-.67.06-.97,0ZM61.03,29.62c2.57-1.22,5.15-.52,7.8-.28-2.57.15-5.09.56-7.8.28ZM65.77,30.87c.5-.08.95-.08,1.36,0-.45.09-.92.09-1.36,0ZM67.96,30.4c-.05,0-.09-.04-.09-.09s.04-.09.09-.09.09.04.09.09-.04.09-.09.09ZM68.47,30.27l1.65.05c-.34.53-.98.33-1.65-.05ZM70.71,30.09l-.1.32-.29-.39.39.07ZM70.4,37.11l.2-1.96c.11.63.32,1.36-.2,1.96ZM70.5,29.17c.43-.06.82-.06,1.17,0-.38.08-.8.08-1.17,0ZM73.38,17.79c-.49.2-1.01.37-1.55.05.54-.11,1.07-.11,1.55-.05ZM72.7,29.48l-.51-.12.52-.11v.23ZM72.52,28.36l-.47.17c-.08.02-.1-.07-.09-.38h.75s-.2.21-.2.21ZM73.41,29.51l-.39-.41.46.15-.07.27ZM73.86,29.38l.52-.52.88.11-1.4.41ZM75.51,29.8c-.19,0-.47.13.18-.3-.02-.02.14.12.32.26l-.5.04ZM75.87,27.05l-.04,1.2-.8.08c-.2-.15-.39-.34-.53-.62,1.56-.92.94-2.19.94-3.9,1.16.61.32,2.04.44,3.24ZM77.44,17.9c.06,1.44-.23,2.87-.62,4.38.07-1.43.24-2.86.62-4.38ZM76.66,16.6c.05,0,.09.04.09.09s-.04.09-.09.09-.09-.04-.09-.09.04-.09.09-.09ZM76.24,29.54l1.61-.07c-.55.3-1.1.59-1.61.07ZM78.05,16.36l-.19-.06.11-.84.11.28-.04.61ZM78.52,14.6c.92.6,1.86,1.34,2.25,2.54l-2.21-.24c-.09-.53-.07-1.16-.04-2.29ZM79.87,29.08c-.05,0-.09-.04-.09-.09s.04-.09.09-.09.09.04.09.09-.04.09-.09.09ZM79.77,18.03l-.39-.25.49-.06.09.31h-.2ZM80.82,28.89c-.05,0-.09-.04-.09-.09s.04-.09.09-.09.09.04.09.09-.04.09-.09.09ZM80.82,18.11c-.05,0-.09-.04-.09-.09s.04-.09.09-.09.09.04.09.09-.04.09-.09.09ZM80.97,16.64l.55.2.04.38-.58-.58ZM79.06,52.76c.46-1.69.56-3.24,1.39-4.82.14,1.71-.43,3.34-1.39,4.82ZM80.02,57.27c-.21.35-.15-.1-.18-.2l.33-1.04.34.65-.5.59ZM79.75,54.12l.52-.11v.23s-.52-.12-.52-.12ZM80.01,52.51c.2-.59.38-1.1.63-1.56.12.69-.2,1.18-.63,1.56ZM83,53.94l-.45.15c.02-.06.04-.15.08-.27l.37.12ZM81.2,45.59c.07,0,.12.05.12.12s-.05.12-.12.12-.12-.05-.12-.12.05-.12.12-.12ZM81.01,46.28c.05,0,.09.04.09.09s-.04.09-.09.09-.09-.04-.09-.09.04-.09.09-.09ZM81.01,49.75c.07,0,.12.05.12.12s-.05.12-.12.12-.12-.05-.12-.12.05-.12.12-.12ZM80.82,55.92c-.05,0-.09-.04-.09-.09s.04-.09.09-.09.09.04.09.09-.04.09-.09.09ZM80.78,53.46l.15-.39.28.19.21.17-.64.03ZM81.78,55.69l-.03-.18.41-.56.02.4-.39.34ZM83.28,53.66c-.05,0-.09-.04-.09-.09s.04-.09.09-.09.09.04.09.09-.04.09-.09.09ZM83.8,16.32c.86-.41,1.73-.05,2.54.4-.45.39-.84.61-1.14.54l-1.4-.94ZM85.23,54.12l1.38-.32c-.43.38-.89.48-1.38.32ZM86.39,17.25c.37-.04.7-.04.97,0-.3.06-.67.06-.97,0ZM88.8,53.07l-.07.27-.39-.41.46.15ZM88,53.66c-.05,0-.09-.04-.09-.09s.04-.09.09-.09.09.04.09.09-.04.09-.09.09ZM88.58,55.45l-.34-.78.91-.51.15.96-.71.33ZM89.61,53.11c-.07,0-.12-.05-.12-.12s.05-.12.12-.12.12.05.12.12-.05.12-.12.12ZM89.88,17.38l-.49-.12.49-.12.3.12-.3.12ZM91.6,51.13c-.07,0-.12-.05-.12-.12s.05-.12.12-.12.12.05.12.12-.05.12-.12.12ZM92.71,50.98c-.64-1.56.18-2.89.43-4.32l-.43,4.32ZM93.3,46.47c-.05,0-.1-.04-.1-.1s.04-.1.1-.1.1.04.1.1-.04.1-.1.1ZM94.21,32.61l-.18.44-.1-.78.59.09-.32.25ZM95,28.88l-.42.16.15-.35.48.06-.22.13ZM97.11,29.58l-.37.25c-.27-.03-.48,0,.04-.24.21-.03.48-.04.33,0ZM97.74,29.78c.14-.15.24-.2.88-.46l-.88.46ZM98.59,51.01c.05,0,.09.04.09.09s-.04.09-.09.09-.09-.04-.09-.09.04-.09.09-.09ZM97.14,51.6l1.75.23c-.66.2-1.31.32-1.75-.23ZM102.95,40.41l.09.28-.19.21h-.18s.28-.49.28-.49ZM101.62,44.84c.07,0,.12.05.12.12s-.05.12-.12.12-.12-.05-.12-.12.05-.12.12-.12ZM99.53,50.48l.2-1.17c.14.38.22.92-.2,1.17ZM100.18,52.99c.83-.12,1.57-.11,2.32,0-.78.12-1.55.12-2.32,0ZM103.14,52.92l-.51-.12.52-.11v.23ZM103.13,42.24c-.07,0-.12-.05-.12-.12s.05-.12.12-.12.12.05.12.12-.05.12-.12.12ZM103.1,40.24v-.63s.15.34.15.34l-.15.29ZM129.41,40.04c.05,0,.09.04.09.09s-.04.09-.09.09-.09-.04-.09-.09.04-.09.09-.09ZM128.84,34.73l.44,3.41c-.48-1.1-.56-2.22-.44-3.41ZM129.13,38.43c0,.05-.04.09-.09.09s-.09-.04-.09-.09.04-.09.09-.09.09.04.09.09ZM128.29,33.65c-.14-.55-.14-1.1.02-1.91.06.62.06,1.25-.02,1.91ZM128.21,30.69l-.15.29v-.63s.15.34.15.34ZM127.22,27.7c-.44-1.57-.71-3.28-.68-5.05.13,1.61.86,3.1.68,5.05ZM127.47,28.19l-.14.54-.21-.23.02-.61.33.3ZM126.3,17.8v.61s-.24,0-.24,0l-.25-.68.49.06ZM126.49,19.32v.6s-.18,0-.18,0l-.26-.68.44.08ZM115.73,14.52l3.2,1.33c-1.36.55-2.55.91-3.82,1.15.12-1.09-.33-1.88.63-2.48ZM114.63,16.18c.11.09.2.15.24.18l-.2.64c-.19-.07-.34-.13-.41-.15l.37-.68ZM111.64,21.32c.05,0,.09.04.09.09s-.04.09-.09.09-.09-.04-.09-.09.04-.09.09-.09ZM110.13,22.65c.05,0,.09.04.09.09s-.04.09-.09.09-.09-.04-.09-.09.04-.09.09-.09ZM109.98,23.04l-.45.93c-.06-.28.13-.64.45-.93ZM109.3,24.37l-2.23,5.69c.19-2.07,1.12-3.92,2.23-5.69ZM106.82,25.65c.07,0,.12.05.12.12s-.05.12-.12.12-.12-.05-.12-.12.05-.12.12-.12ZM106.46,16.31l-.18.41-.19.2-.04-.72.4.11ZM105.4,17.99c.07,0,.12.05.12.12s-.05.12-.12.12-.12-.05-.12-.12.05-.12.12-.12ZM105.05,16.8l.07.28-.3.1-.29-.1.51-.28ZM104.26,25.6c-.07,0-.12-.05-.12-.12s.05-.12.12-.12.12.05.12.12-.05.12-.12.12ZM104.65,18.31l-.29-.39.39.07-.1.32ZM105.27,19.86c.03.75-.16,1.49-.48,2.25.02-.69.2-1.3.48-2.25ZM105.37,23.7c.26-1.73.02-3.41,1.28-4.66l-1.36,5.57c-.18-.24-.08-.59.08-.91ZM105.71,24.7c.27,0,.63.04.9.13l-.83.68c-.3.31-.26.06-.07-.81ZM106.26,26.43c-.12.05-.11-.06-.03-.38l.57.06-.22.45-.32-.12ZM107.34,26.01c.07,1.26-.61,2.32-1.29,3.21.41-1.23.82-2.19,1.29-3.21ZM105.97,29.52c.07,0,.12.05.12.12s-.05.12-.12.12-.12-.05-.12-.12.05-.12.12-.12ZM104.08,39.85c-.05,0-.09-.04-.09-.09s.04-.09.09-.09.09.04.09.09-.04.09-.09.09ZM104.23,39.28c.29-1.02.42-2.13,1.2-3.13-.25,1.09-.67,2.08-1.2,3.13ZM104.33,36.08c.2-2.06.78-4.01,2.11-5.83-.54,1.89-1.16,3.77-2.11,5.83ZM106.12,33.05v-.63s.15.34.15.34l-.15.29ZM106.95,30.26c-.01.7-.17,1.44-.66,2.07.12-.65.32-1.2.66-2.07ZM106.82,53.3c-.07,0-.12-.05-.12-.12s.05-.12.12-.12.12.05.12.12-.05.12-.12.12ZM106.41,34.77c1.08-4.17,2.83-7.99,4.72-11.97l-4.72,11.97ZM112.01,48.58l-.49-.12.49-.12.3.12-.3.12ZM111.53,47.51c.7-.11,1.32-.11,1.94,0-.65.11-1.3.11-1.94,0ZM113.6,17.09h-.38s.31-.75.31-.75l.29.3-.23.45ZM114.56,48.07c.5-.08.95-.08,1.36,0-.45.09-.92.09-1.36,0ZM118.35,37.47c-.67.55-1.67.15-2.37-.4.85.05,1.44.14,2.37.4ZM116.24,36.24c.08-2.08.49-3.74,1.42-5.66l.69,5.85c-.9.06-1.46.04-2.11-.19ZM118.35,29.17c0-.05.04-.09.09-.09s.09.04.09.09-.04.09-.09.09-.09-.04-.09-.09ZM117.02,47.89c.48-.15,1.03-.22,1.62.17-.53.11-1.03,0-1.62-.17ZM118.64,31.16c-.05,0-.09-.04-.09-.09s.04-.09.09-.09.09.04.09.09-.04.09-.09.09ZM118.82,31.72c-.05,0-.09-.04-.09-.09s.04-.09.09-.09.09.04.09.09-.04.09-.09.09ZM119.2,47.98c-.05,0-.09-.04-.09-.09s.04-.09.09-.09.09.04.09.09-.04.09-.09.09ZM119.77,48.55c-.05,0-.09-.04-.09-.09s.04-.09.09-.09.09.04.09.09-.04.09-.09.09ZM120.9,17.95l-.49-.12.49-.12.3.12-.3.12ZM121.47,52.33c-.05,0-.09-.04-.09-.09s.04-.09.09-.09.09.04.09.09-.04.09-.09.09ZM116.77,17.33c2.66-1.15,5.75-2.21,8.5-.84l-8.5.84ZM125.27,17.15v.23s-.52-.12-.52-.12l.52-.11ZM124.15,52.75c.56-.85,1.61-.23,2.04.05.47-.19.84-.31,1.31-.41.46.21.81.42.92,1.17-1.5-.15-2.78-.34-4.27-.81ZM131.02,53.68c-1.02-.12-1.55-.2-2.25-.4.47-.37.76-.42,1.34-.41l.91.81ZM129.59,41.53l1.01,4.71c-.6-1.43-1.04-3-1.01-4.71ZM131.19,48.32l-.51-1.66c.4.4.83.89.51,1.66ZM131.3,48.35l.11.3-.02.41-.2-.07.12-.64Z"/>
      <path class="cls-2" d="M244.35,39.41c-2-.47-4.27.49-6.56,1.38l-1.38.16c.07-.58.14-.88-.14-1.57l-.64,1.6c-.41.38-1.09.58-1.73.58-.24-3.31.09-6.32.96-9.47l.68-6.04c1.02-1.03,1.12-2.25,2.51-1.61l-.21-1.4.57-.53c-.88-.52-.85-1.48-.64-2.5-.89-.16-1.46-.68-1.63-1.55-.88-1.41-1.01-3.1-2.62-4.14l.46,2.48c-1.08-.96-1.25-2.28-1.73-3.59-1.01-.36-1.72-.61-2.2-1.84l-.83.72-.76-.48c-1.67-1.25-3.4-2.48-5.61-2.67-.72,2.37-.77,4.65-.79,7.14l-4.68,7.17-4.16-8.76c-.2-1.42-.55-2.78-.94-4.04.22-.29.47-.67.6-.9l-1.04-1.13-3.97,2.8c-2.2.38-4.16,1.05-6.1,1.99-2.44.07-4.27,1.91-6.41,3.06-.97-.05.13-.3.24-.29-.32-.68-.39-.63-.6-1.4-1.46-.51-3.75-1.63-4.18-3.74-1.69,1.35-3.27,3.21-4.68,5.27-2.02,1.84-4.28,3.15-6.62,4.53l-.45.43-.1.4,1.17-.06c-1,.66-1.95,1.23-3.23,1.79-.95-2.86-2.12-5.28-4.24-7.3-.96-1.74-1.9-3.64-1.96-5.83-.49-.16-1.24.11-1.83.5-.95,1.69-2.38,2.98-4.07,3.91-2.16,1.37-3.68,3.33-5.16,5.37-.61.36-.93,1.08-.98,1.72-.02.76.57,1.09,1.31,1.36l1.92,2.12c1.69,1.1,2.98,2.74,3.47,4.9-.97-.34-.91-1.34-1.71-2.19l-.05,4.86c-1.15-1.18-2.82-.72-3.72-1.73l-.35-.95-.84-.04c-.03.4.09.72.42,1.04-2.05,2.13-4.09,4.77-4.78,7.93l-1.93.41c.63.31,1.1.48,1.68.66l6.44-.1c.15,1.58-.85,2.98-.4,4.55l-.77,12.66.58,2.22c1.13-1.2.57-2.46,2.18-2.56l-2.3,3.32c1.39-.86,2.46-2.08,3.55-3.34.67-.7,1.21-1.36,2.34-1.34l-1.48,3.48,4.21-3.28c-.16.75-.71,1.37.15,1.66.47-3.08,3.01-4.88,5.91-5.31l.04-.59.48-.43.54.62c.41.86.83,1.74,1.61,2.23.16-1.47-1.25-1.92-1.23-2.83,2.55-1.66,5.33-.69,7.18,1.34-1.2.35.25.81-.12,1.51,1.07-1.48,2.58-.09,4.11.86l-1.98.63c1.61-.02,2.55,1.01,4.08,1.96.38-1.21-.72-2.01-.61-3.2l.38.41h.38s.17-.75.17-.75c-.34-1.46.17-2.32,1.68-2.92-1.12-2.25-1.11-4.25-1.05-6.53-.7-.94-1-1.92-.04-2.9l2.08,7.51c.62-1.11,0-2.17.01-3.15.74.64,1.24,1.12,2.04,1.56.11-.88-.61-1.42-1.27-1.86-.68-.62-.88-1.59-.66-2.28,2.29,2.69,3.83,6.15,6.76,7.63,4.46,2.89,8.98,5.44,14.31,7.03,0-1.43-1.59-.96-2.54-1.72,1.56-.4,2.91.66,4.5.63l1.08-.25c.17-.02.12-.22-.11-.4l-.94-.73c.57-.96,1.37-1.75,2.14-2.56.01.61-.08,1.13.37,1.27l.67-3.21.62,2.03c.27-.83.33-1.43.3-2.26.13-.49.34-1.01.57-1.47.6.05,1.02.34,1.38.81.61.58.16.56-.58,1.25.66.53,1.19.83,1.94,1.16,1.65.06,3.59,1.83,2.98,3.39v.29s-.33.08-.33.08l.09-.39-.67.13-.35.43.89.25c.4,1.29,1.4,1.3,2.71,1.31,3.7-.85,7.36-1.39,11.21-1.11l7.49-1.06c.56.1,1.14.8,1.51.06.32-.41,1.65-.35.73-.96-.28-1.01-.59-1.68-1.4-2.35,1.08.05.92,1.6,2.15,1.19-3.51-3.67-5.87-8.98-5.44-14.2ZM234.52,31.5c-.1-1.38.06-2.72.43-4.14-.04,1.38-.18,2.72-.43,4.14ZM236.06,20.19c.05,0,.09.04.09.09s-.04.09-.09.09-.09-.04-.09-.09.04-.09.09-.09ZM235.91,19.41l-.03.41-.43-.57.46.15ZM235.36,18.88c-.37-.58-.61-1.18-.68-1.92.32.63.55,1.25.68,1.92ZM234.55,16.48c.07,0,.12.05.12.12s-.05.12-.12.12-.12-.05-.12-.12.05-.12.12-.12ZM234.53,32.58l-.2.28-.03-.63.23.35ZM159.11,21.84c.07-.54.1-.96.55-1.12-.18.69-.24,1.12,0,1.74-.2-.2-.44-.47-.55-.63ZM155.41,38.93c-.07,0-.12-.05-.12-.12s.05-.12.12-.12.12.05.12.12-.05.12-.12.12ZM155.25,37.58c.12-.46.38-.87.86-1.47-.15.54-.45.99-.86,1.47ZM156.26,35.81c-.07,0-.12-.05-.12-.12s.05-.12.12-.12.12.05.12.12-.05.12-.12.12ZM157.31,35.99h-.18s.28-.49.28-.49l.09.28-.19.21ZM157.56,35.32c.08-.21.23-.46.45-.74l-.45.74ZM158.91,33.24c-.05,0-.09-.04-.09-.09s.04-.09.09-.09.09.04.09.09-.04.09-.09.09ZM160.23,32.86c-.05,0-.09-.04-.09-.09s.04-.09.09-.09.09.04.09.09-.04.09-.09.09ZM177.73,23.43c.09,0,.16.07.16.16s-.07.16-.16.16-.16-.07-.16-.16.07-.16.16-.16ZM177.58,24.61c.73.7.5,1.83-.2,2.43-.03-.83.01-1.55.2-2.43ZM178.46,28.26l-.61.36c-.02.14-.03.02-.04-.54l.65.18ZM175.9,30.83c.07-1.62-.42-3.48.79-4.94.16,1.58.11,3.49-.79,4.94ZM176.04,25.98l-.92-5.77c.76,1.66,2.33,3.76.92,5.77ZM175.17,32.17c.07,0,.12.05.12.12s-.05.12-.12.12-.12-.05-.12-.12.05-.12.12-.12ZM175.06,33.66l-.61.42c.02-.06.04-.16.06-.22l.5-.85.05.64ZM175.18,40.59l.1.31-.34.13-.31-.36.56-.08ZM174.56,35.53l-.52-.13.32-.76.39.42-.19.47ZM174.42,19.62c.05,0,.09.04.09.09s-.04.09-.09.09-.09-.04-.09-.09.04-.09.09-.09ZM174.24,19.09l-1.14-1.94c.59.49.92,1.19,1.14,1.94ZM174.34,40.15c-.46.08-.92-.02-1.36-.26.51,0,.95.09,1.36.26ZM173,42.22l.17.41-.26-.03-.05-.7.14.32ZM172.84,41.47l-.15.29v-.63s.15.34.15.34ZM170.26,11.56c.07,0,.12.05.12.12s-.05.12-.12.12-.12-.05-.12-.12.05-.12.12-.12ZM170.05,10.59c-.2.44-.61.6-1.04.64.24-.22.32-.29,1.04-.64ZM169.16,11.54c-.23.32-.53.62-.89.85l.89-.85ZM169.83,12.16c-.39.53-.82.96-1.49,1.53.1-.64.59-1.46,1.49-1.53ZM167.6,12.79l.12.3-.2.22-.23-.04.32-.49ZM166.33,27.73l-.03.41-.43-.57.46.15ZM166.19,26.33c0-.05.04-.09.09-.09s.09.04.09.09-.04.09-.09.09-.09-.04-.09-.09ZM167.25,54.64l-1.39,1.71c.09-.84.46-1.56,1.39-1.71ZM166.76,53.97c.12-.14.23-.2.87-.48-.35.3-.58.49-.87.48ZM167.51,14.49c-.09,0-.16-.07-.16-.16s.07-.16.16-.16.16.07.16.16-.07.16-.16.16ZM167.17,13.78c-.82,1.16-1.79,1.99-3.17,2.98.53-1.34,1.7-2.37,3.17-2.98ZM164.49,23.31c0,.05-.04.09-.09.09s-.09-.04-.09-.09.04-.09.09-.09.09.04.09.09ZM161.78,20.47l.67-.02-.3.38-.37-.36ZM161.94,22.31l-.66-.49c.49-.06.57-.05.58.08l.07.41ZM161.87,18.87c0-.09.07-.16.16-.16s.16.07.16.16-.07.16-.16.16-.16-.07-.16-.16ZM163.25,23.33l-1.04-1.26c.6.11,1.05.63,1.04,1.26ZM162.79,20.38c.58.3,1.02.97,1.21,1.64-.64-.4-1.4-.66-1.21-1.64ZM164.01,15.65c-.58,1.32-1.32,2.16-2.59,2.59l2.59-2.59ZM161.27,19.41c.07,0,.12.05.12.12s-.05.12-.12.12-.12-.05-.12-.12.05-.12.12-.12ZM160.82,19.8v.21s-.27.23-.27.23l-.29-.37.56-.07ZM160.04,20.96l.95.14.16.48h-.77c-.21-.13-.38-.36-.34-.62ZM160.71,22.67c-.07,0-.12-.05-.12-.12s.05-.12.12-.12.12.05.12.12-.05.12-.12.12ZM160.92,22.97l1.43,1.89c-.6-.44-1.21-.98-1.43-1.89ZM161.67,23.06c1.04.06.79.74,1.17,1.8l-1.17-1.8ZM162.9,23.7c1,.06,1.72,1.17,1.58,2.22-1.35.04-1.12-1.26-1.58-2.22ZM164.31,26.94l-.31-.64.61-.06.03.68-.32.02ZM165.06,24.25c0-.05.04-.09.09-.09s.09.04.09.09-.04.09-.09.09-.09-.04-.09-.09ZM165.12,28.33v-.63s.15.34.15.34l-.15.29ZM164.88,16.93l.7-.66c-.19.25-.44.48-.7.66ZM160.36,53l-.15.29v-.63s.15.34.15.34ZM160.32,56.68c-.64-.47-.45-1.22.22-1.87l-.22,1.87ZM160.99,56.11c-.05,0-.09-.04-.09-.09s.04-.09.09-.09.09.04.09.09-.04.09-.09.09ZM161.23,55.38c-.21-.43-.21-.93.03-1.48.17.5.22.93-.03,1.48ZM161.1,40.74v-.91c.13.07.21.12.27.14l.07.57c-.18.1-.32.18-.34.19ZM162.14,32.5l-.51-.12.52-.11v.23ZM162.23,57.19c.15-.21.3-.4.62-.7-.07.33-.35.61-.62.7ZM163.65,33.45l-.51-.12.52-.11v.23ZM163.92,34.02c-.07,0-.12-.05-.12-.12s.05-.12.12-.12.12.05.12.12-.05.12-.12.12ZM164.35,32.92c-.43-1.08-.46-2.32-.17-3.5l.96,1.63c.19.76.3,1.38-.79,1.87ZM165.66,54.74l-.58-.02.61-.76.57.29-.6.48ZM165.82,57.05l.58-.76.77-1.2c.22-.59.81-.32,1.45-.23l-2.8,2.18ZM168.5,54.44c-.28-.1-.4-.19-.24-.25l.77-.55.16.41-.69.39ZM169.81,51.42c.1,0,.18.08.18.18s-.08.18-.18.18-.18-.08-.18-.18.08-.18.18-.18ZM170.18,53.36l-.53.32.26-.57c.5.04.47.07.27.25ZM170.64,51.78l-.32-.12.27-.56.16.37-.12.3ZM173.53,50.98l-2.4.73c-.06-.66-.03-1.18.35-1.21l1.44-.37.77-.17.45.38-.61.63ZM173.23,43.06c.21.37.31.77.26,1.16-.13-.34-.22-.72-.26-1.16ZM173.54,44.58c0-.07.05-.12.12-.12s.12.05.12.12-.05.12-.12.12-.12-.05-.12-.12ZM174.42,50.44c-.05,0-.09-.04-.09-.09s.04-.09.09-.09.09.04.09.09-.04.09-.09.09ZM174.32,49.51l-.69-.24.42-.6.46.47-.2.38ZM175.33,48.06l-1.96-6.77c.84,0,1.66.27,2.57.74-.36,2.21-.6,3.98-.61,6.04ZM175.93,36.45c-.05,0-.09-.04-.09-.09s.04-.09.09-.09.09.04.09.09-.04.09-.09.09ZM176.05,44.96c0,.07-.05.12-.12.12s-.12-.05-.12-.12.05-.12.12-.12.12.05.12.12ZM175.95,49.69l-.36-.33.32-.67.14.53-.1.48ZM176.09,48.18v-.63s.15.34.15.34l-.15.29ZM178.04,49.98l-.86-.02c-.45-.13-.41-.16-.12-1.1l.77.42c.33.25.59.57.21.71ZM176.25,36.48l.96-.68c.41.01.65.19.56.62l-.85.33-.67-.27ZM177.62,33.81c-.4,1.13-.97,1.96-2.54,1.64.09-.73.36-1.45.8-2.18-.47-1.03-.11-2.19.76-2.97l.18-.51.31-.04.31.85c.33-.94.46-1.77,1.54-2l-1.35,5.22ZM179.49,28.52v-.63s.15.34.15.34l-.15.29ZM180.01,27.71c0-.2.15-.38.5-.67l-.5.67ZM180.37,20.69l.91-.44c-.19.37-.53.59-.91.44ZM181.13,22.62c-.09,0-.16-.07-.16-.16s.07-.16.16-.16.16.07.16.16-.07.16-.16.16ZM182.55,50.63c-.05,0-.09-.04-.09-.09s.04-.09.09-.09.09.04.09.09-.04.09-.09.09ZM183.21,49.9c-.07,0-.12-.05-.12-.12s.05-.12.12-.12.12.05.12.12-.05.12-.12.12ZM183.78,50.09c-.07,0-.12-.05-.12-.12s.05-.12.12-.12.12.05.12.12-.05.12-.12.12ZM190.22,49.24c.24.48.37.87.49,1.57-1.04,0-.87-.98-.49-1.57ZM212.24,56.86l.28.31h-.21s-.29-.47-.29-.47l.23.15ZM235.9,48.37c-1.14-.61-1.14-1.94-1.49-2.97l1.49,2.97ZM233.98,42.68l.11.29-.02.41-.21-.02.12-.68ZM234.2,43.81l.07.5h-.25s-.21-.7-.21-.7l.4.2ZM233.93,30.59l-.11,1.92c-.18-.56-.22-1.11.11-1.92ZM233.65,33.05l-.02,1.34c-.13-.34-.13-.72.02-1.34ZM233.6,34.72l-.03.36-.11.58-.21-.29.35-.64ZM233.03,29.64c.05,0,.09.04.09.09s-.04.09-.09.09-.09-.04-.09-.09.04-.09.09-.09ZM232.88,33.41c.15,1.89-.04,3.59-.24,5.65-.17-1.86-.07-3.75.24-5.65ZM232.01,54.69c-.3.06-.67.06-.97,0,.37-.04.7-.04.97,0ZM228.32,54.59l.1.3-.3.1-.29-.36.49-.04ZM228.3,55.72l.29.31-.31.12-.48-.34.5-.09ZM226.96,55.84c.19.17.48.42.45.4l-.85.2c-.34.1-.22-.03.4-.59ZM226.64,54.87l.32-.7.16.54-.26.43-.22-.27ZM226.98,11.05l.23.41h-.46s-.51-.45-.51-.45l.74.04ZM225.66,13.38c.05,0,.09.04.09.09s-.04.09-.09.09-.09-.04-.09-.09.04-.09.09-.09ZM224.19,9.77l-.07.27-.39-.41.46.15ZM222.45,47.61c-.68-.96-.65-1.93-.74-3.12.84.77,1.08,2.03.74,3.12ZM222.45,20.38c.05,0,.09.04.09.09s-.04.09-.09.09-.09-.04-.09-.09.04-.09.09-.09ZM222.35,16.88c0-.05.04-.09.09-.09s.09.04.09.09-.04.09-.09.09-.09-.04-.09-.09ZM222.54,49.21c0,.05-.04.09-.09.09s-.09-.04-.09-.09.04-.09.09-.09.09.04.09.09ZM219.9,29.16l-.2.22-.23-.04.32-.49.12.3ZM219.01,24.99c-.76-.94-.2-1.84.77-2.31l-.77,2.31ZM219.34,28.04l-.3.1-.29-.36.49-.04.1.3ZM219.65,20.62c.08,1.29-.38,2.18-1.35,2.71l1.35-2.71ZM218.27,26.81l.25.2-.12.3h-.38s.25-.51.25-.51ZM218.55,28.86l-1.17-.64c.67-.24.92.16,1.17.64ZM215.93,21.37c-1.3-.91-1.73-2.4-1.78-3.97.71,1.4,1.25,2.57,1.78,3.97ZM213.6,18.07c-.52-.92-.87-1.81-1.06-2.87,1.11.64.99,1.83,1.06,2.87ZM212.14,9.58c.12,0,.21.09.21.21s-.09.21-.21.21-.21-.09-.21-.21.09-.21.21-.21ZM210.6,11.3c0,.09-.07.16-.16.16s-.16-.07-.16-.16.07-.16.16-.16.16.07.16.16ZM210.37,10.03c-.2.44-.45.89-.99.8l.99-.8ZM209.02,12.25c.05,0,.09.04.09.09s-.04.09-.09.09-.09-.04-.09-.09.04-.09.09-.09ZM209.11,43.35c0,.05-.04.09-.09.09s-.09-.04-.09-.09.04-.09.09-.09.09.04.09.09ZM208.86,11.8l-1.58,1.17c.25-.66.77-1.13,1.58-1.17ZM208.87,41.91l-.07.27-.39-.41.46.15ZM207.13,39.47c.05,0,.09.04.09.09s-.04.09-.09.09-.09-.04-.09-.09.04-.09.09-.09ZM206.77,12.6l.02.4-.39.34-.03-.18.41-.56ZM205.9,12.93c.11.66,0,.91-.37,1.14-.44.11-.67.17-1.22-.24l1.59-.9ZM204.33,29.73l.45.41.02.25-.53-.03.06-.63ZM204.64,31.9c-.47.13-.69.19-1.44.31.17-.74.75-1.16,1.56-1.39.13.46.07.73-.11,1.08ZM202.97,13.57c.05,0,.09.04.09.09s-.04.09-.09.09-.09-.04-.09-.09.04-.09.09-.09ZM204.12,14.43c-.64.42-1.18.62-1.97.8.58-.4,1.19-.73,1.97-.8ZM199.94,14.14c.05,0,.09.04.09.09s-.04.09-.09.09-.09-.04-.09-.09.04-.09.09-.09ZM195.71,20c0,.07-.05.12-.12.12s-.12-.05-.12-.12.05-.12.12-.12.12.05.12.12ZM195.14,17.89l.4.14-.28.32-.34.07.22-.53ZM194.59,20.71l.59-1.52c.17.55-.03,1.16-.59,1.52ZM194.05,19.84c0-.76.16-1.49.64-2.13-.08.75-.3,1.44-.64,2.13ZM194.37,22.17l-.19.21h-.18s.28-.49.28-.49l.09.28ZM193.89,14.9l.29.3-.5.1-.3-.55.51.15ZM193.43,17.71c-.12-.55-.21-1.22-.26-1.9.85.35.67,1.01.26,1.9ZM190.49,12.32c.07,0,.12.05.12.12s-.05.12-.12.12-.12-.05-.12-.12.05-.12.12-.12ZM188.98,28.7c.05,0,.09.04.09.09s-.04.09-.09.09-.09-.04-.09-.09.04-.09.09-.09ZM188.07,29.09l-.45.93c-.06-.28.13-.64.45-.93ZM187.46,16.03c.05,0,.09.04.09.09s-.04.09-.09.09-.09-.04-.09-.09.04-.09.09-.09ZM190.53,27.44c-.76,2.42-2.03,4.21-3.18,6.35.4-2.45,1.62-4.68,3.18-6.35ZM190.02,32.59l-1.63.93,1.21-2.69c.53.56.41.97.42,1.76ZM187.87,54.36s-.08-.17-.16-.33l.41.08-.26.25ZM188.1,52.52c0-.07.05-.12.12-.12s.12.05.12.12-.05.12-.12.12-.12-.05-.12-.12ZM188.13,35.79c0-.05.04-.09.09-.09s.09.04.09.09-.04.09-.09.09-.09-.04-.09-.09ZM188.41,53.54c.07,0,.12.05.12.12s-.05.12-.12.12-.12-.05-.12-.12.05-.12.12-.12ZM188.38,51.39v-.63s.15.34.15.34l-.15.29ZM188.66,42.9c.02.5-.07,1-.25,1.51-.15-.44-.08-.84.25-1.51ZM188.57,36.73c0-.07.05-.12.12-.12s.12.05.12.12-.05.12-.12.12-.12-.05-.12-.12ZM188.91,42.41l-.15.29v-.63s.15.34.15.34ZM188.78,34.99l-.31-.31.53-.3.11.31-.33.3ZM187.37,52.5c.07,0,.12.05.12.12s-.05.12-.12.12-.12-.05-.12-.12.05-.12.12-.12ZM187.18,30.97c-.23.84-.53,1.56-1.03,2.38.11-.92.52-1.64,1.03-2.38ZM185.76,33.99c.05,0,.09.04.09.09s-.04.09-.09.09-.09-.04-.09-.09.04-.09.09-.09ZM185.67,34.82l-.26.25s-.08-.17-.16-.33l.41.08ZM184.22,50.64v-.63s.15.34.15.34l-.15.29ZM184.82,52.52c-.05,0-.09-.04-.09-.09s.04-.09.09-.09.09.04.09.09-.04.09-.09.09ZM185.86,53.17l-.32-.41.48.02.19.41-.35-.02ZM185.55,51.22l-.65-.94,1.68.43c-.37,1.1-.64.56-1.03.51ZM186.49,35.88l-.12-.77.45.09-.09.49-.25.19ZM186.8,50.91c0-.05.04-.09.09-.09s.09.04.09.09-.04.09-.09.09-.09-.04-.09-.09ZM187.07,53.48l-.21-.59.35.08.19.41-.33.1ZM188.79,56.59c-.76-.52-1.28-.93-1.84-1.42.74-.44,1.16-.89,1.46-.19l.38,1.62ZM188.52,48.42l.34-1.07.26.53-.46.58c-.05.45-.09.19-.14-.04ZM189.04,53.61l-.19-.06.11-.84.11.28-.04.61ZM188.99,52.16l-.33-.11.33-.66.1.29-.1.48ZM189.4,51.31c-.21-.51-.31-1.02-.31-1.64.25.49.6.67.31,1.64ZM189.9,48.8l-.15,1.02-.4-.39-.07-1.12c.38.27.52.37.62.49ZM189.76,44.93c.06.73.06,1.47.02,2.31-.21-.75-.36-1.48-.02-2.31ZM189.84,43.89l-.24.33-.34.05.12-.73.46.35ZM189.51,36.98l.17-.36.28.2v.36s-.44-.21-.44-.21ZM191.21,36.45c.02.72.1,1.34.21,2.16-.64-.64-.73-1.52-.21-2.16ZM191.61,43.27l-.48-1.54c.62.34.71,1,.48,1.54ZM191.62,44.77c-.05,0-.09-.04-.09-.09s.04-.09.09-.09.09.04.09.09-.04.09-.09.09ZM191.81,45.34c-.05,0-.09-.04-.09-.09s.04-.09.09-.09.09.04.09.09-.04.09-.09.09ZM192.14,31.81c-.64-1.08-.92-2.11-.43-3.32.25-.7,1.23-1.51,2.09-2.03.03,2.12-.81,3.64-1.66,5.35ZM193.26,43.04c.37.23.64.57.89.94-.34-.22-.65-.53-.89-.94ZM194.93,25.78c-.19.64-.42,1.21-.67,1.81-.04-.67,0-1.36.67-1.81ZM194.66,28.88l.09.28-.19.21h-.18s.28-.49.28-.49ZM194.51,44.45c.57.21.94.72,1.12,1.25-.46-.39-.78-.71-1.12-1.25ZM194.89,25.52c-.2-.7.21-1.34.77-1.77-.04.67-.18,1.24-.77,1.77ZM195.79,22.53l-1.72,3.2c-1.25.54-2.34,1.33-2.71,2.38-.64,1.38-.36,2.72.52,4.09-1.07.94-.67,2.88-1.89,3.54-.27-2.31,1.21-4.04-.4-5.54.87-1.29,1.39-2.31,1.39-3.58-1.1.29-.96,1.41-1.85,1.74.87-1.89,2.33-2.93,3.25-4.27,1.94-.18,2.48-2.13,3.2-3.76.29.6.37,1.51.21,2.2ZM196.4,20.72l-.22-.43.02-.93.3.52-.1.84ZM196.69,18.92l-.43-.24.15-1.04.61.54-.33.74ZM196.23,16.69c.34-.23.49-.25,1.46-.4-.45.4-.96.51-1.46.4ZM197.25,48.65l1.23,1c-.68.01-1.05-.44-1.23-1ZM197.12,15.7c.73-.52,1.49-.96,2.39-1.31-.99.69-1.15,1.61-2.39,1.31ZM199.01,15.61c.69-.78,1.7-1.31,2.85-1.83-.83.63-1.61,1.43-2.85,1.83ZM202.26,51.66l-.34-.24.39.04.18.25-.23-.04ZM202.24,38.11l.39,1.69c-.44-.35-.6-.98-.39-1.69ZM203.35,40.99c-.05,0-.09-.04-.09-.09s.04-.09.09-.09.09.04.09.09-.04.09-.09.09ZM203.89,39.42c-1.38-1.28-1.63-2.96-1.16-4.58-.72-.71-.1-1.37.26-1.92.56-.17,1.03-.31,2.1-.8l1.97,9.34-1.01.59.03,1.03c.32-.53.41-.76.96-1.13.28.84.41,1.28.66,2.37-1.32-.47-2.2-1.58-3.32-2.55l-.72-.29.34-.63,1.06.5c-.79-.6-1.36-.89-1.18-1.92ZM204,52.84l-.31-.45.45.11.28.31-.42.04ZM205.56,53.34c.59.23,1.06.48,1.86.94-.67.28-1.58.03-1.86-.94ZM204.98,43.86c.94.77,1.79,1.47,2.77,2.53-.99-.68-1.93-1.52-2.77-2.53ZM207.24,45.01c.61.16,1.34.47,1.4,1.32-.59-.37-.94-.76-1.4-1.32ZM208.83,42.62c-.07,0-.12-.05-.12-.12s.05-.12.12-.12.12.05.12.12-.05.12-.12.12ZM208.92,44.73c.34.2.34.21.3.29l.21.61h-.36s-.15-.9-.15-.9ZM209.4,46.85c-.05,0-.09-.04-.09-.09s.04-.09.09-.09.09.04.09.09-.04.09-.09.09ZM209.84,12.45s-.03-.22-.03-.22l.83-.51c0,.16.02.45.02.42l-.82.31ZM210.91,20.12c-.07,0-.12-.05-.12-.12s.05-.12.12-.12.12.05.12.12-.05.12-.12.12ZM211.64,11.28c.38.72.68,1.45.87,2.33-1.01-.51-.95-1.44-.87-2.33ZM212.52,14.61c0,.05-.04.09-.09.09s-.09-.04-.09-.09.04-.09.09-.09.09.04.09.09ZM211.86,23.21c-.05,0-.09-.04-.09-.09s.04-.09.09-.09.09.04.09.09-.04.09-.09.09ZM213.39,26.04l-1.42-2.65c1.06.49,1.43,1.62,1.42,2.65ZM213.81,28.42c-1.01-1.01-1.6-2.42-1.76-3.92.75,1.23,1.38,2.31,1.76,3.92ZM213.27,48.27c0-.05.04-.09.09-.09s.09.04.09.09-.04.09-.09.09-.09-.04-.09-.09ZM215.55,56.28c-.81-.14-1.52-.3-2.23-.62.99,0,1.83-.44,2.23.62ZM214.49,29.25l.26.96c-.22-.26-.34-.56-.26-.96ZM213.92,25.32c.94.63,1.66,1.55,2.28,2.75,1.19.77,2.59,1.4,3.93,1.97l-.43,8.49c-.58-2-2.27-3.08-2.62-4.99-1.39-2.58-2.6-5.11-3.15-8.23ZM220.37,29.64c-.05,0-.09-.04-.09-.09s.04-.09.09-.09.09.04.09.09-.04.09-.09.09ZM220.38,36.11c-.14-.69-.14-1.35.01-2.29.08.75.08,1.5-.01,2.29ZM220.17,23.79c-.1-.26.03-.64.37-.95l-.37.95ZM220.17,37.38c.63,1.37.95,2.97.35,4.32-.8-1.56-.21-2.99-.35-4.32ZM220.3,42.96l-.15-1.09c.39.14.6.22.73.3l.14.86-.72-.08ZM220.37,47.23c.05,0,.09.04.09.09s-.04.09-.09.09-.09-.04-.09-.09.04-.09.09-.09ZM220.97,31.93c-.15-.81-.43-1.63-.02-2.51.08.8.08,1.61.02,2.51ZM217.81,35.98c0,.05-.04.09-.09.09s-.09-.04-.09-.09.04-.09.09-.09.09.04.09.09ZM216.21,46.47c-.05,0-.09-.04-.09-.09s.04-.09.09-.09.09.04.09.09-.04.09-.09.09ZM216.21,34.37c-.05,0-.09-.04-.09-.09s.04-.09.09-.09.09.04.09.09-.04.09-.09.09ZM216.49,34.91c-.09,0-.16-.07-.16-.16s.07-.16.16-.16.16.07.16.16-.07.16-.16.16ZM217.34,47.6c-.05,0-.09-.04-.09-.09s.04-.09.09-.09.09.04.09.09-.04.09-.09.09ZM216.65,35.13c.63.89.98,1.87,2.11,2.27l.71,1.88c-1.17-1.2-2.42-2.45-2.82-4.14ZM218.76,41.08c0-.05.04-.09.09-.09s.09.04.09.09-.04.09-.09.09-.09-.04-.09-.09ZM219.14,51.54c-.09,0-.15-.07-.15-.15s.07-.15.15-.15.15.07.15.15-.07.15-.15.15ZM219.07,50.94c-.36-.74-.3-1.63.27-2.42l-.27,2.42ZM219.7,42.08c-.08,0-.15-.07-.15-.15s.07-.15.15-.15.15.07.15.15-.07.15-.15.15ZM219.61,41.33c-.41-.66-.7-1.31-1.04-2.14.85.27,1.73.97,1.04,2.14ZM219.92,48.48c.47-.06.56-.04.55.09l.11.36-.66-.44ZM220.66,44.32l-.26-.71.61.13.04.54-.39.04ZM221.12,21.82c-.07,0-.12-.05-.12-.12s.05-.12.12-.12.12.05.12.12-.05.12-.12.12ZM219.95,22.15c.13-1.19.58-2.28,1.42-3.17l-1.42,3.17ZM221.5,30.22c-.14-.75-.24-1.49.19-2.14.15.73.03,1.45-.19,2.14ZM221.55,51.14c.65-.37,1.04-.41,1.59-.14l.68,1.14c-1.04-.34-1.63-.57-2.27-1ZM222.95,46.74c.35.83.48,1.31.59,2.16-.91-.4-.9-1.41-.59-2.16ZM223.3,49.78c0,.05-.04.09-.09.09s-.09-.04-.09-.09.04-.09.09-.09.09.04.09.09ZM223.77,18.11c-.05,0-.09-.04-.09-.09s.04-.09.09-.09.09.04.09.09-.04.09-.09.09ZM222.58,19.37c.41-.87.72-1.77,1.42-2.61-.31.91-.79,1.77-1.42,2.61ZM223.74,14.52c.08-.21.23-.46.45-.74l-.45.74ZM222.35,15.42l.42-5.38c1.16.13,1.62,1.05,1.81,2.02l-2.23,3.36ZM224.62,15.39c.11-.47.36-.92.67-1.29.11.59-.1,1.02-.67,1.29ZM225.28,12.82c-.05,0-.09-.04-.09-.09s.04-.09.09-.09.09.04.09.09-.04.09-.09.09ZM225.55,53.4l.5.15.47.7-.5-.18-.46-.68ZM226.29,57.13c1.15-.29,2.3-.36,3.4-.2-1.2.64-2.27.67-3.4.2ZM230.95,55.95c-.83.29-1.82.23-2.25-.63,1.7-.43,3.34.02,4.84.5-.96,0-1.74,0-2.59.12ZM233.51,48.08c0-.05.04-.09.09-.09s.09.04.09.09-.04.09-.09.09-.09-.04-.09-.09ZM234.36,49.72l-.7-1.35c.54.33.87.79.7,1.35ZM234.48,55.59l-.29-.39.44.02.19.24-.35.13ZM233.4,44.34c.6,2.1,1.34,3.93,2.97,5.64-2.29-.87-3.12-3.44-2.97-5.64ZM237.66,55.83c.43-.06.82-.06,1.17,0-.38.08-.8.08-1.17,0ZM241.65,39.84l1.16.11c-.61.15-1.16.24-1.76.27l.6-.38ZM239.74,55.83c.5-.08.95-.08,1.36,0-.45.09-.92.09-1.36,0ZM242.63,41.41l-.31-.36.56-.08.1.31-.34.13ZM245.49,48.52l.88,2.47c-.66-.74-1.04-1.56-.88-2.47ZM245.33,48.05c.07,0,.12.05.12.12s-.05.12-.12.12-.12-.05-.12-.12.05-.12.12-.12ZM243.52,41.3l-.23-.04.32-.49.12.3-.2.22Z"/>
      <path class="cls-2" d="M292.29,45.74l-1.89-4.38c1,.31.81,1.69,2.12,1.54-2.41-2.48-3.46-5.36-4.13-8.69l-.37-.89,1-.68-1.83-.1-.67-1.5c-.21-.22-.55-.38-.93-.47l-.35,1.04-.14,1.48-1.35.31-7.44,3.96c.61.92.84,1.94,1.06,3.05-.72-.44-.37-1.45-1.44-1.7.64,2.15,1.56,4.01,2.9,5.93-1.05.21-1.73-.7-1.97-1.68-3.5-2.76-4.56-6.98-4.11-11.53.96-.08,1.04,1,1.48,1.82,1.07.09-.51.27-.37.93l5.1-.82c1.41-.83,2.76-1.41,4.23-1.87l.64-.48-.1-.36-.97-.18c-1.32-4.12-1.55-8.62.33-12.59-.38-.56-.42-1.3-.6-2.32l-.4.9c-.03.12-.38.35-.39.16l-.45-.6c-1.38.08-3.01-.31-4-.99-.48-2.22-1.39-3.95-2.23-6.04-.99.98-.3,1.96-.27,3.09-.09.25-.37.33-.66.21l-.4-.49c.38-.24.48-.28.74-.72-4-.19-7.78.93-11.64,2.09-2.79.58-5.33,1.49-7.96,2.77.61.22,1.02,0,1.6.1-.54,2.41-.39,4.62,1.16,6.47-.44,2.05-.31,3.97.47,6.01-.73,3.19-.25,6.38.71,9.7-2.24-.42-4.62-1.51-4.8-3.6-.89-3.37-1.57-6.64-.55-9.83l.55.42.37-.2-.28-.45c-.34-.32-.49-.69-.48-1.32-.26-.62.57.07.77-.65l-2.41-2.68,1-.02c-.94-1.56-2.7-2.62-2.58-4.53-.63-.6-1.61-1.41-2.63-2.16l-.13.76-.84-.28c-.76-.68-2.76-1.78-3.4-.4-.6-.39-1.27-.27-2.41-.43l1.29,1.09c-.04.48-.14.94-.34,1.38l-2.91,8.03c.27,1.01-.15,1.75-.56,2.67-.14.52-.26.92-.49,1.51l-1.29.41,3.17,5.04c-.26,1.04.24,2,1.14,2.26l-.12-1.03.4-.18.44.56c.21.81.03,1.52.69,2.35l.51-3.65c.42,2.29,1.93,3.66,2,5.84,1.27,4.53,3.44,8.7,4.57,13.19.98.84,2.92.48,4.6.22,2.14.09,4.1.29,6.17.89l4.39-.07.54.84.42-.31-.72-.75c.91-.41.51-1.27.06-1.97-1.03-1.4-2.1-2.81-2.05-4.51.59.91.36,2.15,1.59,2.36.06-1.22-1.13-2-.96-3.14,2.45,3.81,5.85,7.15,10.04,8.04,4.28.51,8.2,1.52,12.05.61,1.51-1.73,4.15-1.14,5.67-2.96-.29-.96-.29-1.88.34-2.6v-1.01s.52.27.52.27l.66.25c.57-1.11-1.01-1.55-.48-2.75ZM282.76,30.85c.07,0,.12.05.12.12s-.05.12-.12.12-.12-.05-.12-.12.05-.12.12-.12ZM280.99,18l.19.41-.33.1-.21-.59.35.08ZM280.4,16.55l.23.7-.55-.02-.59-.57.92-.11ZM279.42,32.59l-.63.26c-.2-.02-.42.12.1-.35l.53.1ZM278.7,21.99c0-.05.04-.09.09-.09s.09.04.09.09-.04.09-.09.09-.09-.04-.09-.09ZM278.89,21.61c0,.05-.04.09-.09.09s-.09-.04-.09-.09.04-.09.09-.09.09.04.09.09ZM278.84,16.39l-.07.27-.39-.41.46.15ZM278.16,16.68c.76,1.4.32,2.77.57,4.43-.69-1.19-1.3-2.91-.57-4.43ZM276.92,16.57c-.37-1.11-.63-2.28-.84-3.57.44,1.09.81,2.17.84,3.57ZM275.17,12.07l-.22-1.94c.56.55.4,1.29.22,1.94ZM237.93,28.98l-.32-.82.61.03.03.75-.32.04ZM240.76,19.76c.55,1.51,0,2.87-1.23,3.95.33-1.48.71-2.6,1.23-3.95ZM240.82,22.82c-.17,1.29-.65,2.7-2.03,3.37.48-1.23,1.12-2.29,2.03-3.37ZM238.9,30.33c-.07,0-.12-.05-.12-.12s.05-.12.12-.12.12.05.12.12-.05.12-.12.12ZM238.68,27.95c-.15-.49.12-.95.64-1.31l-.64,1.31ZM240.19,31.84c-.34-.58-.59-1.28-.81-2,.6.41,1.52.95.81,2ZM240.66,32.41l.22-.73c.15.09.24.14.29.17l-.19.46-.33.09ZM241.42,33l-.19-.06.11-.84.11.28-.04.61ZM241.92,30.78c-.05,0-.09-.04-.09-.09s.04-.09.09-.09.09.04.09.09-.04.09-.09.09ZM242.3,19.55c-.07,0-.12-.05-.12-.12s.05-.12.12-.12.12.05.12.12-.05.12-.12.12ZM242.49,19.09c-.1-.63-.05-1.33.43-1.94l-.43,1.94ZM253.46,35.13c.05,0,.09.04.09.09s-.04.09-.09.09-.09-.04-.09-.09.04-.09.09-.09ZM251.56,18.87c.05,0,.09.04.09.09s-.04.09-.09.09-.09-.04-.09-.09.04-.09.09-.09ZM247.49,14.33l.41.49-.7.11-.47-.56.77-.04ZM243.9,13.56l1.16.84c-.4.1-1.15-.02-1.16-.84ZM244.85,13.62c.57-.1.87.26,1.12.69l-1.12-.69ZM246.65,42.81c-.07,0-.12-.05-.12-.12s.05-.12.12-.12.12.05.12.12-.05.12-.12.12ZM247.23,44.42l-.4-1.34c.28.38.43.85.4,1.34ZM247.89,16.29l-.46-.87.86.24.18.87-.58-.24ZM248.22,14.78l.5-.09.29.31-.31.12-.48-.34ZM248.92,17.73c.05,0,.09.04.09.09s-.04.09-.09.09-.09-.04-.09-.09.04-.09.09-.09ZM248.83,47.15l-.11-.48.22.18.08.31h-.19ZM249.26,47.98l-.2-.56.36.27.17.43-.33-.14ZM248.91,15.39c.99.92,1.93,1.96,2.23,3.07-1.28-.45-2.04-1.81-2.23-3.07ZM250.73,19.12l.36.46-.5-.1-.38-.62.52.27ZM250.62,50.25c-.05,0-.09-.04-.09-.09s.04-.09.09-.09.09.04.09.09-.04.09-.09.09ZM250.99,51.78l-.25-.39c.22.13.28.17.27.16l.28.12-.3.11ZM250.86,20.41c1.31.23,1.71,1.43,2.13,2.44-.81-.79-1.55-1.57-2.13-2.44ZM252.87,51.82l-.53-.3.73-.16.31.34-.5.13ZM253.66,36.09l-.45-.53h.54s-.09.53-.09.53ZM254.56,37.2l.54.06.11.5-.49.09-.16-.65ZM255.06,51.79c-.07,0-.12-.05-.12-.12s.05-.12.12-.12.12.05.12.12-.05.12-.12.12ZM255.19,50.93c.87-.09,1.69.12,2.5.61-.85-.08-1.62-.23-2.5-.61ZM285.33,34.44l-.1.32-.29-.39.39.07ZM285.08,35.07l-.2.31-.54-.25c.53-.1.48-.09.74-.05ZM282.95,34.37c.05,0,.09.04.09.09s-.04.09-.09.09-.09-.04-.09-.09.04-.09.09-.09ZM282.1,36.24c.07,0,.12.05.12.12s-.05.12-.12.12-.12-.05-.12-.12.05-.12.12-.12ZM281.82,46.16c.07,0,.12.05.12.12s-.05.12-.12.12-.12-.05-.12-.12.05-.12.12-.12ZM282.42,48.18l-.73-1.32c.55.29.77.8.73,1.32ZM281.87,49.63c-.33-.19-.64-.5-.94-1,.41.11.65.34.94,1ZM281.01,35.68c.35-.23.37-.18.14.12-.09.11-.29.19-.44.11-.45-.1-.31-.16.3-.23ZM281.46,46.14c-1.38-.54-1.5-2.05-1.64-3.25.97.9,1.89,1.96,1.64,3.25ZM279.33,38.02l.65-.19-.08.17c-.34.2-.43.25-.26.15l-.31-.13ZM280.14,36.67c-.35.3-.58.49-.87.48.12-.14.23-.2.87-.48ZM277.32,37.7l.65.33.18.81-.42-.2-.41-.94ZM278.01,40.42c.72.97,1.37,1.81,1.31,3.17-.58-.93-.96-2.04-1.31-3.17ZM279.07,46.06l-.53-.71c.27.17.48.41.53.71ZM276.59,43.81c-.3-.19-.49-.52-.5-.94.22.32.42.65.5.94ZM275.3,43.28c.09,0,.16.07.16.16s-.07.16-.16.16-.16-.07-.16-.16.07-.16.16-.16ZM274.49,52.13c-1.35-.47-2.66-.75-3.7-1.92,1.33.24,2.88.77,3.7,1.92ZM272.37,36.85c-.16-.62-.25-1.2-.25-2.07.3.61.41,1.3.25,2.07ZM272.48,38.72c0,.07-.05.12-.12.12s-.12-.05-.12-.12.05-.12.12-.12.12.05.12.12ZM272.18,31.91c-.05,0-.09-.04-.09-.09s.04-.09.09-.09.09.04.09.09-.04.09-.09.09ZM272.15,30.18l.21-.89.28.5.17.56-.66-.17ZM272.93,29.08c-.05,0-.09-.04-.09-.09s.04-.09.09-.09.09.04.09.09-.04.09-.09.09ZM273.1,29.25c.15.39.24.78.25,1.16-.23-.33-.34-.69-.25-1.16ZM273.03,11.28c.07,0,.12.05.12.12s-.05.12-.12.12-.12-.05-.12-.12.05-.12.12-.12ZM272.63,12.26l.91.13c.06.16-.14.32-.57.56l-.81-.34c-.3,0-.36.02.47-.36ZM271.88,13.09c-.9.64-1.97,1.15-2.93.47.84-.51,1.95-.97,2.93-.47ZM268.35,12.18c.85-.13.76-.05.26.1-.59.15-.91.16-.26-.1ZM268.69,14.02c-.87.53-1.91.85-3.19.82.99-.26,1.92-.77,3.19-.82ZM268.05,13.34s0,0,0,0h0ZM268.3,13.08l-.26.25s-.08-.17-.16-.33l.41.08ZM267.19,13.65l-.53.32c-.16-.06-.33-.13-.39-.15l.65-.49.27.32ZM265.95,12.8v.23s-.52-.12-.52-.12l.52-.11ZM265.2,12.99v.23s-.52-.12-.52-.12l.52-.11ZM263.46,13.57c-1.12.7-2.14,1.62-3.49,1.26l3.49-1.26ZM262.35,47.05l-.43-.57.46.15-.03.41ZM262.37,51.67c0,.07-.05.12-.12.12s-.12-.05-.12-.12.05-.12.12-.12.12.05.12.12ZM261.63,45.26l-.08-.87.19.42.32.47-.42-.03ZM260.83,25.11c.05,0,.09.04.09.09s-.04.09-.09.09-.09-.04-.09-.09.04-.09.09-.09ZM260.64,21.82c-.07,0-.12-.05-.12-.12s.05-.12.12-.12.12.05.12.12-.05.12-.12.12ZM260.8,20.07l-.34-.56.34-.88.17.71-.17.73ZM260.14,16.89c-.12-.25.26-.72.43-.83.61-.22.91-.27,1.26.03-.5.35-.62.41-1.69.79ZM261.82,22.65l-.03,1.15c-.12-.27-.11-.59.03-1.15ZM261.44,17.41l-.24.17-.42-.26.44-.34.23.43ZM261.27,22.07c.03.56.02,1.02-.09,1.64-.47-.57-.19-1.14.09-1.64ZM261.2,21.37c-.12-1.11-.09-2.23.22-3.46.23,1.23.14,2.34-.22,3.46ZM261.59,42.31c.05,0,.09.04.09.09s-.04.09-.09.09-.09-.04-.09-.09.04-.09.09-.09ZM261.78,24.73c-.05,0-.09-.04-.09-.09s.04-.09.09-.09.09.04.09.09-.04.09-.09.09ZM260.01,20.98c.1,0,.18.08.18.18s-.08.18-.18.18-.18-.08-.18-.18.08-.18.18-.18ZM260.18,22.93l-.13.7-.33-.06-.15-1,.6.36ZM259.81,15.27c0,.12-.09.21-.21.21s-.21-.09-.21-.21.09-.21.21-.21.21.09.21.21ZM257.66,16.66c.38-.38,1.04-.31,1.59-.11-.38.22-.99.22-1.59.11ZM259.4,17.41l-.27.26-.44-.04.44-.43.27.21ZM258.42,21.09c.3.77.43,1.34.41,2.27-.91-.44-1.02-1.48-.41-2.27ZM258.8,20.93l-.1-.93.42.42.03.58c-.21,0-.35-.03-.36-.07ZM258.68,19.01c-.11-.51,0-.74.4-.95.43,0,.51.24.47.65l-.35,1-.53-.71ZM259.6,14.52c-.28.62-1.19.64-.45,1.43-.52.08-1.06.05-1.6-.19.59-.75,1.31-1.08,2.05-1.24ZM256.76,15.48l.56.13-.64.26c-.18-.08-.48.12.07-.39ZM257.14,17.07c0,.05-.04.09-.09.09s-.09-.04-.09-.09.04-.09.09-.09.09.04.09.09ZM257.66,21.37c-.96-.71-1.14-2.31-1.01-3.67.16,1.22,1.41,1.95,1.01,3.67ZM257.12,17.37c.75.4,1.16,1.17.75,2.06-.3-.68-.54-1.31-.75-2.06ZM257.94,23.44l.82.78-.08,4.34c-.99-1.67-.78-3.36-.74-5.12ZM259.37,37.64c-1.44-2.35-1.09-4.93-1.18-7.37,1.3,2.3,1.19,4.87,1.18,7.37ZM259.26,31.48c-.33-.87-.55-1.68-.6-2.57.89.65.93,1.69.6,2.57ZM259.42,24.79c1.04.98.3,2.12.1,3.61-.38-1.06-.51-2.45-.1-3.61ZM259.77,51.4l2.13.25c-.74.22-1.45.16-2.13-.25ZM264.07,52.55c-.85.72-2.04.47-3.03-.13.95-.2,1.84-.21,3.03.13ZM262.68,43.08l-.24-.78.38.31.2.6-.34-.12ZM263.19,44.04c-.07,0-.12-.05-.12-.12s.05-.12.12-.12.12.05.12.12-.05.12-.12.12ZM262.05,15.17c.71-.24,1.33-.32,1.88-.22-.78.42-1.33.41-1.88.22ZM264.69,44.89l-.35-.49.39.06.19.41-.22.02ZM263.54,15.94l1.45-.44c-.51.35-.92.56-1.45.44ZM263.91,14.2c.49-.24.98-.4,1.68-.59-.35.49-.89.88-1.68.59ZM265.64,48.21c.56.2.87.56,1.11,1.08l-1.11-1.08ZM266.75,48c-.67-.28-1.04-.65-1.27-1.25l1.03.24c.28.27.43.37.24,1.01ZM267.12,47.78c.83.51,1.6,1.07,2.3,1.61-1.03-.23-2.2-.4-2.3-1.61ZM268.13,50.19l-.34-.7.49.14.18.42-.33.14ZM271.12,52.39l2.88.95c-1.01.2-2.06-.32-2.88-.95ZM268.87,49.99l5.86,2.85c-2.1-.34-4.75-.79-5.86-2.85ZM274.96,53.03c1.69-.12,2.93.38,4.91,1.12-1.6.03-3.21-.2-4.91-1.12ZM277.54,45.34c.8.89,2.16,1.16,2.47,2.67-1.07-.4-1.66-1.67-2.47-2.67ZM280.18,54.32l1.94-.21h.96c-.93.43-1.91.36-2.9.21ZM283.49,53.98l2.05-.1c-.58.57-1.38.49-2.05.1ZM285.56,32.96l.27-1.88.69.96c-.12.45-.15.61-.96.92ZM286.62,33.77l.14.39-.48.4c-.14-.08-.33-.2-.41-.25l.76-.53ZM286.51,35.54l-.47-.34.51-.1.22.17-.27.28ZM287.11,36.19c-.07,0-.12-.05-.12-.12s.05-.12.12-.12.12.05.12.12-.05.12-.12.12ZM287.53,33.8c.97,1.8,1.34,3.63,1.81,5.55-1.44-1.42-2.01-3.6-1.81-5.55ZM289.03,40.03l.31.26.05.33-.35-.59ZM289.76,41.55c-.05,0-.09-.04-.09-.09s.04-.09.09-.09.09.04.09.09-.04.09-.09.09ZM290.74,51.41l-.31.11.03-.91.36.32-.08.48ZM290.12,42.34c.45.48.77,1.19.8,1.89-.44-.57-.61-1.16-.8-1.89ZM291.47,46.03l.86,1.73c-.77-.27-.89-1.01-.86-1.73Z"/>
      <path class="cls-2" d="M159.16,49.3c-.89-2.89-.79-5.32.38-8.04-1.3.1-.25,1.4-1.39,1.8l-.12-2.31-.65,1.16c-4.12-.88-8.2.29-12.51-.62-.1-4.14.73-8.38,1.92-12.44-1.15.5-.68,1.64-1.39,2.49.12-1.05-.43-2.9,1-3.46-.05-2.69.06-5.33,1.59-7.79l-.21-1.29,1.1-.42-3.43-1.98-8.39-.19.05-1.82c-.69.22-.61.9-.71,1.5-.99.37-2.1-.31-2.95.31.55.28.71.33,1.12.45.17-.15.18.3.07.37l-.71.35,1.22.81c.14.56.13,1,.12,1.63-1.23,3.89-1.39,7.74-1.54,11.53-1.62,3.37-1.42,7.16-1,10.8l-.21,11.7c1.47-1.14,2.95-1.38,4.44-.6l10.71.25c2.79-.45,5.32-.04,8.18.28-.86-1.15-2.18-.33-3.08-1.06,1.35.01,2.77.08,3.89.27l.2,1.05c.19-.03.38-.21.39-.36l-.1-.75c.72.25,1.11,1.24,1.71.64-.76-.87-2.46-1.39-1.28-2.2-.29-1.54.26-1.52,1.59-2.04ZM134.59,26.83l-.03,1.32c-.44-.3-.28-.64.03-1.32ZM134.45,28.99l-.15.29v-.63s.15.34.15.34ZM134.15,31.1c.38,2.98-.63,5.34-1.13,9.17-.28-3.01-.06-6.09,1.13-9.17ZM133.01,49.68c-.05,0-.09-.04-.09-.09s.04-.09.09-.09.09.04.09.09-.04.09-.09.09ZM133.55,52.53l-.08-.6.4.09v.41s-.31.09-.31.09ZM133.34,46.04c.04-3.4.49-6.74,1.4-9.99-.09,3.45-.83,6.64-1.4,9.99ZM134.9,35.13c-.05,0-.09-.04-.09-.09s.04-.09.09-.09.09.04.09.09-.04.09-.09.09ZM135.1,28.36c-.14-.69-.14-1.35.01-2.29.08.75.08,1.5-.01,2.29ZM135.3,25.88c-.13-.34-.13-.72.02-1.34l-.02,1.34ZM135.27,16.98c-.05,0-.09-.04-.09-.09s.04-.09.09-.09.09.04.09.09-.04.09-.09.09ZM136.03,23.78c-.05,0-.09-.04-.09-.09s.04-.09.09-.09.09.04.09.09-.04.09-.09.09ZM144.92,34.37c-.05,0-.09-.04-.09-.09s.04-.09.09-.09.09.04.09.09-.04.09-.09.09ZM146.05,21.32c-.05,0-.09-.04-.09-.09s.04-.09.09-.09.09.04.09.09-.04.09-.09.09ZM146.05,20.79c.06-.57.15-1.17.36-1.79.54.56.1,1.18-.36,1.79ZM136.68,17.25c.43-.06.82-.06,1.17,0-.38.08-.8.08-1.17,0ZM140.95,52.33c-.05,0-.09-.04-.09-.09s.04-.09.09-.09.09.04.09.09-.04.09-.09.09ZM141.51,52.33c-.05,0-.09-.04-.09-.09s.04-.09.09-.09.09.04.09.09-.04.09-.09.09ZM142.08,52.33c-.05,0-.09-.04-.09-.09s.04-.09.09-.09.09.04.09.09-.04.09-.09.09ZM142.65,52.33c-.05,0-.09-.04-.09-.09s.04-.09.09-.09.09.04.09.09-.04.09-.09.09ZM143.12,52.36c-.07,0-.12-.05-.12-.12s.05-.12.12-.12.12.05.12.12-.05.12-.12.12ZM143.5,52.24c0-.05.04-.09.09-.09s.09.04.09.09-.04.09-.09.09-.09-.04-.09-.09ZM143.69,53.11c-.07,0-.12-.05-.12-.12s.05-.12.12-.12.12.05.12.12-.05.12-.12.12ZM140.53,17.63c1.32.04,2.51-.98,3.46-.05-1.25.27-2.4.2-3.46.05ZM144.16,52.33c-.05,0-.09-.04-.09-.09s.04-.09.09-.09.09.04.09.09-.04.09-.09.09ZM147.32,18.08c-1.1-.18-2.13-.27-3-.67,1.17-.98,2.18-.02,3,.67ZM144.73,52.33c-.05,0-.09-.04-.09-.09s.04-.09.09-.09.09.04.09.09-.04.09-.09.09ZM144.63,42.02c.37-.04.7-.04.97,0-.3.06-.67.06-.97,0ZM146.89,52.61c.83-.17,1.51-.18,2.45.23-.8.12-1.62.03-2.45-.23ZM158.34,47.47c.03.77.46,1.37-.27,1.93-.82-.6-.14-1.46.27-1.93Z"/>
    </g>
  </g>
</svg>