<?xml version="1.0" encoding="UTF-8"?>
<svg id="Capa_2" data-name="Capa 2" xmlns="http://www.w3.org/2000/svg" viewBox="0 0 393.73 97.99">
  <defs>
    <style>
      .cls-1 {
        fill: #fff;
        fill-rule: evenodd;
      }
    </style>
  </defs>
  <g id="Capa_2-2" data-name="Capa 2">
    <g id="Capa_1-2" data-name="Capa 1-2">
      <path id="mts-logo" class="cls-1" d="M35,0c-7.3,0-15.97,7.02-23.11,18.83C4.44,31.06,0,46.2,0,59.34c0,19.24,10.8,38.65,35,38.65s35-19.41,35-38.65c0-13.15-4.44-28.28-11.85-40.51C50.94,7.02,42.28,0,35,0ZM223.99,28.87h24.5v63.87h26.25V28.87h24.49V5.25h-75.24v23.62h0ZM355.23,28.87h38.5V5.25h-38.5c-35.37,0-54.26,17.59-54.26,43.75s18.89,43.75,54.26,43.75h38.5v-23.63h-38.5c-16.37,0-27.13-5.85-27.13-20.12s10.76-20.12,27.13-20.12h0ZM170.6,5.25l-13.99,52.23-13.99-52.23h-46.37v87.5h26.24V21.58l19.07,71.17h30.1l19.08-71.21v71.21h26.25V5.25h-46.39Z"/>
    </g>
  </g>
</svg>