<?xml version="1.0" encoding="UTF-8"?>
<svg id="Capa_2" data-name="Capa 2" xmlns="http://www.w3.org/2000/svg" viewBox="0 0 300.28 71.86">
  <defs>
    <style>
      .cls-1 {
        fill: #fff;
      }
    </style>
  </defs>
  <g id="Capa_2-2" data-name="Capa 2">
    <g id="Capa_1-2" data-name="Capa 1-2">
      <g>
        <path class="cls-1" d="M238.05,14l11.11-8.3h-37.19v49.72h37.19v-8.31h-26.57v-12.69h22.71v-8.3h-22.71v-12.13h15.46Z"/>
        <path class="cls-1" d="M183.87,25.06h-12.88v-11.06h20.61l11.11-8.3h-42.35v49.72h22.13c12.4,0,19.56-5.7,19.56-15.63s-6.44-14.73-18.19-14.73h.01ZM182.1,47.12h-11.11v-13.75h11.11c6.76,0,9.9,2.28,9.9,6.92s-3.38,6.83-9.9,6.83Z"/>
        <path class="cls-1" d="M279.27,5.7h-20.2v49.72h10.62v-14.08h9.66c12.88,0,20.93-6.83,20.93-17.82s-8.05-17.82-21.01-17.82h0ZM279.03,33.04h-9.42V14h9.42c6.85,0,10.55,3.42,10.55,9.52s-3.7,9.52-10.55,9.52Z"/>
        <path class="cls-1" d="M142.17,44.68c-2.81,1.55-5.96,2.36-9.17,2.36-9.58,0-16.5-6.92-16.5-16.44s6.92-16.44,16.5-16.44c3.46-.08,6.85,1.06,9.66,3.1l7.65-5.69-.48-.49c-4.43-3.99-10.39-6.02-17.15-6.02-7.32,0-14.01,2.52-18.83,7.08-4.83,4.72-7.57,11.31-7.41,18.15-.08,6.91,2.58,13.59,7.41,18.47,5.07,4.8,11.83,7.49,18.76,7.33,7.64,0,14.32-2.69,18.83-7.57l-6.84-5.13-2.42,1.3h-.01Z"/>
        <path class="cls-1" d="M73.18,5.38c1.93,2.52,3.54,5.29,4.91,8.22l-37.19,27.75-15.62-9.93v-11.88l15.54,9.84L73.18,5.38Z"/>
        <path class="cls-1" d="M9.42,30.6c0-.57,0-1.05.08-1.63L.08,28.48c0,.65-.08,1.39-.08,2.03,0,11.39,4.59,21.73,11.99,29.21l6.68-6.76c-5.71-5.69-9.26-13.59-9.26-22.38v.02Z"/>
        <path class="cls-1" d="M40.82,62.34c-.57,0-1.05,0-1.61-.08l-.48,9.52c.65,0,1.37.08,2.01.08,11.27,0,21.5-4.64,28.9-12.13l-6.68-6.76c-5.64,5.86-13.45,9.36-22.14,9.36h0Z"/>
        <path class="cls-1" d="M81.71,30.6c0-2.52-.24-4.96-.65-7.4l-8.78,6.59v.81c0,9.36-4.03,17.74-10.38,23.52l6.36,7.08c8.22-7.49,13.45-18.47,13.45-30.6Z"/>
        <path class="cls-1" d="M40.82,62.34c-9.26,0-17.55-4.07-23.26-10.5l-7,6.43c7.49,8.38,18.27,13.59,30.27,13.59v-9.52h-.01Z"/>
        <path class="cls-1" d="M19.8,7.08L13.44,0C5.15,7.57,0,18.47,0,30.6h9.42c0-9.28,4.03-17.74,10.39-23.52h-.01Z"/>
      </g>
    </g>
  </g>
</svg>