<?xml version="1.0" encoding="UTF-8"?>
<svg id="Capa_2" data-name="Capa 2" xmlns="http://www.w3.org/2000/svg" viewBox="0 0 264.52 97.83">
  <defs>
    <style>
      .cls-1 {
        fill: #fff;
      }
    </style>
  </defs>
  <g id="Capa_2-2" data-name="Capa 2">
    <g id="Capa_1-2" data-name="Capa 1-2">
      <path class="cls-1" d="M164.27,0v23.3h-19.89v73.32h-23.04V23.3h-19.88V0h62.81ZM264.51,60.03c-4.97,21.66-24.16,37.8-47.08,37.8-26.7,0-48.34-21.89-48.34-48.91S190.73,0,217.43,0C239.97,0,258.91,15.63,264.26,36.76h-25.05c-4.23-7.75-12.4-13-21.77-13-13.73,0-24.86,11.26-24.86,25.16s11.13,25.16,24.86,25.16c9.79,0,18.26-5.73,22.32-14.05h24.76-.01ZM95.42,60.03c-4.97,21.66-24.16,37.8-47.08,37.8C21.64,97.83,0,75.94,0,48.92S21.64,0,48.34,0c22.55,0,41.49,15.63,46.83,36.76h-25.05c-4.23-7.75-12.4-13-21.77-13-13.73,0-24.86,11.26-24.86,25.16s11.13,25.16,24.86,25.16c9.79,0,18.26-5.73,22.32-14.05,0,0,24.75,0,24.75,0Z"/>
    </g>
  </g>
</svg>