<?xml version="1.0" encoding="UTF-8"?>
<svg id="Capa_2" data-name="Capa 2" xmlns="http://www.w3.org/2000/svg" viewBox="0 0 343.97 206.35">
  <defs>
    <style>
      .cls-1 {
        fill: #fff;
      }
    </style>
  </defs>
  <g id="Capa_2-2" data-name="Capa 2">
    <g id="Capa_1-2" data-name="Capa 1-2">
      <path class="cls-1" d="M51.22,0C23.05,0,.02,23.04.02,51.19l-.02,155.16h343.97V0H51.22ZM130.36,88.51h-27.33v49.01h-24.47v-49.01h-27.37v-19.79h79.17v19.79ZM204.68,132.93c-6.38,4.82-15.63,7.34-26.41,7.36-12.15.03-23.08-3.08-30.59-9.9-8.02-7.28-11.64-15.96-11.64-27.49v-.55c0-10.56,4.17-21.14,12-27.84,7.74-6.59,17.22-9.54,30.51-9.54,10.8,0,18.97,2.47,25.96,7.35,7.06,4.91,12.04,12.26,12.57,22.72h-21.72c-.86-5.19-3.7-13.13-17.04-13.13-5.67,0-9.97,1.57-13.59,4.97-3.52,3.28-6.1,8.4-6.1,15.22v1.04c0,6.84,2.57,11.92,6.1,15.2,3.61,3.38,7.89,5,13.56,5,13.99,0,16.59-8.92,17.18-13.08h21.66c-.58,9.86-5.39,17.35-12.45,22.67ZM292.43,137.5h-62.19v-68.77h23.58v49.91h38.61v18.86Z"/>
    </g>
  </g>
</svg>